<svg width="19" height="20" viewBox="0 0 19 20" fill="none" xmlns="http://www.w3.org/2000/svg">
<path fill-rule="evenodd" clip-rule="evenodd" d="M5.36357 17.6328C5.24717 17.5167 5.15482 17.3788 5.09181 17.2269C5.0288 17.0751 4.99636 16.9123 4.99636 16.7479C4.99636 16.5835 5.0288 16.4207 5.09181 16.2688C5.15482 16.117 5.24717 15.979 5.36357 15.8629L11.9805 9.24849L5.36357 2.63404C5.24736 2.51783 5.15517 2.37987 5.09228 2.22804C5.02939 2.0762 4.99702 1.91346 4.99702 1.74912C4.99702 1.58477 5.02939 1.42203 5.09228 1.2702C5.15517 1.11836 5.24736 0.980402 5.36357 0.864191C5.47978 0.74798 5.61774 0.655798 5.76957 0.592905C5.92141 0.530012 6.08415 0.497643 6.24849 0.497643C6.41284 0.497643 6.57558 0.530012 6.72741 0.592905C6.87925 0.655798 7.01721 0.74798 7.13342 0.864191L14.6328 8.36357C14.7492 8.47967 14.8415 8.6176 14.9046 8.76945C14.9676 8.9213 15 9.08409 15 9.24849C15 9.4129 14.9676 9.57569 14.9046 9.72754C14.8415 9.87939 14.7492 10.0173 14.6328 10.1334L7.13342 17.6328C7.01732 17.7492 6.87939 17.8415 6.72754 17.9046C6.57569 17.9676 6.4129 18 6.24849 18C6.08409 18 5.9213 17.9676 5.76945 17.9046C5.6176 17.8415 5.47967 17.7492 5.36357 17.6328Z" fill="#D5D5D5"/>
</svg>
