<svg width="36" height="36" viewBox="0 0 36 36" fill="none" xmlns="http://www.w3.org/2000/svg">
<path d="M8.09995 12.15C8.09995 11.0759 8.52665 10.0458 9.28617 9.28627C10.0457 8.52674 11.0758 8.10005 12.15 8.10005C13.2241 8.10005 14.2542 8.52674 15.0137 9.28627C15.7733 10.0458 16.2 11.0759 16.2 12.15C16.2 13.2242 15.7733 14.2543 15.0137 15.0138C14.2542 15.7734 13.2241 16.2 12.15 16.2C11.0758 16.2 10.0457 15.7734 9.28617 15.0138C8.52665 14.2543 8.09995 13.2242 8.09995 12.15ZM12.15 6.30005C10.5984 6.30005 9.11046 6.91639 8.01338 8.01347C6.91629 9.11056 6.29995 10.5985 6.29995 12.15C6.29995 13.7016 6.91629 15.1895 8.01338 16.2866C9.11046 17.3837 10.5984 18 12.15 18C13.7015 18 15.1894 17.3837 16.2865 16.2866C17.3836 15.1895 18 13.7016 18 12.15C18 10.5985 17.3836 9.11056 16.2865 8.01347C15.1894 6.91639 13.7015 6.30005 12.15 6.30005ZM22.3866 27.261C23.355 27.657 24.5736 27.9 26.1 27.9C29.4858 27.9 31.3578 26.6976 32.3442 25.3188C32.8588 24.5953 33.1814 23.753 33.282 22.8708C33.291 22.7889 33.297 22.7066 33.3 22.6242V22.5C33.3 22.1455 33.2301 21.7944 33.0944 21.4668C32.9587 21.1392 32.7599 20.8416 32.5091 20.5909C32.2584 20.3401 31.9608 20.1413 31.6332 20.0056C31.3056 19.8699 30.9545 19.8 30.6 19.8H22.266C22.698 20.322 23.022 20.9322 23.211 21.6H30.6C30.8386 21.6 31.0676 21.6949 31.2363 21.8637C31.4051 22.0324 31.5 22.2614 31.5 22.5V22.5972L31.491 22.6872C31.422 23.258 31.2116 23.8024 30.879 24.2712C30.2904 25.0974 29.0124 26.1 26.1 26.1C24.7824 26.1 23.7996 25.8948 23.0634 25.5942C22.9158 26.0982 22.7016 26.667 22.3866 27.261ZM2.69995 23.4C2.69995 22.4453 3.07924 21.5296 3.75437 20.8545C4.4295 20.1793 5.34517 19.8 6.29995 19.8H18C18.9547 19.8 19.8704 20.1793 20.5455 20.8545C21.2207 21.5296 21.6 22.4453 21.6 23.4V23.5512C21.6 23.5692 21.6 23.5926 21.5964 23.6232C21.5745 23.9796 21.5233 24.3336 21.4434 24.6816C21.2904 25.344 20.9862 26.2296 20.3724 27.1188C19.1106 28.944 16.6734 30.6 12.15 30.6C7.62655 30.6 5.18935 28.944 3.92755 27.1188C3.26303 26.1509 2.84869 25.0334 2.72155 23.8662C2.7108 23.7615 2.70359 23.6565 2.69995 23.5512V23.4ZM4.49995 23.508V23.5404L4.51255 23.6898C4.61008 24.5527 4.91789 25.3785 5.40895 26.0946C6.28555 27.3618 8.12335 28.8 12.15 28.8C16.1766 28.8 18.0144 27.3618 18.891 26.0946C19.3821 25.3785 19.69 24.5528 19.7874 23.6898C19.7933 23.6402 19.7969 23.5904 19.7982 23.5404L19.8 23.5098V23.4C19.8 22.9227 19.6103 22.4648 19.2727 22.1273C18.9352 21.7897 18.4773 21.6 18 21.6H6.29995C5.82256 21.6 5.36472 21.7897 5.02716 22.1273C4.68959 22.4648 4.49995 22.9227 4.49995 23.4V23.508ZM23.4 13.5C23.4 12.784 23.6844 12.0972 24.1908 11.5909C24.6971 11.0845 25.3839 10.8 26.1 10.8C26.816 10.8 27.5028 11.0845 28.0091 11.5909C28.5155 12.0972 28.8 12.784 28.8 13.5C28.8 14.2161 28.5155 14.9029 28.0091 15.4092C27.5028 15.9156 26.816 16.2 26.1 16.2C25.3839 16.2 24.6971 15.9156 24.1908 15.4092C23.6844 14.9029 23.4 14.2161 23.4 13.5ZM26.1 9.00005C24.9065 9.00005 23.7619 9.47415 22.918 10.3181C22.0741 11.162 21.6 12.3066 21.6 13.5C21.6 14.6935 22.0741 15.8381 22.918 16.682C23.7619 17.5259 24.9065 18 26.1 18C27.2934 18 28.438 17.5259 29.2819 16.682C30.1258 15.8381 30.6 14.6935 30.6 13.5C30.6 12.3066 30.1258 11.162 29.2819 10.3181C28.438 9.47415 27.2934 9.00005 26.1 9.00005Z" fill="black"/>
</svg>
