<svg width="22" height="19" viewBox="0 0 22 19" fill="none" xmlns="http://www.w3.org/2000/svg">
<g clip-path="url(#clip0_50_453)">
<path fill-rule="evenodd" clip-rule="evenodd" d="M15.125 17.8125C16.5837 17.8125 17.9826 17.3121 19.0141 16.4213C20.0455 15.5305 20.625 14.3223 20.625 13.0625C20.625 11.8027 20.0455 10.5945 19.0141 9.70374C17.9826 8.81294 16.5837 8.3125 15.125 8.3125C13.6663 8.3125 12.2674 8.81294 11.2359 9.70374C10.2045 10.5945 9.625 11.8027 9.625 13.0625C9.625 14.3223 10.2045 15.5305 11.2359 16.4213C12.2674 17.3121 13.6663 17.8125 15.125 17.8125ZM22 13.0625C22 14.6372 21.2757 16.1474 19.9864 17.2609C18.697 18.3744 16.9484 19 15.125 19C13.3016 19 11.553 18.3744 10.2636 17.2609C8.97433 16.1474 8.25 14.6372 8.25 13.0625C8.25 11.4878 8.97433 9.97755 10.2636 8.86405C11.553 7.75056 13.3016 7.125 15.125 7.125C16.9484 7.125 18.697 7.75056 19.9864 8.86405C21.2757 9.97755 22 11.4878 22 13.0625Z" fill="#2854C3"/>
<path d="M12.9772 14.1835C13.0418 14.8913 13.6895 15.4423 14.8513 15.5088V16.0312H15.367V15.5052C16.5701 15.4328 17.2727 14.877 17.2727 14.0719C17.2727 13.338 16.7365 12.9604 15.774 12.7656L15.367 12.6825V11.2575C15.884 11.3086 16.2112 11.552 16.2896 11.8893H17.1943C17.1297 11.2064 16.4518 10.6733 15.367 10.6151V10.0938H14.8513V10.6281C13.8242 10.7148 13.1257 11.248 13.1257 12.0032C13.1257 12.6706 13.6455 13.0957 14.5103 13.2691L14.8513 13.3416V14.8521C14.3233 14.7832 13.9727 14.5314 13.8943 14.1835H12.9758H12.9772ZM14.8472 12.5756C14.3398 12.4747 14.0648 12.2669 14.0648 11.9557C14.0648 11.6066 14.3618 11.3454 14.8513 11.2694V12.5756H14.8472ZM15.4412 13.4615C16.0586 13.585 16.3418 13.7845 16.3418 14.1372C16.3418 14.5397 15.9885 14.8152 15.367 14.8663V13.4473L15.4412 13.4615Z" fill="#2854C3"/>
<path d="M1.375 0C1.01033 0 0.660591 0.125111 0.402728 0.347811C0.144866 0.57051 0 0.872555 0 1.1875L0 10.6875C0 11.0024 0.144866 11.3045 0.402728 11.5272C0.660591 11.7499 1.01033 11.875 1.375 11.875H6.98913C7.06888 11.4665 7.1885 11.0699 7.34387 10.6875H4.125C4.125 10.0576 3.83527 9.45352 3.31954 9.00812C2.80382 8.56272 2.10435 8.3125 1.375 8.3125V3.5625C2.10435 3.5625 2.80382 3.31228 3.31954 2.86688C3.83527 2.42148 4.125 1.81739 4.125 1.1875H17.875C17.875 1.81739 18.1647 2.42148 18.6805 2.86688C19.1962 3.31228 19.8957 3.5625 20.625 3.5625V7.752C21.1475 8.15575 21.6109 8.6165 22 9.12238V1.1875C22 0.872555 21.8551 0.57051 21.5973 0.347811C21.3394 0.125111 20.9897 0 20.625 0L1.375 0Z" fill="#2854C3"/>
<path d="M13.7473 6.03612L13.75 5.93755C13.7497 5.52857 13.6272 5.12658 13.3942 4.77051C13.1612 4.41445 12.8257 4.11638 12.4202 3.90517C12.0146 3.69396 11.5528 3.57677 11.0795 3.56496C10.6061 3.55314 10.1372 3.64709 9.71824 3.83772C9.29926 4.02835 8.94438 4.30918 8.68798 4.65303C8.43157 4.99688 8.28232 5.39209 8.25469 5.80038C8.22705 6.20866 8.32197 6.6162 8.53024 6.9835C8.73852 7.35081 9.05309 7.66544 9.4435 7.89693C10.6312 6.91994 12.1299 6.27192 13.7473 6.03612Z" fill="#2854C3"/>
</g>
<defs>
<clipPath id="clip0_50_453">
<rect width="22" height="19" fill="white"/>
</clipPath>
</defs>
</svg>
