<svg width="186" height="30" viewBox="0 0 186 30" fill="none" xmlns="http://www.w3.org/2000/svg">
<path d="M19.5846 9.40822L19.6982 9.64936L19.9617 9.68946L28.9535 11.0579C28.9537 11.0579 28.9539 11.058 28.9541 11.058C29.288 11.1103 29.5498 11.4455 29.4921 11.8374L29.4921 11.8374L29.4913 11.8427C29.4703 11.9965 29.4015 12.135 29.2997 12.2396C29.2995 12.2398 29.2994 12.24 29.2992 12.2401L22.7933 18.8824L22.6161 19.0633L22.657 19.3131L24.1943 28.6937L24.1944 28.6941C24.2594 29.0887 24.0037 29.4301 23.6744 29.4895L23.6737 29.4897C23.542 29.5137 23.4048 29.4915 23.2876 29.4261L23.2854 29.4249L15.2412 24.9961L15.0001 24.8633L14.7589 24.9961L6.71479 29.4249L6.71401 29.4253C6.6112 29.4822 6.49716 29.5068 6.38428 29.4984C6.27134 29.49 6.16071 29.4485 6.06517 29.3758C5.9694 29.303 5.89215 29.2012 5.84515 29.08C5.79811 28.9586 5.78417 28.8248 5.80571 28.6944L5.80582 28.6937L7.34309 19.3131L7.38404 19.0633L7.20688 18.8824L0.700021 12.2392L0.699989 12.2392C0.576859 12.1135 0.50246 11.937 0.50006 11.7472C0.497663 11.5578 0.567355 11.3792 0.687259 11.2498C0.787158 11.1433 0.912475 11.078 1.04375 11.0584L1.045 11.0582L10.0384 9.68946L10.3019 9.64936L10.4155 9.40822L14.4347 0.875693C14.4349 0.875347 14.435 0.875001 14.4352 0.874656C14.6004 0.530049 14.9786 0.414158 15.2734 0.566578L15.274 0.566882C15.3962 0.629825 15.4998 0.735954 15.5641 0.872895L15.5643 0.87332L19.5846 9.40822Z" fill="#2854C3" stroke="#2854C3"/>
<path d="M175.585 9.40822L175.698 9.64936L175.962 9.68946L184.954 11.0579C184.954 11.0579 184.954 11.058 184.954 11.058C185.288 11.1103 185.55 11.4455 185.492 11.8374L185.492 11.8374L185.491 11.8427C185.47 11.9965 185.401 12.135 185.3 12.2396C185.3 12.2398 185.299 12.24 185.299 12.2401L178.793 18.8824L178.616 19.0633L178.657 19.3131L180.194 28.6937L180.194 28.6941C180.259 29.0887 180.004 29.4301 179.674 29.4895L179.674 29.4897C179.542 29.5137 179.405 29.4915 179.288 29.4261L179.285 29.4249L171.241 24.9961L171 24.8633L170.759 24.9961L162.715 29.4249L162.714 29.4253C162.611 29.4822 162.497 29.5068 162.384 29.4984C162.271 29.49 162.161 29.4485 162.065 29.3758C161.969 29.303 161.892 29.2012 161.845 29.08C161.798 28.9586 161.784 28.8248 161.806 28.6944L161.806 28.6937L163.343 19.3131L163.384 19.0633L163.207 18.8824L156.7 12.2392L156.7 12.2392C156.577 12.1135 156.502 11.937 156.5 11.7472C156.498 11.5578 156.567 11.3792 156.687 11.2498C156.787 11.1433 156.912 11.078 157.044 11.0584L157.045 11.0582L166.038 9.68946L166.302 9.64936L166.416 9.40822L170.435 0.875693C170.435 0.875347 170.435 0.875001 170.435 0.874656C170.6 0.530049 170.979 0.414158 171.273 0.566578L171.274 0.566882C171.396 0.629825 171.5 0.735954 171.564 0.872895L171.564 0.87332L175.585 9.40822Z" stroke="#2854C3"/>
<path d="M136.585 9.40822L136.698 9.64936L136.962 9.68946L145.954 11.0579C145.954 11.0579 145.954 11.058 145.954 11.058C146.288 11.1103 146.55 11.4455 146.492 11.8374L146.492 11.8374L146.491 11.8427C146.47 11.9965 146.401 12.135 146.3 12.2396C146.3 12.2398 146.299 12.24 146.299 12.2401L139.793 18.8824L139.616 19.0633L139.657 19.3131L141.194 28.6937L141.194 28.6941C141.259 29.0887 141.004 29.4301 140.674 29.4895L140.674 29.4897C140.542 29.5137 140.405 29.4915 140.288 29.4261L140.285 29.4249L132.241 24.9961L132 24.8633L131.759 24.9961L123.715 29.4249L123.714 29.4253C123.611 29.4822 123.497 29.5068 123.384 29.4984C123.271 29.49 123.161 29.4485 123.065 29.3758C122.969 29.303 122.892 29.2012 122.845 29.08C122.798 28.9586 122.784 28.8248 122.806 28.6944L122.806 28.6937L124.343 19.3131L124.384 19.0633L124.207 18.8824L117.7 12.2392L117.7 12.2392C117.577 12.1135 117.502 11.937 117.5 11.7472C117.498 11.5578 117.567 11.3792 117.687 11.2498C117.787 11.1433 117.912 11.078 118.044 11.0584L118.045 11.0582L127.038 9.68946L127.302 9.64936L127.416 9.40822L131.435 0.875693C131.435 0.875347 131.435 0.875001 131.435 0.874656C131.6 0.530049 131.979 0.414158 132.273 0.566578L132.274 0.566882C132.396 0.629825 132.5 0.735954 132.564 0.872895L132.564 0.87332L136.585 9.40822Z" fill="#2854C3" stroke="#2854C3"/>
<path d="M97.5846 9.40822L97.6982 9.64936L97.9617 9.68946L106.954 11.0579C106.954 11.0579 106.954 11.058 106.954 11.058C107.288 11.1103 107.55 11.4455 107.492 11.8374L107.492 11.8374L107.491 11.8427C107.47 11.9965 107.401 12.135 107.3 12.2396C107.3 12.2398 107.299 12.24 107.299 12.2401L100.793 18.8824L100.616 19.0633L100.657 19.3131L102.194 28.6937L102.194 28.6941C102.259 29.0887 102.004 29.4301 101.674 29.4895L101.674 29.4897C101.542 29.5137 101.405 29.4915 101.288 29.4261L101.285 29.4249L93.2412 24.9961L93.0001 24.8633L92.7589 24.9961L84.7148 29.4249L84.714 29.4253C84.6112 29.4822 84.4972 29.5068 84.3843 29.4984C84.2713 29.49 84.1607 29.4485 84.0652 29.3758C83.9694 29.303 83.8921 29.2012 83.8452 29.08C83.7981 28.9586 83.7842 28.8248 83.8057 28.6944L83.8058 28.6937L85.3431 19.3131L85.384 19.0633L85.2069 18.8824L78.7 12.2392L78.7 12.2392C78.5769 12.1135 78.5025 11.937 78.5001 11.7472C78.4977 11.5578 78.5674 11.3792 78.6873 11.2498C78.7872 11.1433 78.9125 11.078 79.0437 11.0584L79.045 11.0582L88.0384 9.68946L88.3019 9.64936L88.4155 9.40822L92.4347 0.875693C92.4349 0.875347 92.435 0.875001 92.4352 0.874656C92.6004 0.530049 92.9786 0.414158 93.2734 0.566578L93.274 0.566882C93.3962 0.629825 93.4998 0.735954 93.5641 0.872895L93.5643 0.87332L97.5846 9.40822Z" fill="#2854C3" stroke="#2854C3"/>
<path d="M58.5846 9.40822L58.6982 9.64936L58.9617 9.68946L67.9535 11.0579C67.9537 11.0579 67.9539 11.058 67.9541 11.058C68.288 11.1103 68.5498 11.4455 68.4921 11.8374L68.4921 11.8374L68.4913 11.8427C68.4703 11.9965 68.4015 12.135 68.2997 12.2396C68.2995 12.2398 68.2994 12.24 68.2992 12.2401L61.7933 18.8824L61.6161 19.0633L61.657 19.3131L63.1943 28.6937L63.1944 28.6941C63.2594 29.0887 63.0037 29.4301 62.6744 29.4895L62.6737 29.4897C62.542 29.5137 62.4048 29.4915 62.2876 29.4261L62.2854 29.4249L54.2412 24.9961L54.0001 24.8633L53.7589 24.9961L45.7148 29.4249L45.714 29.4253C45.6112 29.4822 45.4972 29.5068 45.3843 29.4984C45.2713 29.49 45.1607 29.4485 45.0652 29.3758C44.9694 29.303 44.8921 29.2012 44.8452 29.08C44.7981 28.9586 44.7842 28.8248 44.8057 28.6944L44.8058 28.6937L46.3431 19.3131L46.384 19.0633L46.2069 18.8824L39.7 12.2392L39.7 12.2392C39.5769 12.1135 39.5025 11.937 39.5001 11.7472C39.4977 11.5578 39.5674 11.3792 39.6873 11.2498C39.7872 11.1433 39.9125 11.078 40.0437 11.0584L40.045 11.0582L49.0384 9.68946L49.3019 9.64936L49.4155 9.40822L53.4347 0.875693C53.4349 0.875347 53.435 0.875001 53.4352 0.874656C53.6004 0.530049 53.9786 0.414158 54.2734 0.566578L54.274 0.566882C54.3962 0.629825 54.4998 0.735954 54.5641 0.872895L54.5643 0.87332L58.5846 9.40822Z" fill="#2854C3" stroke="#2854C3"/>
</svg>
