<svg width="36" height="39" viewBox="0 0 36 39" fill="none" xmlns="http://www.w3.org/2000/svg">
<path d="M35.3805 23.8899L31.9264 20.8139C30.9264 19.9239 30.9264 18.4658 31.9264 17.5758L35.3805 14.4978C36.3805 13.6077 36.1145 12.7797 34.7884 12.6497L30.2084 12.2157C28.8843 12.0917 28.1683 10.9497 28.6263 9.68368L31.0564 2.91757C31.5124 1.64754 30.9544 1.18754 29.8184 1.88955L24.4163 5.2296C24.1487 5.39726 23.8497 5.50842 23.5375 5.55627C23.2254 5.60411 22.9068 5.58763 22.6013 5.50784C22.2958 5.42804 22.0098 5.28661 21.761 5.09225C21.5121 4.89788 21.3056 4.65468 21.1542 4.37759L19.1982 0.885531C18.5402 -0.290489 17.4542 -0.294489 16.7841 0.869531L14.9661 4.02958C14.2921 5.1996 12.7501 5.69561 11.54 5.1416L8.34 3.67358C7.12397 3.11357 6.19396 3.75758 6.26596 5.1056L6.43796 8.33566C6.51196 9.68368 5.51595 11.0697 4.22993 11.4177L1.13987 12.2457C-0.144148 12.5937 -0.380152 13.6057 0.619864 14.4958L4.07392 17.5738C5.07394 18.4638 5.07394 19.9219 4.07392 20.8119L0.619864 23.8899C-0.380152 24.7799 -0.116148 25.6439 1.20587 25.804L5.39595 26.312C6.71797 26.472 7.45398 27.652 7.03197 28.934L4.88394 35.4501C4.46193 36.7321 5.06394 37.2281 6.21996 36.5601L11.146 33.7081C11.7207 33.3899 12.3934 33.2971 13.0327 33.448C13.6721 33.5989 14.2323 33.9825 14.6041 34.5241L16.6481 37.6022C17.3922 38.7202 18.5102 38.6602 19.1282 37.4662L20.9262 34.0001C21.2255 33.4251 21.7377 32.9897 22.3534 32.7868C22.9691 32.5839 23.6397 32.6296 24.2223 32.9141L27.6903 34.6481C28.8863 35.2421 29.8044 34.6281 29.7324 33.2841L29.5584 30.05C29.4884 28.702 30.4804 27.32 31.7704 26.972L34.8564 26.14C36.1445 25.792 36.3805 24.7799 35.3805 23.8899ZM20.0002 27.202H16.0001V23.2019H20.0002V27.202ZM20.0002 21.2019H16.0001V11.2017H20.0002V21.2019Z" fill="#2854C3"/>
</svg>
