<svg width="283" height="345" viewBox="0 0 283 345" fill="none" xmlns="http://www.w3.org/2000/svg">
<path opacity="0.18" d="M269.912 290.257C260.843 304.07 248.142 315.19 234.209 324.118L231.607 325.76C221.247 332.105 210.237 337.43 198.396 340.233C186.135 343.135 173.374 343.236 160.802 343.376C137.681 343.576 114.46 343.105 91.4188 344.777C73.2122 346.108 57.3878 336.149 45.3768 322.877C44.8764 322.327 44.3759 321.756 43.9055 321.195C33.1657 308.754 25.7389 293.81 18.7626 278.917C10.1647 260.58 1.94722 241.573 0.325739 221.404C-1.00547 204.859 2.15741 188.294 2.40764 171.699C2.71792 151.09 -1.46589 130.442 0.866233 109.953C2.86806 92.0265 9.87445 74.9209 18.8827 59.2866C26.89 45.3239 36.6188 32.1519 49.1403 22.0627C63.8074 10.4528 81.3893 3.10767 99.9566 0.833334C142.475 -4.64166 187.276 17.2783 209.016 54.3121C229.795 89.6543 229.575 133.925 247.922 170.588C259.612 193.949 278.85 214.458 282.423 240.332C284.825 257.668 279.55 275.594 269.912 290.257Z" fill="#2854C3"/>
<path opacity="0.54" d="M234.199 324.118L231.597 325.76C221.247 332.106 210.237 337.431 198.396 340.233C186.135 343.136 173.374 343.236 160.802 343.376C137.681 343.576 114.46 343.106 91.4188 344.777C73.2122 346.108 57.3878 336.149 45.3769 322.877C44.8764 322.327 44.3759 321.756 43.9055 321.196C65.1549 314.53 98.0449 310.246 134.989 310.246C177.017 310.246 213.85 315.801 234.199 324.118Z" fill="#2854C3"/>
<path d="M148.781 302.668L149.782 312.557C149.782 312.557 145.999 318.282 141.054 318.653C136.11 319.023 134.428 316.651 134.428 316.651L135.239 302.108" fill="white"/>
<path d="M134.378 316.652L134.708 310.816L149.191 306.913L149.732 312.558C149.732 312.558 145.948 318.283 141.004 318.653C136.059 319.024 134.378 316.652 134.378 316.652Z" fill="white"/>
<path d="M102.599 300.537L101.538 313.829C101.538 313.829 105.421 319.714 110.496 320.095C115.571 320.475 117.302 318.033 117.302 318.033L116.472 303.099" fill="white"/>
<path d="M117.302 318.072L116.972 312.067L102.088 308.063L101.538 313.848C101.538 313.848 105.421 319.734 110.496 320.114C115.571 320.494 117.302 318.072 117.302 318.072Z" fill="white"/>
<path d="M96.8136 173.881C96.8136 173.881 95.9228 188.355 98.1448 231.254C100.367 274.153 101.027 300.797 101.027 300.797C101.027 300.797 103.219 305.882 110.606 305.982C117.993 306.082 118.493 302.979 118.493 302.979L125.71 192.999L133.247 305.231C133.247 305.231 142.916 306.973 149.832 303.149C154.736 300.427 148.741 173.751 148.741 173.751C148.741 173.751 125.039 186.773 96.8136 173.881Z" fill="#3F3D56"/>
<path d="M114.67 81.7171C114.67 81.7171 95.0322 91.2057 94.5818 94.3486C94.1313 97.4915 96.8138 173.911 96.8138 173.911C96.8138 173.911 103.18 182.179 122.707 182.179C142.726 182.179 147.86 176.463 148.731 173.801C149.602 171.139 152.815 94.9391 152.374 91.7262C151.934 88.5133 133.818 81.8472 133.818 81.8472L114.67 81.7171Z" fill="#C0E5F3"/>
<path d="M136.92 111.214L135.169 110.964C135.809 106.37 137.02 97.1915 137.02 95.3699C137.02 93.5482 136.09 85.5709 131.756 81.6073C130.826 80.7466 129.721 80.0978 128.517 79.7055C127.312 79.3133 126.037 79.1869 124.779 79.3353C114.32 80.2561 111.697 87.1724 111.527 87.6528C110.876 90.2431 110.381 92.8703 110.046 95.52H108.244C108.582 92.7144 109.097 89.933 109.786 87.1924V87.1324C109.896 86.7821 112.638 78.5946 124.599 77.5436C126.099 77.3698 127.619 77.5222 129.055 77.9904C130.49 78.4585 131.808 79.2314 132.917 80.2561C137.771 84.7102 138.762 93.268 138.762 95.3499C138.782 97.7721 136.99 110.674 136.92 111.214Z" fill="#2854C3"/>
<path d="M136.92 111.214L135.169 110.964C135.809 106.37 137.02 97.1915 137.02 95.3699C137.02 93.5482 136.09 85.5709 131.756 81.6073C130.826 80.7466 129.721 80.0978 128.517 79.7055C127.312 79.3133 126.037 79.1869 124.779 79.3353C114.32 80.2561 111.697 87.1724 111.527 87.6528C110.876 90.2431 110.381 92.8703 110.046 95.52H108.244C108.582 92.7144 109.097 89.933 109.786 87.1924V87.1324C109.896 86.7821 112.638 78.5946 124.599 77.5436C126.099 77.3698 127.619 77.5222 129.055 77.9904C130.49 78.4585 131.808 79.2314 132.917 80.2561C137.771 84.7102 138.762 93.268 138.762 95.3499C138.782 97.7721 136.99 110.674 136.92 111.214Z" fill="url(#paint0_linear_1_74)"/>
<path d="M136.19 176.693L136.67 221.664L157.119 219.633L149.272 148.288L136.19 176.693Z" fill="#C0E5F3"/>
<path d="M115.851 81.677L115.611 183.43C122.502 185.511 129.93 184.866 136.36 181.628L131.065 81.677L123.398 83.4787L115.851 81.677Z" fill="#2854C3"/>
<path d="M115.851 81.677L115.611 183.43C122.502 185.511 129.93 184.866 136.36 181.628L131.065 81.677L123.398 83.4787L115.851 81.677Z" fill="#2854C3"/>
<path d="M115.981 70.1867C115.981 70.1867 115.861 77.043 115.921 82.0575C115.981 85.8009 117.072 92.9775 123.838 92.9775C130.604 92.9775 131.395 83.8291 131.275 82.0575C131.467 79.3919 131.467 76.7159 131.275 74.0502C130.835 69.7263 116.361 67.1539 115.981 70.1867Z" fill="white"/>
<path d="M116.021 78.0637C116.021 78.0637 116.802 86.7416 122.327 85.6206C124.535 85.2295 126.568 84.1625 128.144 82.5668C129.72 80.9711 130.762 78.9255 131.125 76.7125C131.335 75.7592 131.289 74.7672 130.992 73.8373C130.695 72.9075 130.157 72.0727 129.434 71.4177L116.021 78.0637Z" fill="url(#paint1_linear_1_74)"/>
<path d="M134.828 70.7167C132.696 76.9824 126.971 80.8659 122.958 81.2363C118.944 81.6066 114.56 77.9433 112.798 73.3791C111.037 68.8149 110.796 51.2889 110.796 51.2889C110.742 50.1235 110.972 48.9623 111.467 47.9059C112.028 46.6347 113.049 42.8012 114.47 41.6902C120.846 40.0273 127.559 40.1729 133.857 42.1106C135.189 43.2716 135.859 46.975 136.16 47.6556C136.297 48.0712 136.388 48.501 136.43 48.9368C136.94 53.1707 136.7 65.2317 134.828 70.7167Z" fill="white"/>
<path d="M110.616 55.9738C110.201 55.7066 109.701 55.6028 109.213 55.6823C108.725 55.7617 108.284 56.0189 107.974 56.4042C107.724 56.913 107.624 57.4821 107.684 58.0457C107.69 58.6155 107.737 59.1841 107.824 59.7472C108.157 61.2615 108.914 62.6499 110.006 63.7509C110.259 64.0458 110.56 64.2961 110.897 64.4916C111.067 64.5879 111.256 64.6474 111.451 64.6664C111.645 64.6854 111.842 64.6633 112.028 64.6017C112.318 64.4411 112.563 64.2086 112.738 63.9265C112.914 63.6443 113.014 63.322 113.029 62.9902C113.258 61.5899 113.13 60.1545 112.658 58.8164C112.302 57.6733 111.586 56.676 110.616 55.9738Z" fill="white"/>
<path d="M137.17 55.7534C137.585 55.4851 138.084 55.3796 138.572 55.4573C139.06 55.5349 139.502 55.79 139.813 56.1738C140.071 56.6835 140.172 57.2582 140.103 57.8253C140.107 58.3922 140.06 58.9583 139.963 59.5168C139.63 61.0312 138.873 62.4198 137.781 63.5205C137.527 63.8149 137.226 64.0652 136.89 64.2611C136.72 64.3575 136.531 64.417 136.336 64.436C136.142 64.4549 135.945 64.4329 135.759 64.3712C135.468 64.2114 135.223 63.9791 135.047 63.6968C134.872 63.4145 134.772 63.0918 134.758 62.7598C134.526 61.357 134.65 59.9184 135.119 58.5759C135.476 57.4365 136.197 56.4452 137.17 55.7534Z" fill="white"/>
<path d="M115.561 176.693L114.89 221.664L85.8036 219.633L96.9638 148.288L115.561 176.693Z" fill="#C0E5F3"/>
<path d="M95.3923 134.655L103.96 115.938L99.6762 220.033L85.8036 219.692C85.8036 219.692 96.6835 164.462 95.3923 134.655Z" fill="url(#paint2_linear_1_74)"/>
<path d="M150.903 132.383L142.335 113.676L142.055 220.984L157.119 219.633C157.119 219.633 149.612 162.21 150.903 132.383Z" fill="url(#paint3_linear_1_74)"/>
<path d="M94.992 93.5883C94.992 93.5883 80.3587 129.201 78.6972 135.386C77.0357 141.572 82.2004 160.239 84.2322 157.036C90.4679 147.187 96.5635 131.803 96.5635 131.803L94.992 93.5883Z" fill="#C0E5F3"/>
<path d="M151.123 89.6139C151.123 89.6139 165.747 125.236 167.418 131.412C169.09 137.588 163.905 156.265 161.883 153.062C155.637 143.213 149.552 127.829 149.552 127.829L151.123 89.6139Z" fill="#C0E5F3"/>
<path d="M154.116 138.148C153.706 138.569 142.055 173.431 142.055 173.431C142.055 173.431 149.582 173.431 155.127 173.881C155.127 173.881 166.567 147.227 167.038 144.855C167.508 142.482 170.981 129.581 163.244 128.029C155.507 126.478 154.116 138.148 154.116 138.148Z" fill="#C0E5F3"/>
<path d="M91.9994 142.122C92.3998 142.542 104.01 177.404 104.01 177.404C104.01 177.404 96.4735 177.404 90.9284 177.854C90.9284 177.854 79.498 151.2 79.0175 148.828C78.5371 146.456 75.084 133.554 82.811 132.002C90.5381 130.451 91.9994 142.122 91.9994 142.122Z" fill="#C0E5F3"/>
<path d="M136.59 56.4136C136.59 56.1333 136.49 55.8531 136.43 55.5728C136.065 54.0729 135.566 52.6089 134.938 51.1988C133.937 48.8067 133.007 46.4245 132.046 44.0323C131.896 43.652 131.735 43.2816 131.585 42.9013V42.8312C131.594 42.8464 131.599 42.8637 131.599 42.8813C131.599 42.8988 131.594 42.9161 131.585 42.9313C131.428 43.0967 131.232 43.2205 131.015 43.2916C129.711 43.7813 128.373 44.1727 127.011 44.4627C125.229 44.7024 123.416 44.573 121.686 44.0824C120.195 43.652 118.684 42.3808 117.102 42.4509H116.862C116.054 42.4873 115.283 42.799 114.676 43.3344C114.07 43.8697 113.665 44.5963 113.529 45.3936C113.212 49.2676 112.377 53.0818 111.047 56.7339C109.345 55.5828 109.165 53.3008 109.155 51.329C109.145 49.3572 109.155 47.2452 109.155 45.1934C109.082 44.2038 109.194 43.2093 109.485 42.2607C109.643 41.7694 109.925 41.327 110.304 40.9764C110.682 40.6257 111.145 40.3786 111.647 40.2589C112.468 40.1187 113.409 40.389 114.109 39.9386C114.373 39.6984 114.585 39.4066 114.731 39.0811C114.878 38.7557 114.956 38.4037 114.96 38.0469C115.088 36.5923 115.626 35.2038 116.512 34.0432C118.453 31.7511 122.157 31.601 125.089 32.5619C128.022 33.5227 130.554 35.3344 133.427 36.4454C135.429 37.1961 137.611 37.7065 138.862 39.308C139.429 40.2108 139.769 41.2377 139.853 42.3007C140.282 44.7517 140.215 47.2641 139.654 49.6885C139.094 52.1129 138.052 54.3999 136.59 56.4136Z" fill="#3F3D56"/>
<path d="M137.22 54.4924C137.038 54.9055 136.768 55.2743 136.43 55.5734C136.065 54.0735 135.566 52.6095 134.938 51.1994C133.824 48.4369 132.706 45.671 131.585 42.9018C132.239 42.5114 132.958 42.2434 133.707 42.1111C134.204 42.0209 134.715 42.0395 135.204 42.1657C135.693 42.2918 136.149 42.5225 136.54 42.8418C137.113 43.426 137.505 44.1626 137.671 44.9637C137.965 46.2774 138.103 47.6213 138.081 48.9674C138.27 50.8523 137.974 52.7542 137.22 54.4924Z" fill="url(#paint4_linear_1_74)"/>
<path d="M135.589 41.7107C134.282 42.2731 133.083 43.0589 132.046 44.0328C131.896 43.6524 131.735 43.2821 131.585 42.9017V42.8317C131.594 42.8469 131.599 42.8642 131.599 42.8817C131.599 42.8993 131.594 42.9166 131.585 42.9318C131.428 43.0972 131.232 43.221 131.015 43.2921C129.711 43.7818 128.373 44.1732 127.011 44.4632C125.229 44.7029 123.416 44.5734 121.686 44.0828C120.195 43.6524 118.684 42.3813 117.102 42.4513H116.862C116.942 42.2111 117.042 41.9509 117.132 41.6706C117.893 39.2084 118.393 37.0764 121.216 36.3057C122.889 35.8965 124.65 36.0586 126.22 36.7661C127.732 37.4067 129.123 38.4076 130.745 38.6679C131.721 38.6959 132.693 38.8166 133.647 39.0282C134.185 39.256 134.649 39.6263 134.992 40.099C135.334 40.5718 135.54 41.1291 135.589 41.7107Z" fill="url(#paint5_linear_1_74)"/>
<path d="M93.6709 177.704L95.0221 183.449L105.331 182.949L102.629 177.364L93.6709 177.704Z" fill="white"/>
<path d="M143.967 173.31L140.924 180.747L150.733 181.318L151.974 173.651L143.967 173.31Z" fill="white"/>
<path d="M108.805 182.779H92.9102V185.602H108.805V182.779Z" fill="#C0E5F3"/>
<path d="M152.605 180.798H137.991V183.45H152.605V180.798Z" fill="#C0E5F3"/>
<path d="M114.74 115.488H110.386V113.686H113.229C113.969 108.912 114.59 98.4023 110.046 96.6006C109.595 96.4002 109.091 96.3573 108.613 96.479C108.135 96.6007 107.713 96.8798 107.413 97.2712C104.351 100.544 103.85 110.423 104.33 111.664C104.555 111.898 104.829 112.08 105.131 112.198C105.434 112.316 105.758 112.366 106.082 112.345L106.352 114.127C105.723 114.194 105.086 114.112 104.494 113.886C103.903 113.659 103.373 113.296 102.949 112.825C101.578 111.314 102.599 100.965 105.441 96.8609C106.853 94.859 108.724 94.1384 110.716 94.9291C117.853 97.7617 115 114.057 114.87 114.747L114.74 115.488Z" fill="#2854C3"/>
<path d="M114.74 115.488H110.386V113.686H113.229C113.969 108.912 114.59 98.4023 110.046 96.6006C109.595 96.4002 109.091 96.3573 108.613 96.479C108.135 96.6007 107.713 96.8798 107.413 97.2712C104.351 100.544 103.85 110.423 104.33 111.664C104.555 111.898 104.829 112.08 105.131 112.198C105.434 112.316 105.758 112.366 106.082 112.345L106.352 114.127C105.723 114.194 105.086 114.112 104.494 113.886C103.903 113.659 103.373 113.296 102.949 112.825C101.578 111.314 102.599 100.965 105.441 96.8609C106.853 94.859 108.724 94.1384 110.716 94.9291C117.853 97.7617 115 114.057 114.87 114.747L114.74 115.488Z" fill="url(#paint6_linear_1_74)"/>
<path d="M106.983 113.402C107.06 112.605 106.64 111.912 106.046 111.855C105.451 111.797 104.908 112.398 104.831 113.196C104.754 113.994 105.174 114.687 105.768 114.744C106.363 114.801 106.907 114.2 106.983 113.402Z" fill="#2854C3"/>
<path d="M111.26 114.697C111.336 113.899 110.917 113.206 110.322 113.149C109.728 113.092 109.184 113.692 109.108 114.49C109.031 115.288 109.451 115.981 110.045 116.038C110.639 116.095 111.183 115.494 111.26 114.697Z" fill="#2854C3"/>
<path d="M106.983 113.402C107.06 112.605 106.64 111.912 106.046 111.855C105.451 111.797 104.908 112.398 104.831 113.196C104.754 113.994 105.174 114.687 105.768 114.744C106.363 114.801 106.907 114.2 106.983 113.402Z" fill="url(#paint7_linear_1_74)"/>
<path d="M111.26 114.697C111.336 113.899 110.917 113.206 110.322 113.149C109.728 113.092 109.184 113.692 109.108 114.49C109.031 115.288 109.451 115.981 110.045 116.038C110.639 116.095 111.183 115.494 111.26 114.697Z" fill="url(#paint8_linear_1_74)"/>
<path d="M136.25 115.578C138.057 115.578 139.523 114.113 139.523 112.305C139.523 110.497 138.057 109.032 136.25 109.032C134.442 109.032 132.977 110.497 132.977 112.305C132.977 114.113 134.442 115.578 136.25 115.578Z" fill="#2854C3"/>
<path d="M136.78 113.886C138.063 113.886 139.102 112.847 139.102 111.564C139.102 110.282 138.063 109.242 136.78 109.242C135.498 109.242 134.458 110.282 134.458 111.564C134.458 112.847 135.498 113.886 136.78 113.886Z" fill="url(#paint9_linear_1_74)"/>
<path d="M136.9 112.916C137.685 112.916 138.322 112.279 138.322 111.494C138.322 110.709 137.685 110.073 136.9 110.073C136.115 110.073 135.479 110.709 135.479 111.494C135.479 112.279 136.115 112.916 136.9 112.916Z" fill="#C0E5F3"/>
<path d="M134.718 112.615L133.277 113.676C133.277 113.676 134.078 115.068 134.889 115.278L135.889 113.676C135.889 113.676 135.169 113.676 134.718 112.615Z" fill="url(#paint10_linear_1_74)"/>
<path d="M163.364 321.556C164.185 322.057 165.136 322.787 165.076 323.838C165.023 324.296 164.843 324.729 164.555 325.089C162.704 327.622 152.545 326.831 149.642 326.801C143.046 326.731 143.316 327.141 136.81 325.91C136.283 325.852 135.78 325.659 135.349 325.35C134.719 324.675 134.362 323.79 134.348 322.867C134.118 320.705 134.168 318.521 134.498 316.371C134.501 316.26 134.526 316.15 134.572 316.048C134.619 315.947 134.685 315.856 134.768 315.781C134.851 315.742 134.942 315.721 135.034 315.721C135.125 315.721 135.216 315.742 135.299 315.781C136.331 316.219 137.404 316.554 138.502 316.782C140.304 316.979 142.12 316.563 143.656 315.601C144.451 315.131 145.208 314.599 145.918 314.009C146.409 313.619 147.37 312.378 147.97 312.318C148.571 312.258 149.692 313.259 150.262 313.599L152.975 315.24L163.364 321.556Z" fill="#3F3D56"/>
<path d="M110.006 316.631C107.584 315.849 105.354 314.567 103.46 312.868C103.104 312.51 102.646 312.272 102.149 312.187C101.902 312.189 101.657 312.236 101.428 312.327C96.8604 313.797 92.5186 315.892 88.5261 318.553C87.4652 319.243 86.2941 320.264 86.3842 321.646C86.4843 323.247 88.1458 324.008 89.5371 324.358C97.5769 326.392 105.933 326.858 114.15 325.729C114.87 325.685 115.564 325.438 116.151 325.019C116.82 324.301 117.223 323.375 117.292 322.396C117.643 320.264 117.793 317.292 116.882 315.33C115.899 316.033 114.775 316.514 113.587 316.739C112.4 316.964 111.178 316.927 110.006 316.631Z" fill="#3F3D56"/>
<path d="M116.201 82.8578C116.201 82.8578 120.205 91.6358 122.397 92.7468L117.392 96.0698L115.911 87.5721L116.201 82.8578Z" fill="#2854C3"/>
<path d="M131.165 82.9477C131.165 82.9477 127.602 92.5565 122.427 92.7466L127.722 97.6111L131.535 90.6047L131.165 82.9477Z" fill="#2854C3"/>
<path d="M116.201 82.8578C116.201 82.8578 120.205 91.6358 122.397 92.7468L117.392 96.0698L115.911 87.5721L116.201 82.8578Z" fill="url(#paint11_linear_1_74)"/>
<path d="M131.165 82.9477C131.165 82.9477 127.602 92.5565 122.427 92.7466L127.722 97.6111L131.535 90.6047L131.165 82.9477Z" fill="url(#paint12_linear_1_74)"/>
<path d="M119.344 94.4985L121.096 97.4512L119.805 160.188L125.35 167.955L129.043 155.014L123.868 97.5413L125.35 95.3293L122.397 92.7369L119.344 94.4985Z" fill="#3F3D56"/>
<defs>
<linearGradient id="paint0_linear_1_74" x1="122.197" y1="107.601" x2="126.931" y2="65.1023" gradientUnits="userSpaceOnUse">
<stop offset="0.02" stop-color="white" stop-opacity="0"/>
<stop offset="0.39" stop-color="white" stop-opacity="0.39"/>
<stop offset="1" stop-color="white"/>
</linearGradient>
<linearGradient id="paint1_linear_1_74" x1="125.18" y1="58.3457" x2="122.477" y2="90.5851" gradientUnits="userSpaceOnUse">
<stop offset="0.01"/>
<stop offset="0.83" stop-opacity="0.07"/>
<stop offset="1" stop-opacity="0"/>
</linearGradient>
<linearGradient id="paint2_linear_1_74" x1="1470.79" y1="15590.7" x2="3561.31" y2="15675.1" gradientUnits="userSpaceOnUse">
<stop offset="0.01"/>
<stop offset="0.83" stop-opacity="0.07"/>
<stop offset="1" stop-opacity="0"/>
</linearGradient>
<linearGradient id="paint3_linear_1_74" x1="-93131.9" y1="15444.8" x2="-95251.6" y2="15513.6" gradientUnits="userSpaceOnUse">
<stop offset="0.01"/>
<stop offset="0.83" stop-opacity="0.07"/>
<stop offset="1" stop-opacity="0"/>
</linearGradient>
<linearGradient id="paint4_linear_1_74" x1="1461.62" y1="724.872" x2="1504.2" y2="724.872" gradientUnits="userSpaceOnUse">
<stop offset="0.01"/>
<stop offset="0.83" stop-opacity="0.07"/>
<stop offset="1" stop-opacity="0"/>
</linearGradient>
<linearGradient id="paint5_linear_1_74" x1="3630.62" y1="393.236" x2="3982.5" y2="393.236" gradientUnits="userSpaceOnUse">
<stop offset="0.01"/>
<stop offset="0.83" stop-opacity="0.07"/>
<stop offset="1" stop-opacity="0"/>
</linearGradient>
<linearGradient id="paint6_linear_1_74" x1="2475.87" y1="2517.79" x2="2464.65" y2="1857.48" gradientUnits="userSpaceOnUse">
<stop offset="0.02" stop-color="white" stop-opacity="0"/>
<stop offset="0.39" stop-color="white" stop-opacity="0.39"/>
<stop offset="1" stop-color="white"/>
</linearGradient>
<linearGradient id="paint7_linear_1_74" x1="614.373" y1="360.69" x2="620.672" y2="360.69" gradientUnits="userSpaceOnUse">
<stop offset="0.01"/>
<stop offset="0.83" stop-opacity="0.07"/>
<stop offset="1" stop-opacity="0"/>
</linearGradient>
<linearGradient id="paint8_linear_1_74" x1="631.077" y1="364.768" x2="637.376" y2="364.768" gradientUnits="userSpaceOnUse">
<stop offset="0.01"/>
<stop offset="0.83" stop-opacity="0.07"/>
<stop offset="1" stop-opacity="0"/>
</linearGradient>
<linearGradient id="paint9_linear_1_74" x1="773.319" y1="606.268" x2="765.191" y2="645.791" gradientUnits="userSpaceOnUse">
<stop offset="0.01"/>
<stop offset="0.83" stop-opacity="0.07"/>
<stop offset="1" stop-opacity="0"/>
</linearGradient>
<linearGradient id="paint10_linear_1_74" x1="671.95" y1="395.898" x2="668.505" y2="434.572" gradientUnits="userSpaceOnUse">
<stop offset="0.01"/>
<stop offset="0.83" stop-opacity="0.07"/>
<stop offset="1" stop-opacity="0"/>
</linearGradient>
<linearGradient id="paint11_linear_1_74" x1="1353.04" y1="1176.42" x2="1295" y2="1495.33" gradientUnits="userSpaceOnUse">
<stop offset="0.02" stop-color="white" stop-opacity="0"/>
<stop offset="0.39" stop-color="white" stop-opacity="0.39"/>
<stop offset="1" stop-color="white"/>
</linearGradient>
<linearGradient id="paint12_linear_1_74" x1="1931.97" y1="1307.05" x2="1880.45" y2="1665.3" gradientUnits="userSpaceOnUse">
<stop offset="0.02" stop-color="white" stop-opacity="0"/>
<stop offset="0.39" stop-color="white" stop-opacity="0.39"/>
<stop offset="1" stop-color="white"/>
</linearGradient>
</defs>
</svg>
