<svg width="16" height="21" viewBox="0 0 16 21" fill="none" xmlns="http://www.w3.org/2000/svg">
<path d="M7.99999 20.81C9.09999 20.81 9.99999 19.8496 9.99999 18.6757H5.99999C5.99999 19.8496 6.89999 20.81 7.99999 20.81ZM14 14.407V9.07104C14 5.7948 12.37 3.05214 9.49999 2.32646V1.60077C9.49999 0.715012 8.82999 0 7.99999 0C7.16999 0 6.49999 0.715012 6.49999 1.60077V2.32646C3.64 3.05214 2 5.78412 2 9.07104V14.407L0 16.5413V17.6085H16V16.5413L14 14.407ZM12 15.4741H4V9.07104C4 6.42443 5.50999 4.26873 7.99999 4.26873C10.49 4.26873 12 6.42443 12 9.07104V15.4741Z" fill="white"/>
</svg>
