<svg width="25" height="26" viewBox="0 0 25 26" fill="none" xmlns="http://www.w3.org/2000/svg">
<path d="M22.635 8.27184C23.2353 8.27184 23.811 8.52088 24.2355 8.96417C24.66 9.40746 24.8985 10.0087 24.8985 10.6356V15.3631C24.8985 15.99 24.66 16.5912 24.2355 17.0345C23.811 17.4778 23.2353 17.7268 22.635 17.7268H21.4331C21.1572 20.0117 20.0922 22.113 18.4382 23.6362C16.7841 25.1594 14.6546 25.9999 12.4492 25.9999V23.6362C14.2502 23.6362 15.9774 22.8891 17.2508 21.5592C18.5243 20.2294 19.2397 18.4257 19.2397 16.545V9.45372C19.2397 7.573 18.5243 5.76932 17.2508 4.43945C15.9774 3.10959 14.2502 2.36248 12.4492 2.36248C10.6483 2.36248 8.9211 3.10959 7.64764 4.43945C6.37417 5.76932 5.65875 7.573 5.65875 9.45372V17.7268H2.2635C1.66318 17.7268 1.08745 17.4778 0.662963 17.0345C0.238475 16.5912 0 15.99 0 15.3631V10.6356C0 10.0087 0.238475 9.40746 0.662963 8.96417C1.08745 8.52088 1.66318 8.27184 2.2635 8.27184H3.46542C3.7416 5.98716 4.80663 3.88623 6.46067 2.36327C8.11472 0.840315 10.2441 0 12.4492 0C14.6544 0 16.7838 0.840315 18.4378 2.36327C20.0919 3.88623 21.1569 5.98716 21.4331 8.27184H22.635ZM7.65063 17.4727L8.85028 15.4683C9.92892 16.1739 11.1764 16.5471 12.4492 16.545C13.722 16.5471 14.9696 16.1739 16.0482 15.4683L17.2479 17.4727C15.8097 18.4137 14.1463 18.9114 12.4492 18.9087C10.7521 18.9114 9.08879 18.4137 7.65063 17.4727Z" fill="#2854C3"/>
</svg>
