<svg width="33" height="33" viewBox="0 0 33 33" fill="none" xmlns="http://www.w3.org/2000/svg">
<path d="M14.0122 1.76807C12.2139 1.79836 10.5897 2.87086 9.85493 4.52924L18.6528 7.18664C19.0395 4.87986 17.6538 2.64334 15.4237 1.96465C15.0241 1.84348 14.6051 1.77709 14.1862 1.76807H14.0122ZM9.51977 5.64041C9.12661 7.95363 10.5124 10.1966 12.7489 10.8734C14.9918 11.5501 17.3831 10.4415 18.3241 8.29523L9.51977 5.64041ZM26.6321 8.49504C25.0014 8.50148 23.2676 9.28781 21.9592 11.1376L13.9155 22.5394C11.7563 25.5945 12.6973 28.7913 14.8243 30.2995C16.9577 31.8142 20.277 31.6402 22.4362 28.5851L30.4735 17.1898C32.6327 14.1282 31.6916 10.9378 29.5647 9.42316C28.7655 8.85598 27.8051 8.52727 26.7932 8.49504H26.6321ZM26.5161 9.61008C26.5998 9.61008 26.6836 9.61008 26.761 9.61652C27.5409 9.64875 28.2756 9.9259 28.8944 10.3706C30.5508 11.5437 31.3823 13.8833 29.5196 16.5195L25.3624 22.4169C23.0549 21.7982 20.0901 19.6905 18.743 17.7118L22.9131 11.8079C24.0024 10.2675 25.2979 9.63586 26.5161 9.61008ZM5.88139 14.5214C5.26136 14.5279 4.6497 14.6568 4.08122 14.9081C1.94718 15.8427 0.836649 18.2275 1.48763 20.4704L9.91294 16.7902C9.0686 15.3657 7.53462 14.5021 5.88139 14.5214ZM10.3706 17.8472L1.94653 21.5339C3.13569 23.5577 5.6397 24.3698 7.78598 23.4353C9.92583 22.4943 11.0344 20.0966 10.3706 17.8472Z" fill="#979797"/>
</svg>
