<svg width="18" height="18" viewBox="0 0 18 18" fill="none" xmlns="http://www.w3.org/2000/svg">
<path d="M13.7731 5.28781L10.0608 9.00014L13.7731 12.7125C14.0648 13.0041 14.0648 13.4814 13.7731 13.7731C13.4814 14.0648 13.0041 14.0648 12.7125 13.7731L9.00014 10.0608L5.28781 13.7731C4.99613 14.0648 4.51883 14.0648 4.22715 13.7731C3.93547 13.4814 3.93547 13.0041 4.22715 12.7125L7.93947 9.00014L4.22715 5.28781C3.93547 4.99613 3.93547 4.51883 4.22715 4.22715C4.51883 3.93547 4.99613 3.93547 5.28781 4.22715L9.00014 7.93947L12.7125 4.22715C13.0041 3.93547 13.4814 3.93547 13.7731 4.22715C14.0648 4.51883 14.0648 4.99613 13.7731 5.28781Z" fill="#25282B"/>
</svg>
