<svg width="13" height="16" viewBox="0 0 13 16" fill="none" xmlns="http://www.w3.org/2000/svg">
<path opacity="0.7" d="M10.5625 4.76665V3.97221C10.5625 1.78193 8.74003 0 6.49998 0C4.25992 0 2.43749 1.78193 2.43749 3.97221V6.35553H1.62499C0.72881 6.35553 0 7.06815 0 7.94441V14.2999C0 15.1762 0.72881 15.8888 1.62499 15.8888H11.375C12.2711 15.8888 13 15.1762 13 14.2999V7.94441C13 7.06815 12.2711 6.35553 11.375 6.35553H4.06248V3.97221C4.06248 2.6582 5.15611 1.58888 6.49998 1.58888C7.84385 1.58888 8.93747 2.6582 8.93747 3.97221V4.76665H10.5625ZM11.375 7.94441L11.3766 14.2999H1.62499V7.94441H11.375Z" fill="#8C8FA5"/>
</svg>
