<svg width="35" height="33" viewBox="0 0 35 33" fill="none" xmlns="http://www.w3.org/2000/svg">
<rect y="0.000244139" width="32.9998" height="32.9998" rx="7" fill="#EFEFEF"/>
<path d="M8.79168 19.3749C8.79168 19.2036 8.86631 19.0393 8.99915 18.9182C9.13198 18.7971 9.31215 18.729 9.50001 18.729H19.4166C19.6045 18.729 19.7846 18.7971 19.9175 18.9182C20.0503 19.0393 20.1249 19.2036 20.1249 19.3749C20.1249 19.5461 20.0503 19.7104 19.9175 19.8315C19.7846 19.9526 19.6045 20.0207 19.4166 20.0207H9.50001C9.31215 20.0207 9.13198 19.9526 8.99915 19.8315C8.86631 19.7104 8.79168 19.5461 8.79168 19.3749ZM9.50001 21.9582C9.31215 21.9582 9.13198 22.0262 8.99915 22.1473C8.86631 22.2684 8.79168 22.4327 8.79168 22.604C8.79168 22.7753 8.86631 22.9396 8.99915 23.0607C9.13198 23.1818 9.31215 23.2498 9.50001 23.2498H19.4166C19.6045 23.2498 19.7846 23.1818 19.9175 23.0607C20.0503 22.9396 20.1249 22.7753 20.1249 22.604C20.1249 22.4327 20.0503 22.2684 19.9175 22.1473C19.7846 22.0262 19.6045 21.9582 19.4166 21.9582H9.50001ZM10.9167 13.5624V11.6249H12.3333V13.5624H14.4583V14.8541H12.3333V16.7915H10.9167V14.8541H8.79168V13.5624H10.9167Z" fill="#2854C3"/>
<path fill-rule="evenodd" clip-rule="evenodd" d="M11.6249 3.87497C11.0613 3.87497 10.5208 4.0791 10.1223 4.44245C9.72381 4.8058 9.49993 5.2986 9.49993 5.81246H7.37495C6.81136 5.81246 6.27087 6.01658 5.87235 6.37993C5.47384 6.74328 5.24996 7.23609 5.24996 7.74994V25.1873C5.24996 25.7012 5.47384 26.194 5.87235 26.5573C6.27087 26.9207 6.81136 27.1248 7.37495 27.1248H21.5415C22.1051 27.1248 22.6456 26.9207 23.0441 26.5573C23.4426 26.194 23.6665 25.7012 23.6665 25.1873V7.74994C23.6665 7.23609 23.4426 6.74328 23.0441 6.37993C22.6456 6.01658 22.1051 5.81246 21.5415 5.81246H19.4165C19.4165 5.2986 19.1926 4.8058 18.7941 4.44245C18.3956 4.0791 17.8551 3.87497 17.2915 3.87497H11.6249ZM17.2915 7.74994C17.4794 7.74994 17.6596 7.6819 17.7924 7.56078C17.9252 7.43967 17.9999 7.2754 17.9999 7.10411V5.81246C17.9999 5.64117 17.9252 5.4769 17.7924 5.35579C17.6596 5.23467 17.4794 5.16663 17.2915 5.16663H11.6249C11.4371 5.16663 11.2569 5.23467 11.1241 5.35579C10.9912 5.4769 10.9166 5.64117 10.9166 5.81246V7.10411C10.9166 7.2754 10.9912 7.43967 11.1241 7.56078C11.2569 7.6819 11.4371 7.74994 11.6249 7.74994H17.2915ZM9.49993 7.10411C9.49993 7.61797 9.72381 8.11077 10.1223 8.47412C10.5208 8.83747 11.0613 9.0416 11.6249 9.0416H17.2915C17.8551 9.0416 18.3956 8.83747 18.7941 8.47412C19.1926 8.11077 19.4165 7.61797 19.4165 7.10411H21.5415C21.7294 7.10411 21.9095 7.17216 22.0424 7.29327C22.1752 7.41439 22.2498 7.57866 22.2498 7.74994V25.1873C22.2498 25.3586 22.1752 25.5229 22.0424 25.644C21.9095 25.7651 21.7294 25.8331 21.5415 25.8331H7.37495C7.18709 25.8331 7.00692 25.7651 6.87408 25.644C6.74124 25.5229 6.66662 25.3586 6.66662 25.1873V7.74994C6.66662 7.57866 6.74124 7.41439 6.87408 7.29327C7.00692 7.17216 7.18709 7.10411 7.37495 7.10411H9.49993ZM26.4998 10.9791C26.4998 10.4652 26.7237 9.97242 27.1222 9.60908C27.5207 9.24573 28.0612 9.0416 28.6248 9.0416C29.1884 9.0416 29.7289 9.24573 30.1274 9.60908C30.5259 9.97242 30.7498 10.4652 30.7498 10.9791V24.0913L28.6248 26.9976L26.4998 24.0913V10.9791ZM28.6248 10.3333C28.4369 10.3333 28.2568 10.4013 28.1239 10.5224C27.9911 10.6435 27.9165 10.8078 27.9165 10.9791V12.2707H29.3331V10.9791C29.3331 10.8078 29.2585 10.6435 29.1257 10.5224C28.9928 10.4013 28.8126 10.3333 28.6248 10.3333ZM28.6248 24.6687L29.3331 23.7V13.5624H27.9165V23.7L28.6248 24.6687Z" fill="#2854C3"/>
</svg>
