<svg width="31" height="30" viewBox="0 0 31 30" fill="none" xmlns="http://www.w3.org/2000/svg">
<path d="M12.8177 0C11.0042 0.0308457 9.3662 1.12292 8.62521 2.81155L17.4977 5.51745C17.8877 3.16858 16.4902 0.891244 14.2412 0.200169C13.8382 0.0767861 13.4157 0.00918809 12.9932 0H12.8177ZM8.28721 3.943C7.89071 6.29843 9.2882 8.58233 11.5437 9.27144C13.8057 9.96054 16.2172 8.83172 17.1662 6.64627L8.28721 3.943ZM25.5446 6.84972C23.9001 6.85628 22.1516 7.65696 20.8321 9.54052L12.7202 21.1503C10.5427 24.2611 11.4917 27.5164 13.6367 29.0521C15.7882 30.5944 19.1357 30.4172 21.3131 27.3063L29.4186 15.7031C31.5961 12.5857 30.6471 9.33707 28.5021 7.79478C27.6961 7.21724 26.7276 6.88253 25.7071 6.84972H25.5446ZM25.4276 7.9851C25.5121 7.9851 25.5966 7.9851 25.6746 7.99167C26.4611 8.02448 27.2021 8.30669 27.8261 8.75953C29.4966 9.95398 30.3351 12.3363 28.4566 15.0206L24.2641 21.0256C21.9371 20.3956 18.9472 18.2495 17.5887 16.2347L21.7941 10.2231C22.8926 8.65452 24.1991 8.01136 25.4276 7.9851ZM4.61798 12.986C3.99268 12.9926 3.37583 13.1239 2.80254 13.3798C0.650399 14.3314 -0.469546 16.7597 0.186951 19.0436L8.68371 15.2962C7.83221 13.8458 6.28522 12.9664 4.61798 12.986ZM9.1452 16.3725L0.649749 20.1265C1.84899 22.1873 4.37423 23.0142 6.53872 22.0626C8.69671 21.1044 9.8147 18.663 9.1452 16.3725Z" fill="#2854C3"/>
</svg>
