<svg width="12" height="12" viewBox="0 0 12 12" fill="none" xmlns="http://www.w3.org/2000/svg">
<path d="M5.2555 0.374742C5.40025 -0.124919 6.10818 -0.124918 6.25294 0.374742L7.22569 3.73249C7.29 3.95448 7.49329 4.10724 7.7244 4.10724H10.9882C11.4767 4.10724 11.6949 4.72041 11.3162 5.02897L8.57709 7.26096C8.41561 7.39254 8.3484 7.60789 8.40636 7.80796L9.4279 11.3341C9.56958 11.8232 8.99589 12.2027 8.60119 11.8811L6.08221 9.82848C5.89123 9.67287 5.6172 9.67287 5.42622 9.82848L2.90725 11.8811C2.51254 12.2027 1.93886 11.8232 2.08053 11.3341L3.10207 7.80796C3.16003 7.60789 3.09282 7.39254 2.93134 7.26096L0.192244 5.02898C-0.186431 4.72041 0.0317586 4.10724 0.520235 4.10724H3.78403C4.01514 4.10724 4.21844 3.95448 4.28275 3.73249L5.2555 0.374742Z" fill="#FFA600"/>
</svg>
