<svg width="70" height="66" viewBox="0 0 70 66" fill="none" xmlns="http://www.w3.org/2000/svg">
<path fill-rule="evenodd" clip-rule="evenodd" d="M33.0556 0H36.9444V26.463C36.9444 29.0144 38.0411 30.0072 38.8966 30.4762C38.9919 30.5273 39.0872 30.5748 39.1844 30.6186L39.1766 29.9342V29.9306C39.1027 23.4918 38.9608 10.9502 49.5346 10.9502C64.0205 10.9502 74.3707 58.412 68.1622 63.2557C61.9517 68.0993 49.5346 65.192 43.326 59.3811C38.3133 54.689 38.7469 43.7242 39.058 35.8546V35.851C39.0775 35.3728 39.0969 34.9056 39.1125 34.4512C38.3494 34.2754 37.6169 33.9989 36.9366 33.6299C36.203 33.2296 35.5479 32.7142 35 32.106C34.4225 32.7484 33.7556 33.2485 33.0633 33.6281C32.2856 34.0551 31.5195 34.3033 30.8856 34.4512L30.942 35.8528C31.2531 43.7242 31.6867 54.689 26.674 59.3811C20.4654 65.1938 8.04637 68.0993 1.83782 63.2557C-4.37073 58.4139 5.97945 10.9502 20.4654 10.9502C31.0411 10.9502 30.8973 23.4918 30.8234 29.9306C30.8209 30.1599 30.8183 30.3892 30.8156 30.6186C30.9128 30.5748 31.01 30.5273 31.1034 30.4762C31.9589 30.0072 33.0556 29.0144 33.0556 26.463V0ZM49.5346 14.6003C47.6796 14.6003 46.6374 15.1478 45.9063 15.8541C45.0624 16.668 44.3585 17.9784 43.8646 19.829C42.9994 23.0684 43.0363 26.7951 43.0674 29.801C43.0713 30.3211 43.0752 30.8193 43.0752 31.2902C43.0752 32.6772 43.011 34.338 42.941 36.0663L42.8633 38.125C42.7777 40.6362 42.7271 43.2642 42.8574 45.8047C42.9858 48.3597 43.291 50.7049 43.8607 52.6705C44.4382 54.6561 45.2102 55.9884 46.0716 56.795C48.5585 59.122 52.4823 61.0018 56.4839 61.7299C60.4409 62.4508 63.6258 61.9179 65.4925 60.5856L65.5236 60.5126C65.7025 60.0468 65.8263 59.5639 65.893 59.0727C66.1205 57.6583 66.1789 55.6854 66.0252 53.2545C65.72 48.4181 64.6116 42.2842 62.8558 36.2452C61.0981 30.1861 58.755 24.4555 56.1009 20.3272C54.7729 18.2613 53.4623 16.7502 52.247 15.792C51.0454 14.843 50.1548 14.6003 49.5346 14.6003ZM20.4654 14.6003C22.3204 14.6003 23.3626 15.1478 24.0937 15.8541C24.9376 16.668 25.6415 17.9784 26.1354 19.829C27.0006 23.0684 26.9637 26.7951 26.9326 29.8028C26.9287 30.3229 26.9248 30.8212 26.9248 31.292C26.9248 32.6791 26.989 34.3398 27.059 36.0663L27.1367 38.1268C27.2223 40.6362 27.2729 43.2642 27.1445 45.8065C27.0142 48.3616 26.709 50.7067 26.1393 52.6686C25.5618 54.6579 24.7898 55.9902 23.9284 56.7969C21.4415 59.1238 17.5177 61.0018 13.516 61.7318C9.55914 62.4508 6.37417 61.9179 4.50752 60.5856C4.31237 60.0975 4.17796 59.5898 4.10697 59.0727C3.87947 57.6601 3.82114 55.6873 3.97475 53.2563C4.28002 48.42 5.38834 42.2842 7.14416 36.247C8.90386 30.1861 11.245 24.4573 13.8991 20.3291C15.2271 18.2613 16.5377 16.752 17.7529 15.7938C18.9546 14.8448 19.8451 14.6003 20.4654 14.6003Z" fill="#2854C3"/>
</svg>
