<svg width="14" height="15" viewBox="0 0 14 15" fill="none" xmlns="http://www.w3.org/2000/svg">
<g opacity="0.7">
<path d="M6.99401 7.73352C4.86101 7.73352 3.12583 5.99835 3.12583 3.86535C3.12583 1.73235 4.86101 0 6.99401 0C9.127 0 10.8622 1.73518 10.8622 3.86817C10.8622 6.00117 9.127 7.73352 6.99401 7.73352ZM6.99401 0.575571C5.17983 0.575571 3.70423 2.05118 3.70423 3.86535C3.70423 5.67953 5.17983 7.15795 6.99401 7.15795C8.80818 7.15795 10.2838 5.68235 10.2838 3.86817C10.2838 2.054 8.80818 0.575571 6.99401 0.575571Z" fill="#8C8FA5"/>
<path d="M13.7065 14.4457C13.5485 14.4457 13.4187 14.3159 13.4187 14.1579C13.4187 10.6171 10.538 7.73638 6.99713 7.73638C3.45624 7.73638 0.575571 10.6171 0.575571 14.1579C0.575571 14.3159 0.445785 14.4457 0.287785 14.4457C0.129785 14.4457 0 14.3159 0 14.1579C0 12.2873 0.727928 10.5296 2.05118 9.20917C3.37442 7.88874 5.13217 7.15799 6.99995 7.15799C8.86774 7.15799 10.6283 7.88592 11.9487 9.20917C13.2692 10.5324 13.9999 12.2902 13.9999 14.1579C13.9943 14.3159 13.8645 14.4457 13.7065 14.4457Z" fill="#8C8FA5"/>
</g>
</svg>
