<svg width="41" height="35" viewBox="0 0 41 35" fill="none" xmlns="http://www.w3.org/2000/svg">
<g clip-path="url(#clip0_1_2396)">
<path d="M35.875 6.45746C36.5546 6.45746 37.2064 6.68424 37.687 7.08791C38.1675 7.49159 38.4375 8.03908 38.4375 8.60996V25.83C38.4375 26.4009 38.1675 26.9484 37.687 27.352C37.2064 27.7557 36.5546 27.9825 35.875 27.9825H5.125C4.44539 27.9825 3.7936 27.7557 3.31304 27.352C2.83248 26.9484 2.5625 26.4009 2.5625 25.83V8.60996C2.5625 8.03908 2.83248 7.49159 3.31304 7.08791C3.7936 6.68424 4.44539 6.45746 5.125 6.45746H35.875ZM5.125 4.30496C3.76577 4.30496 2.4622 4.75852 1.50108 5.56587C0.539954 6.37321 0 7.4682 0 8.60996L0 25.83C0 26.9717 0.539954 28.0667 1.50108 28.8741C2.4622 29.6814 3.76577 30.135 5.125 30.135H35.875C37.2343 30.135 38.5378 29.6814 39.499 28.8741C40.4601 28.0667 41 26.9717 41 25.83V8.60996C41 7.4682 40.4601 6.37321 39.499 5.56587C38.5378 4.75852 37.2343 4.30496 35.875 4.30496H5.125Z" fill="#2854C3"/>
<path d="M5.12502 11.8386C5.12502 11.5532 5.26 11.2795 5.50029 11.0776C5.74057 10.8758 6.06646 10.7624 6.40627 10.7624H11.5313C11.8711 10.7624 12.197 10.8758 12.4373 11.0776C12.6775 11.2795 12.8125 11.5532 12.8125 11.8386V13.9912C12.8125 14.2766 12.6775 14.5503 12.4373 14.7522C12.197 14.954 11.8711 15.0674 11.5313 15.0674H6.40627C6.06646 15.0674 5.74057 14.954 5.50029 14.7522C5.26 14.5503 5.12502 14.2766 5.12502 13.9912V11.8386ZM5.12502 18.2962C5.12502 18.0107 5.26 17.737 5.50029 17.5351C5.74057 17.3333 6.06646 17.2199 6.40627 17.2199H19.2188C19.5586 17.2199 19.8845 17.3333 20.1248 17.5351C20.365 17.737 20.5 18.0107 20.5 18.2962C20.5 18.5816 20.365 18.8553 20.1248 19.0572C19.8845 19.259 19.5586 19.3724 19.2188 19.3724H6.40627C6.06646 19.3724 5.74057 19.259 5.50029 19.0572C5.26 18.8553 5.12502 18.5816 5.12502 18.2962ZM5.12502 22.6012C5.12502 22.3157 5.26 22.042 5.50029 21.8401C5.74057 21.6383 6.06646 21.5249 6.40627 21.5249H8.96877C9.30858 21.5249 9.63447 21.6383 9.87475 21.8401C10.115 22.042 10.25 22.3157 10.25 22.6012C10.25 22.8866 10.115 23.1603 9.87475 23.3622C9.63447 23.564 9.30858 23.6774 8.96877 23.6774H6.40627C6.06646 23.6774 5.74057 23.564 5.50029 23.3622C5.26 23.1603 5.12502 22.8866 5.12502 22.6012ZM12.8125 22.6012C12.8125 22.3157 12.9475 22.042 13.1878 21.8401C13.4281 21.6383 13.754 21.5249 14.0938 21.5249H16.6563C16.9961 21.5249 17.322 21.6383 17.5623 21.8401C17.8025 22.042 17.9375 22.3157 17.9375 22.6012C17.9375 22.8866 17.8025 23.1603 17.5623 23.3622C17.322 23.564 16.9961 23.6774 16.6563 23.6774H14.0938C13.754 23.6774 13.4281 23.564 13.1878 23.3622C12.9475 23.1603 12.8125 22.8866 12.8125 22.6012ZM20.5 22.6012C20.5 22.3157 20.635 22.042 20.8753 21.8401C21.1156 21.6383 21.4415 21.5249 21.7813 21.5249H24.3438C24.6836 21.5249 25.0095 21.6383 25.2498 21.8401C25.49 22.042 25.625 22.3157 25.625 22.6012C25.625 22.8866 25.49 23.1603 25.2498 23.3622C25.0095 23.564 24.6836 23.6774 24.3438 23.6774H21.7813C21.4415 23.6774 21.1156 23.564 20.8753 23.3622C20.635 23.1603 20.5 22.8866 20.5 22.6012ZM28.1875 22.6012C28.1875 22.3157 28.3225 22.042 28.5628 21.8401C28.8031 21.6383 29.129 21.5249 29.4688 21.5249H32.0313C32.3711 21.5249 32.697 21.6383 32.9373 21.8401C33.1775 22.042 33.3125 22.3157 33.3125 22.6012C33.3125 22.8866 33.1775 23.1603 32.9373 23.3622C32.697 23.564 32.3711 23.6774 32.0313 23.6774H29.4688C29.129 23.6774 28.8031 23.564 28.5628 23.3622C28.3225 23.1603 28.1875 22.8866 28.1875 22.6012Z" fill="#2854C3"/>
</g>
<defs>
<clipPath id="clip0_1_2396">
<rect width="40.9091" height="34.3636" fill="white" transform="scale(1.00222)"/>
</clipPath>
</defs>
</svg>
