<svg width="21" height="27" viewBox="0 0 21 27" fill="none" xmlns="http://www.w3.org/2000/svg">
<path d="M10.5 26.5C11.9438 26.5 13.125 25.2769 13.125 23.7821H7.875C7.875 25.2769 9.05625 26.5 10.5 26.5ZM18.375 18.3462V11.5513C18.375 7.37923 16.2356 3.88667 12.4688 2.96256V2.03846C12.4688 0.910513 11.5894 0 10.5 0C9.41063 0 8.53125 0.910513 8.53125 2.03846V2.96256C4.7775 3.88667 2.625 7.36564 2.625 11.5513V18.3462L0 21.0641V22.4231H21V21.0641L18.375 18.3462ZM15.75 19.7051H5.25V11.5513C5.25 8.18103 7.23187 5.4359 10.5 5.4359C13.7681 5.4359 15.75 8.18103 15.75 11.5513V19.7051Z" fill="#2854C3"/>
</svg>
