<svg width="69" height="66" viewBox="0 0 69 66" fill="none" xmlns="http://www.w3.org/2000/svg">
<path d="M28.8512 0C24.7693 0.0678605 21.0823 2.47041 19.4144 6.18542L39.3854 12.1384C40.2632 6.97087 37.1176 1.96074 32.0554 0.440371C31.1483 0.168929 30.1973 0.0202138 29.2463 0H28.8512ZM18.6536 8.6746C17.7612 13.8565 20.9068 18.8811 25.9836 20.3971C31.0751 21.9132 36.5031 19.4298 38.6392 14.6218L18.6536 8.6746ZM57.4982 15.0694C53.7966 15.0838 49.861 16.8453 46.8909 20.9891L28.6318 46.5307C23.7305 53.3745 25.8666 60.5359 30.6947 63.9145C35.5375 67.3075 43.0723 66.9177 47.9736 60.0739L66.2181 34.5468C71.1194 27.6885 68.9833 20.5415 64.1552 17.1485C62.341 15.8779 60.161 15.1416 57.864 15.0694H57.4982ZM57.2349 17.5672C57.4251 17.5672 57.6153 17.5672 57.7908 17.5817C59.5612 17.6538 61.229 18.2747 62.6336 19.271C66.3937 21.8987 68.2811 27.1399 64.0528 33.0452L54.616 46.2563C49.3782 44.8703 42.648 40.1489 39.5902 35.7163L49.0563 22.4907C51.5289 19.0399 54.4697 17.625 57.2349 17.5672ZM10.3946 28.5693C8.9871 28.5837 7.59864 28.8725 6.30821 29.4356C1.46398 31.5292 -1.0569 36.8714 0.420807 41.8959L19.5461 33.6516C17.6295 30.4607 14.1474 28.526 10.3946 28.5693ZM20.5849 36.0195L1.46252 44.2783C4.16189 48.8119 9.84593 50.6312 14.718 48.5376C19.5754 46.4296 22.0918 41.0585 20.5849 36.0195Z" fill="#EADEDE"/>
</svg>
