<svg width="6" height="7" viewBox="0 0 6 7" fill="none" xmlns="http://www.w3.org/2000/svg">
<path fill-rule="evenodd" clip-rule="evenodd" d="M0.300441 2.40861C0.379993 2.40861 0.456287 2.44033 0.512539 2.49678C0.568791 2.55323 0.600393 2.62979 0.600393 2.70963V5.41873H3.29996C3.37951 5.41873 3.4558 5.45045 3.51205 5.5069C3.56831 5.56335 3.59991 5.63991 3.59991 5.71975C3.59991 5.79958 3.56831 5.87614 3.51205 5.93259C3.4558 5.98905 3.37951 6.02076 3.29996 6.02076H0.300441C0.220889 6.02076 0.144595 5.98905 0.0883433 5.93259C0.0320915 5.87614 0.000489456 5.79958 0.000489456 5.71975V2.70963C0.000489456 2.62979 0.0320915 2.55323 0.0883433 2.49678C0.144595 2.44033 0.220889 2.40861 0.300441 2.40861Z" fill="#8C8FA5"/>
<path fill-rule="evenodd" clip-rule="evenodd" d="M5.91182 0.0884336C5.93976 0.116395 5.96192 0.149612 5.97704 0.186182C5.99216 0.222752 5.99995 0.261957 5.99995 0.30155C5.99995 0.341144 5.99216 0.380348 5.97704 0.416918C5.96192 0.453488 5.93976 0.486705 5.91182 0.514667L0.512696 5.93288C0.456373 5.98941 0.379983 6.02116 0.30033 6.02116C0.220678 6.02116 0.144288 5.98941 0.0879647 5.93288C0.0316418 5.87636 1.87668e-09 5.7997 0 5.71977C-1.87668e-09 5.63983 0.0316418 5.56317 0.0879647 5.50665L5.48709 0.0884336C5.51496 0.0604014 5.54806 0.038161 5.5845 0.0229861C5.62094 0.00781118 5.66 0 5.69946 0C5.73891 0 5.77798 0.00781118 5.81442 0.0229861C5.85086 0.038161 5.88396 0.0604014 5.91182 0.0884336Z" fill="#8C8FA5"/>
</svg>
