<svg width="52" height="64" viewBox="0 0 52 64" fill="none" xmlns="http://www.w3.org/2000/svg">
<path fill-rule="evenodd" clip-rule="evenodd" d="M49.8893 49.7778C42.2939 31.6196 33.4283 26.8338 33.4283 17.7778V7.11111H35.2854C35.7779 7.11111 36.2502 6.92381 36.5985 6.59041C36.9468 6.25701 37.1424 5.80483 37.1424 5.33333V1.77778C37.1424 1.30628 36.9468 0.854097 36.5985 0.520699C36.2502 0.187301 35.7779 0 35.2854 0H16.7147C16.2221 0 15.7498 0.187301 15.4015 0.520699C15.0532 0.854097 14.8576 1.30628 14.8576 1.77778V5.33333C14.8576 5.80483 15.0532 6.25701 15.4015 6.59041C15.7498 6.92381 16.2221 7.11111 16.7147 7.11111H18.5717V17.7778C18.5717 26.8338 9.70607 31.6196 2.11065 49.7778C-0.307252 55.5556 -6.51729 64 26 64C58.5173 64 52.3073 55.5556 49.8893 49.7778ZM43.8836 56.0036C41.2763 56.7502 36.0876 57.6 26 57.6C15.9124 57.6 10.7237 56.7502 8.11642 56.0036C7.1916 55.7404 6.83133 54.7129 7.15817 53.7707C7.97528 51.3884 9.51665 47.2711 12.3988 42.6738C19.4408 31.4418 26.7465 44.4409 32.8266 44.4409C38.9066 44.4409 37.239 38.8907 39.6012 42.6738C41.775 46.174 43.5328 49.8962 44.8418 53.7707C45.1687 54.7129 44.8084 55.7369 43.8836 56.0036Z" fill="#EADEDE"/>
</svg>
