<svg width="35" height="35" viewBox="0 0 35 35" fill="none" xmlns="http://www.w3.org/2000/svg">
<rect width="33" height="34.6007" rx="7" fill="#EFEFEF"/>
<path fill-rule="evenodd" clip-rule="evenodd" d="M25.1882 23.5626C22.2669 16.4973 18.857 14.6352 18.857 11.1116V6.96123H19.5713C19.7607 6.96123 19.9424 6.88835 20.0763 6.75863C20.2103 6.62891 20.2855 6.45296 20.2855 6.26951V4.88606C20.2855 4.7026 20.2103 4.52666 20.0763 4.39694C19.9424 4.26721 19.7607 4.19434 19.5713 4.19434H12.4287C12.2393 4.19434 12.0576 4.26721 11.9237 4.39694C11.7897 4.52666 11.7145 4.7026 11.7145 4.88606V6.26951C11.7145 6.45296 11.7897 6.62891 11.9237 6.75863C12.0576 6.88835 12.2393 6.96123 12.4287 6.96123H13.143V11.1116C13.143 14.6352 9.7331 16.4973 6.81179 23.5626C5.88183 25.8107 3.49335 29.0964 16 29.0964C28.5067 29.0964 26.1182 25.8107 25.1882 23.5626ZM22.8783 25.985C21.8755 26.2755 19.8798 26.6062 16 26.6062C12.1202 26.6062 10.1245 26.2755 9.1217 25.985C8.766 25.8826 8.62743 25.4828 8.75314 25.1162C9.06742 24.1893 9.66025 22.5873 10.7688 20.7985C13.4772 16.4282 16.2871 21.486 18.6256 21.486C20.9641 21.486 20.3227 19.3265 21.2312 20.7985C22.0673 22.1604 22.7434 23.6087 23.2469 25.1162C23.3726 25.4828 23.234 25.8813 22.8783 25.985Z" fill="#2854C3"/>
</svg>
