<svg width="12" height="12" viewBox="0 0 12 12" fill="none" xmlns="http://www.w3.org/2000/svg">
<path d="M5.25539 0.374734C5.40014 -0.124916 6.10805 -0.124916 6.2528 0.374734L7.22553 3.73241C7.28984 3.95439 7.49313 4.10715 7.72424 4.10715H10.988C11.4764 4.10715 11.6946 4.72031 11.3159 5.02887L8.57691 7.26081C8.41543 7.39239 8.34822 7.60773 8.40618 7.80779L9.4277 11.3339C9.56937 11.8229 8.9957 12.2025 8.601 11.8809L6.08208 9.82828C5.89111 9.67266 5.61708 9.67266 5.42611 9.82828L2.90719 11.8808C2.51249 12.2025 1.93881 11.8229 2.08049 11.3339L3.10201 7.80779C3.15997 7.60773 3.09275 7.39239 2.93128 7.26081L0.19224 5.02887C-0.186427 4.72031 0.031758 4.10715 0.520224 4.10715H3.78395C4.01506 4.10715 4.21835 3.95439 4.28266 3.73241L5.25539 0.374734Z" fill="#FFA600"/>
</svg>
