<svg width="12" height="7" viewBox="0 0 12 7" fill="none" xmlns="http://www.w3.org/2000/svg">
<path d="M12 0.670356C12.0005 0.758073 11.9837 0.845029 11.9505 0.926236C11.9173 1.00744 11.8685 1.0813 11.8067 1.14358L6.47458 6.4757C6.41262 6.53817 6.3389 6.58775 6.25768 6.62159C6.17646 6.65543 6.08935 6.67285 6.00136 6.67285C5.91337 6.67285 5.82625 6.65543 5.74503 6.62159C5.66381 6.58775 5.59009 6.53817 5.52813 6.4757L0.196016 1.14358C0.0705092 1.01807 0 0.84785 0 0.670356C0 0.492862 0.0705092 0.322638 0.196016 0.197131C0.321524 0.0716238 0.491748 0.00111437 0.669242 0.00111437C0.846736 0.00111437 1.01696 0.0716238 1.14247 0.197131L6.00136 5.06269L10.8602 0.197131C10.9222 0.13466 10.9959 0.0850735 11.0771 0.0512357C11.1584 0.0173974 11.2455 -2.3365e-05 11.3335 -2.3365e-05C11.4215 -2.3365e-05 11.5086 0.0173974 11.5898 0.0512357C11.671 0.0850735 11.7447 0.13466 11.8067 0.197131C11.8685 0.25941 11.9173 0.33327 11.9505 0.414476C11.9837 0.495682 12.0005 0.582638 12 0.670356Z" fill="#8C8FA5"/>
</svg>
