<svg width="12" height="10" viewBox="0 0 12 10" fill="none" xmlns="http://www.w3.org/2000/svg">
<path d="M3.57153 0.714286C3.92472 0.714286 4.26996 0.819016 4.56362 1.01523C4.85728 1.21145 5.08616 1.49034 5.22132 1.81664C5.35648 2.14293 5.39184 2.50198 5.32294 2.84838C5.25403 3.19477 5.08396 3.51295 4.83423 3.76269C4.58449 4.01243 4.2663 4.1825 3.91991 4.2514C3.57352 4.3203 3.21447 4.28494 2.88817 4.14979C2.56187 4.01463 2.28298 3.78575 2.08677 3.49209C1.89055 3.19843 1.78582 2.85318 1.78582 2.5C1.78582 2.0264 1.97396 1.5722 2.30884 1.23731C2.64373 0.902423 3.09793 0.714286 3.57153 0.714286ZM3.57153 0C3.07708 0 2.59373 0.146622 2.18261 0.421326C1.77149 0.69603 1.45105 1.08648 1.26184 1.54329C1.07262 2.00011 1.02311 2.50277 1.11957 2.98773C1.21603 3.47268 1.45414 3.91814 1.80377 4.26777C2.1534 4.6174 2.59886 4.8555 3.08381 4.95196C3.56876 5.04843 4.07143 4.99892 4.52824 4.8097C4.98506 4.62048 5.37551 4.30005 5.65021 3.88893C5.92491 3.4778 6.07153 2.99445 6.07153 2.5C6.07153 1.83696 5.80814 1.20107 5.3393 0.732233C4.87046 0.263392 4.23458 0 3.57153 0Z" fill="black"/>
<path d="M7.14286 10.0001H6.42857V8.21436C6.42857 7.74075 6.24043 7.28655 5.90555 6.95166C5.57066 6.61678 5.11646 6.42864 4.64286 6.42864H2.5C2.0264 6.42864 1.5722 6.61678 1.23731 6.95166C0.902423 7.28655 0.714286 7.74075 0.714286 8.21436V10.0001H0V8.21436C0 7.55131 0.263392 6.91543 0.732233 6.44659C1.20107 5.97775 1.83696 5.71436 2.5 5.71436H4.64286C5.3059 5.71436 5.94178 5.97775 6.41062 6.44659C6.87947 6.91543 7.14286 7.55131 7.14286 8.21436V10.0001Z" fill="black"/>
<path d="M7.57153 0.714286C7.92472 0.714286 8.26996 0.819016 8.56362 1.01523C8.85728 1.21145 9.08616 1.49034 9.22132 1.81664C9.35648 2.14293 9.39184 2.50198 9.32294 2.84838C9.25403 3.19477 9.08396 3.51295 8.83423 3.76269C8.58449 4.01243 8.2663 4.1825 7.91991 4.2514C7.57352 4.3203 7.21447 4.28494 6.88817 4.14979C6.56187 4.01463 6.28298 3.78575 6.08677 3.49209C5.89055 3.19843 5.78582 2.85318 5.78582 2.5C5.78582 2.0264 5.97396 1.5722 6.30884 1.23731C6.64373 0.902423 7.09793 0.714286 7.57153 0.714286ZM7.57153 0C7.07708 0 6.59373 0.146622 6.18261 0.421326C5.77149 0.69603 5.45105 1.08648 5.26184 1.54329C5.07262 2.00011 5.02311 2.50277 5.11957 2.98773C5.21603 3.47268 5.45414 3.91814 5.80377 4.26777C6.1534 4.6174 6.59886 4.8555 7.08381 4.95196C7.56876 5.04843 8.07143 4.99892 8.52824 4.8097C8.98506 4.62048 9.37551 4.30005 9.65021 3.88893C9.92491 3.4778 10.0715 2.99445 10.0715 2.5C10.0715 1.83696 9.80814 1.20107 9.3393 0.732233C8.87046 0.263392 8.23458 0 7.57153 0Z" fill="black"/>
<path d="M11.1429 10.0001H10.4286V8.21436C10.4286 7.74075 10.2404 7.28655 9.90555 6.95166C9.57066 6.61678 9.11646 6.42864 8.64286 6.42864H6.5C6.0264 6.42864 5.5722 6.61678 5.23731 6.95166C4.90242 7.28655 4.71429 7.74075 4.71429 8.21436V10.0001H4V8.21436C4 7.55131 4.26339 6.91543 4.73223 6.44659C5.20107 5.97775 5.83696 5.71436 6.5 5.71436H8.64286C9.3059 5.71436 9.94178 5.97775 10.4106 6.44659C10.8795 6.91543 11.1429 7.55131 11.1429 8.21436V10.0001Z" fill="black"/>
</svg>
