<svg width="70" height="60" viewBox="0 0 70 60" fill="none" xmlns="http://www.w3.org/2000/svg">
<path fill-rule="evenodd" clip-rule="evenodd" d="M11.6438 8.77214C8.9645 12.0397 7.34043 16.5032 7.34043 21.1653C7.34043 23.8684 7.8249 26.4571 8.68006 28.921H24.618L30.8353 18.3269L34.7202 31.3585L39.4732 25.5004H51.383V29.0177H41.2716L33.1787 38.9893L29.7232 27.398L26.765 32.4365H0V28.9192H4.83734C4.0675 26.3999 3.67454 23.7887 3.67022 21.1636C3.67022 15.7557 5.54386 10.5167 8.75714 6.59845C11.9796 2.66963 16.6187 0 22.08 0C28.5084 0 33.3971 3.45223 36.7022 8.32545C40.0053 3.45399 44.8959 0 51.3261 0C56.7856 0 61.4266 2.66963 64.649 6.60021C67.8586 10.5167 69.7341 15.7575 69.7341 21.1653C69.7341 32.7408 61.3954 42.4081 53.5081 49.0065C48.7085 52.9893 43.4838 56.4755 37.9207 59.4072L37.6436 59.5479L37.5702 59.5866L37.5481 59.5954L37.5426 59.5989H37.5408C37.5408 59.5989 37.539 59.6006 36.7022 58.0354L35.9057 59.6182L35.8947 59.6147L35.869 59.6024L35.7773 59.5584C35.237 59.2988 34.7011 59.0308 34.1697 58.7547C32.6788 57.977 31.2137 57.1547 29.7765 56.2891C26.1962 54.1365 21.5001 50.9657 17.0812 46.9102C14.7249 44.7471 12.4384 42.3201 10.4381 39.6505C10.2896 39.4635 10.1817 39.2498 10.1208 39.0221C10.06 38.7944 10.0474 38.5573 10.0837 38.3248C10.1201 38.0924 10.2047 37.8693 10.3326 37.6687C10.4605 37.4681 10.629 37.2942 10.8283 37.1571C11.0275 37.02 11.2534 36.9226 11.4926 36.8706C11.7318 36.8186 11.9794 36.8131 12.2209 36.8543C12.4623 36.8956 12.6927 36.9829 12.8984 37.1109C13.104 37.239 13.2808 37.4053 13.4183 37.5999C15.2626 40.062 17.3932 42.3254 19.621 44.3707C23.8032 48.2116 28.2827 51.2383 31.7272 53.3099C33.3419 54.2818 34.9933 55.1964 36.6783 56.0517L37.1407 55.8037C42.1051 53.1037 46.7787 49.9398 51.0931 46.358C58.8042 39.9055 66.0639 31.1369 66.0639 21.1636C66.0639 16.5032 64.4398 12.038 61.7624 8.77039C59.0905 5.51689 55.4441 3.5173 51.3261 3.5173C45.6318 3.5173 41.2147 7.06977 38.3501 12.6658L36.7022 15.8806L35.0542 12.6658C32.1896 7.06977 27.7725 3.5173 22.08 3.5173C17.9602 3.5173 14.3138 5.51513 11.6438 8.77214ZM36.7022 58.0354L35.9057 59.6182L36.7278 59.9999L37.5408 59.6006L36.7022 58.0354Z" fill="#2854C3"/>
</svg>
