<svg width="26" height="26" viewBox="0 0 26 26" fill="none" xmlns="http://www.w3.org/2000/svg">
<path d="M13 21.125C17.4873 21.125 21.125 17.4873 21.125 13C21.125 8.51269 17.4873 4.875 13 4.875C8.51269 4.875 4.875 8.51269 4.875 13C4.875 17.4873 8.51269 21.125 13 21.125Z" fill="#2854C3"/>
<path d="M13 24.375C10.7502 24.375 8.551 23.7079 6.68039 22.458C4.80978 21.2081 3.35182 19.4315 2.49088 17.353C1.62993 15.2745 1.40467 12.9874 1.84357 10.7809C2.28248 8.57432 3.36584 6.54749 4.95667 4.95667C6.54749 3.36584 8.57432 2.28248 10.7809 1.84357C12.9874 1.40467 15.2745 1.62993 17.353 2.49088C19.4315 3.35182 21.2081 4.80978 22.458 6.68039C23.7079 8.551 24.375 10.7502 24.375 13C24.3716 16.0158 23.172 18.9071 21.0395 21.0395C18.9071 23.172 16.0158 24.3716 13 24.375ZM13 3.25001C11.0716 3.25001 9.18657 3.82183 7.5832 4.89318C5.97982 5.96452 4.73013 7.48726 3.99218 9.26884C3.25423 11.0504 3.06114 13.0108 3.43735 14.9021C3.81355 16.7934 4.74215 18.5307 6.10571 19.8943C7.46928 21.2579 9.20656 22.1865 11.0979 22.5627C12.9892 22.9389 14.9496 22.7458 16.7312 22.0078C18.5127 21.2699 20.0355 20.0202 21.1068 18.4168C22.1782 16.8134 22.75 14.9284 22.75 13C22.747 10.4151 21.7188 7.93687 19.891 6.10904C18.0631 4.28121 15.5849 3.25302 13 3.25001Z" fill="#2854C3"/>
</svg>
