<svg width="10" height="9" viewBox="0 0 10 9" fill="none" xmlns="http://www.w3.org/2000/svg">
<path d="M4.52831 0.328468C4.69018 -0.109642 5.30982 -0.109641 5.47169 0.328468L6.34626 2.69567C6.41921 2.89313 6.60744 3.02425 6.81794 3.02425L9.4962 3.02425C9.99879 3.02425 10.1905 3.68022 9.76695 3.95083L7.71601 5.26131C7.51678 5.38861 7.43314 5.63752 7.51508 5.85931L8.32374 8.0481C8.49078 8.50025 7.98748 8.90564 7.5813 8.6461L5.27075 7.16974C5.10566 7.06426 4.89434 7.06426 4.72925 7.16974L2.4187 8.6461C2.01252 8.90564 1.50922 8.50025 1.67626 8.0481L2.48492 5.85931C2.56686 5.63752 2.48322 5.38861 2.28399 5.26131L0.23305 3.95083C-0.190466 3.68022 0.00121147 3.02425 0.503801 3.02425L3.18206 3.02425C3.39256 3.02425 3.58079 2.89313 3.65374 2.69567L4.52831 0.328468Z" fill="#FFA600"/>
</svg>
