<svg width="37" height="37" viewBox="0 0 37 37" fill="none" xmlns="http://www.w3.org/2000/svg">
<path d="M20.5 28H23.5V25H20.5V28ZM22 4C13.72 4 7 10.72 7 19C7 27.28 13.72 34 22 34C30.28 34 37 27.28 37 19C37 10.72 30.28 4 22 4ZM22 32C15.385 32 9 25.615 9 19C9 12.385 15.385 6 22 6C28.615 6 35 12.385 35 19C35 25.615 28.615 32 22 32ZM22 10C18.685 10 16 12.685 16 16H19C19 14.35 20.35 13 22 13C23.65 13 25 14.35 25 16C25 19 20.5 18.625 20.5 23.5H23.5C23.5 20.125 28 19.75 28 16C28 12.685 25.315 10 22 10Z" fill="#2854C3"/>
</svg>
