<svg width="283" height="60" viewBox="0 0 283 60" fill="none" xmlns="http://www.w3.org/2000/svg">
<circle cx="30" cy="30" r="30" fill="#DEDEDE" fill-opacity="0.5"/>
<path d="M35 41.25C39.4088 39.3162 42.4988 35.1138 42.4988 30C42.4988 24.8863 39.4088 20.6838 35 18.75V21.25C37.9838 22.9825 39.9988 26.3088 39.9988 30C39.9988 33.6912 37.9838 37.0175 35 38.75V41.25Z" fill="#2854C3"/>
<path d="M35 23.75V36.25C36.5312 34.875 37.5 32.2138 37.5 30C37.5 27.7863 36.5312 25.125 35 23.75ZM20 36.25H23.3713L32.5 42.335V17.665L23.3713 23.75H20C18.6212 23.75 17.5 24.8713 17.5 26.25V33.75C17.5 35.1288 18.6212 36.25 20 36.25Z" fill="#2854C3"/>
<circle cx="105" cy="30" r="30" fill="#DEDEDE" fill-opacity="0.5"/>
<path d="M105 33.75C106.326 33.75 107.598 33.2232 108.536 32.2855C109.473 31.3479 110 30.0761 110 28.75V22.5C110 21.1739 109.473 19.9021 108.536 18.9645C107.598 18.0268 106.326 17.5 105 17.5C103.674 17.5 102.402 18.0268 101.464 18.9645C100.527 19.9021 100 21.1739 100 22.5V28.75C100 30.0761 100.527 31.3479 101.464 32.2855C102.402 33.2232 103.674 33.75 105 33.75Z" fill="#2854C3"/>
<path d="M113.75 28.75C113.75 28.4185 113.618 28.1005 113.384 27.8661C113.149 27.6317 112.832 27.5 112.5 27.5C112.168 27.5 111.851 27.6317 111.616 27.8661C111.382 28.1005 111.25 28.4185 111.25 28.75C111.25 30.4076 110.592 31.9973 109.419 33.1694C108.247 34.3415 106.658 35 105 35C103.342 35 101.753 34.3415 100.581 33.1694C99.4085 31.9973 98.75 30.4076 98.75 28.75C98.75 28.4185 98.6183 28.1005 98.3839 27.8661C98.1495 27.6317 97.8315 27.5 97.5 27.5C97.1685 27.5 96.8505 27.6317 96.6161 27.8661C96.3817 28.1005 96.25 28.4185 96.25 28.75C96.2525 30.8523 97.0118 32.8835 98.389 34.4718C99.7662 36.0602 101.669 37.0997 103.75 37.4V40H101.113C100.817 40 100.534 40.1172 100.326 40.3258C100.117 40.5345 100 40.8174 100 41.1125V41.3875C100 41.6826 100.117 41.9655 100.326 42.1742C100.534 42.3828 100.817 42.5 101.113 42.5H108.887C109.183 42.5 109.466 42.3828 109.674 42.1742C109.883 41.9655 110 41.6826 110 41.3875V41.1125C110 40.8174 109.883 40.5345 109.674 40.3258C109.466 40.1172 109.183 40 108.887 40H106.25V37.4C108.331 37.0997 110.234 36.0602 111.611 34.4718C112.988 32.8835 113.748 30.8523 113.75 28.75Z" fill="#2854C3"/>
<circle cx="253" cy="30" r="30" fill="#FF0000" fill-opacity="0.9"/>
<g clip-path="url(#clip0_1_2815)">
<path d="M249.264 28.975L251.055 26.7858C251.546 26.1862 251.839 25.466 251.895 24.7178C251.952 23.9697 251.77 23.2276 251.373 22.5868L250.14 20.5956C249.636 19.7825 248.817 19.1878 247.85 18.9327C246.883 18.6776 245.842 18.7813 244.937 19.2227C241.789 20.7563 239.62 24.0119 240.797 27.3932C241.619 29.7538 243.072 32.6847 245.644 35.5592C247.783 37.9576 250.38 39.9553 253.308 41.4524C256.628 43.1422 260.407 41.6991 262.556 39.0315C263.171 38.2687 263.459 37.3201 263.361 36.3793C263.262 35.4385 262.785 34.5764 262.027 33.969L260.154 32.4677C259.555 31.9879 258.813 31.6906 258.024 31.614C257.234 31.5375 256.434 31.6851 255.724 32.0379L253.13 33.3273C252.304 32.7698 251.551 32.1215 250.889 31.3959C250.242 30.6571 249.696 29.844 249.264 28.975ZM242.696 26.7728C241.911 24.5199 243.289 22.1216 245.823 20.8865C246.273 20.6673 246.791 20.6158 247.271 20.7426C247.751 20.8695 248.158 21.165 248.409 21.5691L249.643 23.56C249.842 23.8803 249.933 24.2512 249.905 24.6253C249.877 24.9994 249.731 25.3594 249.486 25.6593L247.323 28.2968C247.216 28.4271 247.147 28.5803 247.121 28.7417C247.095 28.903 247.114 29.067 247.176 29.2175L247.217 29.3093L247.32 29.5386C247.843 30.6491 248.524 31.685 249.344 32.6184C250.232 33.6073 251.271 34.4675 252.426 35.1726L252.517 35.2252C252.663 35.3086 252.83 35.3546 253.002 35.3586C253.174 35.3626 253.346 35.3245 253.5 35.248L256.623 33.6957C256.978 33.5192 257.379 33.4454 257.773 33.4837C258.168 33.522 258.539 33.6706 258.838 33.9106L260.711 35.41C261.491 36.034 261.604 37.1336 260.973 37.9171C259.245 40.0628 256.501 40.9237 254.287 39.7965C251.573 38.4077 249.165 36.5548 247.182 34.3304C245.188 32.1101 243.665 29.5462 242.694 26.7731L242.696 26.7728ZM264.446 16.0606C264.553 16.1302 264.644 16.2193 264.713 16.3227C264.782 16.4261 264.829 16.5418 264.851 16.6633C264.872 16.7847 264.868 16.9095 264.838 17.0304C264.808 17.1513 264.753 17.266 264.677 17.368L261.969 20.9793L265.748 23.4467C265.855 23.5164 265.946 23.6055 266.015 23.7089C266.084 23.8123 266.131 23.928 266.152 24.0494C266.174 24.1708 266.17 24.2955 266.14 24.4164C266.11 24.5373 266.055 24.652 265.979 24.754C265.902 24.856 265.806 24.9433 265.694 25.0108C265.583 25.0784 265.459 25.1249 265.329 25.1477C265.2 25.1706 265.067 25.1693 264.94 25.1439C264.812 25.1185 264.691 25.0696 264.584 24.9999L260.806 22.5303L258.1 26.1432C257.946 26.3492 257.712 26.4908 257.451 26.5369C257.189 26.583 256.921 26.5299 256.706 26.3891C256.49 26.2483 256.345 26.0315 256.302 25.7864C256.259 25.5412 256.321 25.2877 256.475 25.0818L259.183 21.4704L255.404 19.003C255.297 18.9333 255.206 18.8442 255.137 18.7408C255.068 18.6374 255.021 18.5217 255 18.4003C254.956 18.1551 255.019 17.9017 255.173 17.6957C255.327 17.4897 255.561 17.3481 255.823 17.302C255.952 17.2792 256.085 17.2805 256.212 17.3058C256.34 17.3312 256.461 17.3801 256.568 17.4498L260.346 19.9194L263.052 16.3065C263.128 16.2044 263.225 16.117 263.336 16.0494C263.447 15.9817 263.571 15.9352 263.701 15.9123C263.831 15.8895 263.963 15.8908 264.091 15.9163C264.219 15.9417 264.339 15.9908 264.446 16.0606Z" fill="white"/>
</g>
<circle cx="179" cy="30" r="30" fill="#DEDEDE" fill-opacity="0.5"/>
<path d="M188.667 22.9167C188.667 21.3081 187.284 20 185.583 20H167.083C165.383 20 164 21.3081 164 22.9167V37.5C164 39.1085 165.383 40.4167 167.083 40.4167H185.583C187.284 40.4167 188.667 39.1085 188.667 37.5V32.6394L194.833 37.5V22.9167L188.667 27.7773V22.9167ZM185.586 37.5H167.083V22.9167H185.583L185.585 30.2069L185.583 30.2083L185.585 30.2098L185.586 37.5Z" fill="#2854C3"/>
<defs>
<clipPath id="clip0_1_2815">
<rect width="32" height="30" fill="white" transform="translate(235.638 18.0063) rotate(-10)"/>
</clipPath>
</defs>
</svg>
