<svg width="311" height="285" viewBox="0 0 311 285" fill="none" xmlns="http://www.w3.org/2000/svg">
<path opacity="0.24" d="M134.849 0.0820613C127.644 -0.223278 120.302 0.242768 113.456 2.86226C105.728 5.80316 98.9097 11.3475 92.8501 17.6739C76.617 34.5801 65.0024 57.4055 47.2282 71.9922C35.8228 81.3559 22.008 87.227 13.0891 99.7781C3.68382 113.036 1.46091 131.26 0.360823 148.482C-0.0937586 155.323 -0.398329 162.335 1.23817 168.919C3.09741 176.418 7.32957 182.718 11.7708 188.493C21.9332 201.711 33.6392 213.159 46.5373 222.492C52.515 226.815 58.761 230.699 64.2341 235.858C77.6943 248.537 86.0541 268.475 101.346 277.807C110.438 283.335 120.925 284.45 131.135 284.846C147.418 285.473 164.138 284.433 179.189 277.079C205.836 264.061 224.738 232.617 252.786 224.673C260.227 222.567 268.06 222.235 275.197 218.978C281.838 215.946 287.525 210.52 292.348 204.343C303.613 189.923 310.627 170.772 310.986 151.177C311.345 131.582 304.876 111.756 292.889 98.171C279.483 82.9844 260.3 76.117 247.658 60.0465C240.526 50.9773 235.63 39.1548 226.747 32.5498C214.337 23.2986 199.19 26.1806 186.589 17.015C171.284 5.89423 152.764 0.848088 134.849 0.0820613Z" fill="#2854C3"/>
<path d="M90.3331 59.4189H55.1997V145.519H90.3331V59.4189Z" fill="#0E455A"/>
<path d="M115.819 119.261V84.1279H29.7192V119.261H115.819Z" fill="#0E455A"/>
<path d="M49.4138 181.818H45.1641V260.196H49.4138V181.818Z" fill="#0E455A"/>
<path d="M230.496 181.818H226.246V260.196H230.496V181.818Z" fill="#0E455A"/>
<path d="M174.508 163.665H38.2067C34.1563 163.665 30.8728 166.949 30.8728 170.999V171.005C30.8728 175.055 34.1563 178.339 38.2067 178.339H174.508C178.559 178.339 181.842 175.055 181.842 171.005V170.999C181.842 166.949 178.559 163.665 174.508 163.665Z" fill="#0E455A"/>
<path d="M174.508 163.665H38.2067C34.1563 163.665 30.8728 166.949 30.8728 170.999V171.005C30.8728 175.055 34.1563 178.339 38.2067 178.339H174.508C178.559 178.339 181.842 175.055 181.842 171.005V170.999C181.842 166.949 178.559 163.665 174.508 163.665Z" fill="url(#paint0_linear_1_268)"/>
<path d="M242.074 178.339H28.9424C27.4503 178.339 26.2407 179.548 26.2407 181.041C26.2407 182.533 27.4503 183.742 28.9424 183.742H242.074C243.566 183.742 244.775 182.533 244.775 181.041C244.775 179.548 243.566 178.339 242.074 178.339Z" fill="#0E455A"/>
<path d="M242.074 178.339H28.9424C27.4503 178.339 26.2407 179.548 26.2407 181.041C26.2407 182.533 27.4503 183.742 28.9424 183.742H242.074C243.566 183.742 244.775 182.533 244.775 181.041C244.775 179.548 243.566 178.339 242.074 178.339Z" fill="url(#paint1_linear_1_268)"/>
<path d="M132.167 69.8136C132.116 70.2768 132.166 70.7456 132.312 71.188C132.459 71.6304 132.699 72.0361 133.016 72.3778C133.163 72.5497 133.349 72.683 133.56 72.7663C134.659 73.1249 134.725 70.8835 134.402 70.2439C134.08 69.6044 132.328 68.3731 132.167 69.8136Z" fill="url(#paint2_linear_1_268)"/>
<path d="M151.879 68.5577C151.928 69.0209 151.878 69.4892 151.732 69.9314C151.585 70.3735 151.346 70.7794 151.031 71.1219C150.883 71.2953 150.694 71.4289 150.481 71.5104C149.387 71.869 149.321 69.6276 149.638 68.9881C149.955 68.3485 151.718 67.1172 151.879 68.5577Z" fill="url(#paint3_linear_1_268)"/>
<path opacity="0.24" d="M169.536 269.442C170.558 268.641 171.119 267.41 171.926 266.382C175.148 262.144 181.257 261.899 186.415 260.59C190.951 259.43 195.144 257.203 198.644 254.093C189.081 252.945 179.38 253.495 169.751 254.033L104.606 257.715C100.951 257.84 97.3111 258.24 93.716 258.91C92.7418 259.113 91.6838 259.424 91.1459 260.261C90.5482 261.211 90.859 262.538 91.6061 263.393C92.4107 264.199 93.3875 264.812 94.4632 265.186C104.774 269.573 116.178 272.359 127.2 270.338C127.965 270.201 128.831 269.95 129.142 269.239C129.453 268.527 129.011 267.625 129.142 266.848C129.405 265.348 131.372 265.007 132.89 265.019L147.402 265.091C148.255 265.011 149.112 265.185 149.865 265.593C151.353 266.609 151.15 269.077 152.59 270.159C153.31 270.598 154.139 270.822 154.981 270.805C158.801 271.008 166.266 272 169.536 269.442Z" fill="#0E455A"/>
<path d="M151.724 86.8301C151.724 86.8301 164.873 104.403 170.85 113.087C176.828 121.772 183.223 90.1175 183.223 90.1175L192.655 95.975C192.655 95.975 184.932 139.931 167.946 126.996C150.959 114.062 151.724 86.8301 151.724 86.8301Z" fill="#0E455A"/>
<path d="M151.724 86.8301C151.724 86.8301 164.873 104.403 170.85 113.087C176.828 121.772 183.223 90.1175 183.223 90.1175L192.655 95.975C192.655 95.975 184.932 139.931 167.946 126.996C150.959 114.062 151.724 86.8301 151.724 86.8301Z" fill="url(#paint4_linear_1_268)"/>
<path d="M137.014 83.0824C132.101 85.4732 128.377 89.6572 124.797 93.7993C124.145 94.6616 123.657 95.636 123.357 96.6743C119.292 107.553 119.878 114.606 118.575 123.452C117.523 130.714 115.264 138.108 116.955 145.25C116.955 145.25 117.344 174.478 118.892 179.11L167.151 177.957C167.151 177.957 163.481 130.738 163.164 124.928C161.616 96.8716 155.956 90.6912 151.706 86.83C147.456 82.9688 137.014 83.0824 137.014 83.0824Z" fill="#0E455A"/>
<path d="M137.014 83.082C132.101 85.4729 128.377 89.6568 124.797 93.799C124.145 94.6612 123.657 95.6357 123.357 96.674C119.292 107.552 119.878 114.605 118.575 123.451C117.523 130.714 115.264 138.107 116.955 145.25C116.955 145.25 117.344 174.478 118.892 179.11L167.151 177.957C167.151 177.957 163.319 133.039 163.29 127.247C163.164 102.795 157.049 90.8881 151.706 86.8297C147.151 83.363 137.014 83.082 137.014 83.082Z" fill="url(#paint5_linear_1_268)"/>
<path d="M154.479 114.103L161.652 113.858C161.652 113.858 162.662 123.607 160.833 124.187C159.004 124.767 154.653 124.282 154.653 124.282L154.479 114.103Z" fill="white"/>
<path d="M135.705 86.2564C135.705 86.2564 141.3 91.564 144.39 87.9897C147.48 84.4154 147.091 85.7722 147.091 85.7722L144.97 119.746L135.705 86.2564Z" fill="#040E0E"/>
<path d="M143.458 51.1469C142.415 49.8722 140.911 49.0603 139.274 48.8876C137.702 48.7202 135.962 49.2701 135.09 50.597C134.549 51.6178 134.299 52.7672 134.366 53.9203C134.273 54.9925 134.441 56.0713 134.856 57.0643C135.37 57.9977 136.205 58.7133 137.206 59.0785C138.367 59.4802 139.617 59.5555 140.818 59.2962C142.019 59.037 143.127 58.4531 144.019 57.6082C145.836 55.9645 144.826 52.8325 143.458 51.1469Z" fill="#040E0E"/>
<path d="M143.458 51.1469C142.415 49.8722 140.911 49.0603 139.274 48.8876C137.702 48.7202 135.962 49.2701 135.09 50.597C134.549 51.6178 134.299 52.7672 134.366 53.9203C134.273 54.9925 134.441 56.0713 134.856 57.0643C135.37 57.9977 136.205 58.7133 137.206 59.0785C138.367 59.4802 139.617 59.5555 140.818 59.2962C142.019 59.037 143.127 58.4531 144.019 57.6082C145.836 55.9645 144.826 52.8325 143.458 51.1469Z" fill="url(#paint6_linear_1_268)"/>
<path d="M137.893 76.0835C137.893 76.0835 137.827 83.4233 136.154 84.9654C134.48 86.5075 142.848 93.7159 146.386 85.6767C146.386 85.6767 144.324 82.198 145.035 76.3465C145.747 70.4949 137.893 76.0835 137.893 76.0835Z" fill="url(#paint7_linear_1_268)"/>
<path d="M137.636 77.822V79.4299C137.636 79.4299 141.879 85.5445 143.613 83.4883C145.346 81.4322 144.808 80.978 144.808 80.978L145.005 76.3457L137.636 77.822Z" fill="url(#paint8_linear_1_268)"/>
<path d="M133.834 65.5994C133.834 65.5994 132.639 76.7945 138.616 79.012C144.593 81.2295 148.179 78.0497 149.811 72.6405C151.443 67.2312 148.945 56.3289 142.573 57.3929C136.201 58.4568 133.834 65.5994 133.834 65.5994Z" fill="url(#paint9_linear_1_268)"/>
<path d="M132.878 69.3593C132.601 68.974 132.422 68.5266 132.358 68.0562C131.97 65.9542 132.14 63.7872 132.851 61.7714C133.562 59.7557 134.79 57.9616 136.411 56.5683C137.064 55.986 137.826 55.5372 138.652 55.2473C139.481 55.0106 140.345 54.9216 141.204 54.9843C143.908 55.0709 146.514 56.0103 148.652 57.6681C149.707 58.5031 150.579 59.5475 151.211 60.7355C151.844 61.9236 152.224 63.2296 152.328 64.5716C152.397 65.3684 152.265 66.1699 151.945 66.9027C151.782 67.2691 151.535 67.5918 151.223 67.8442C150.911 68.0967 150.544 68.2717 150.152 68.3551C148.771 68.5942 148.389 67.3151 147.277 66.4663C145.591 65.1813 145.053 63.2805 141.222 63.6033C134.994 64.1293 134.558 71.4094 132.878 69.3593Z" fill="#040E0E"/>
<path d="M131.36 86.9316C131.36 86.9316 110.512 101.408 109.639 128.724C109.137 144.551 127.014 141.873 127.57 141.467C128.126 141.06 129.889 127.57 129.889 127.57C129.889 127.57 123.518 127.57 122.747 126.41C121.976 125.251 131.36 86.9316 131.36 86.9316Z" fill="#0E455A"/>
<path d="M131.36 86.9316C131.36 86.9316 110.512 101.408 109.639 128.724C109.137 144.551 127.014 141.873 127.57 141.467C128.126 141.06 129.889 127.57 129.889 127.57C129.889 127.57 123.518 127.57 122.747 126.41C121.976 125.251 131.36 86.9316 131.36 86.9316Z" fill="url(#paint10_linear_1_268)"/>
<path d="M122.771 178.728L122 254.404L122.58 265.019L130.296 265.408L141.88 183.169L151.485 265.551L159.739 265.504L160.803 177.957L122.771 178.728Z" fill="#040E0E"/>
<path d="M122.771 178.728L122 254.404L122.58 265.019L130.296 265.408L142.077 182.201L151.485 265.551L159.739 265.504L160.803 177.957L122.771 178.728Z" fill="url(#paint11_linear_1_268)"/>
<path d="M185.357 88.4613C185.477 86.5916 185.814 84.7423 186.361 82.9504C186.918 81.1477 188.085 79.5947 189.661 78.5572C190.363 78.0882 191.218 77.9044 192.051 78.0432C193.516 78.3899 194.239 80.0874 194.329 81.5936C194.418 83.0998 194.119 84.6539 194.55 86.1003C194.687 86.5665 194.896 87.0088 195.01 87.481C195.381 89.0829 194.544 90.7146 193.534 92.0117C192.989 92.7557 192.312 93.3938 191.537 93.8945C190.726 94.3458 189.805 94.563 188.877 94.5219C187.95 94.4807 187.052 94.1828 186.283 93.6614C184.305 92.2508 185.142 90.5951 185.357 88.4613Z" fill="url(#paint12_linear_1_268)"/>
<path d="M116.208 271.2L129.722 271.009L130.296 265.408L122.579 265.02L116.208 271.2Z" fill="#040E0E"/>
<path d="M165.579 271.2L152.065 271.009L151.485 265.408L159.207 265.02L165.579 271.2Z" fill="#040E0E"/>
<path d="M137.199 83.357C137.199 83.357 135.012 85.2219 137.199 89.8541C139.387 94.4864 145.179 120.618 145.179 120.618L133.595 101.492L134.886 94.2832L132.418 92.3884C132.418 92.3884 132.418 85.5686 133.709 84.152C135 82.7354 136.375 82.8251 137.199 83.357Z" fill="#0E455A"/>
<path d="M145.257 82.4902C145.257 82.4902 148.735 83.3569 149.315 85.0006C149.895 86.6443 152.303 91.4678 152.303 91.4678L150.761 93.5837L153.152 96.381L145.137 120.612C145.137 120.612 147.199 87.7919 146.362 85.67C145.525 83.5482 145.257 82.4902 145.257 82.4902Z" fill="#0E455A"/>
<path d="M137.199 83.357C137.199 83.357 135.012 85.2219 137.199 89.8541C139.387 94.4864 145.179 120.618 145.179 120.618L133.595 101.492L134.886 94.2832L132.418 92.3884C132.418 92.3884 132.418 85.5686 133.709 84.152C135 82.7354 136.375 82.8251 137.199 83.357Z" fill="url(#paint13_linear_1_268)"/>
<path d="M145.257 82.4902C145.257 82.4902 148.735 83.3569 149.315 85.0006C149.895 86.6443 152.303 91.4678 152.303 91.4678L150.761 93.5837L153.152 96.381L145.137 120.612C145.137 120.612 147.199 87.7919 146.362 85.67C145.525 83.5482 145.257 82.4902 145.257 82.4902Z" fill="url(#paint14_linear_1_268)"/>
<path d="M143.726 100.003C143.209 99.9675 142.71 99.7976 142.278 99.5105C141.847 99.2233 141.497 98.8288 141.264 98.3656C141.108 98.1026 140.78 97.5886 140.355 96.9132C138.508 94.0024 134.665 87.9476 134.026 85.8018C133.338 83.5185 135.293 82.1677 136.416 81.7732L136.644 82.4247C136.536 82.4606 134.002 83.381 134.665 85.6045C135.263 87.6487 139.088 93.6617 140.923 96.5486C141.353 97.23 141.682 97.744 141.838 98.013C142.435 98.9873 143.194 99.4594 143.977 99.322C144.76 99.1845 146.548 98.2282 147.641 92.2032C149.189 83.7038 146.613 82.341 145.759 81.8868L146.081 81.2891C147.038 81.7971 149.955 83.3332 148.317 92.3347C147.193 98.545 145.191 99.8061 144.103 100.003C143.978 100.014 143.852 100.014 143.726 100.003Z" fill="#0E455A"/>
<path d="M139.865 135.753C138.818 135.743 137.79 135.47 136.877 134.958C135.906 134.464 135.092 133.709 134.528 132.778C133.964 131.846 133.672 130.775 133.685 129.686C133.805 127.51 135.377 125.687 138.114 124.551C147.026 120.834 143.918 99.8362 143.888 99.627L144.563 99.5254C144.701 100.404 147.779 121.258 138.371 125.179C135.897 126.213 134.474 127.827 134.372 129.722C134.375 130.68 134.64 131.619 135.14 132.437C135.64 133.255 136.354 133.92 137.206 134.36C138.182 134.892 139.293 135.128 140.401 135.038C141.51 134.947 142.568 134.535 143.446 133.852C149.967 129.196 157.193 114.414 157.193 112.508H157.88C157.88 114.516 150.678 129.518 143.834 134.414C142.686 135.269 141.297 135.737 139.865 135.753Z" fill="#0E455A"/>
<path d="M143.726 100.003C143.209 99.9675 142.71 99.7976 142.278 99.5105C141.847 99.2233 141.497 98.8288 141.264 98.3656C141.108 98.1026 140.78 97.5886 140.355 96.9132C138.508 94.0024 134.665 87.9476 134.026 85.8018C133.338 83.5185 135.293 82.1677 136.416 81.7732L136.644 82.4247C136.536 82.4606 134.002 83.381 134.665 85.6045C135.263 87.6487 139.088 93.6617 140.923 96.5486C141.353 97.23 141.682 97.744 141.838 98.013C142.435 98.9873 143.194 99.4594 143.977 99.322C144.76 99.1845 146.548 98.2282 147.641 92.2032C149.189 83.7038 146.613 82.341 145.759 81.8868L146.081 81.2891C147.038 81.7971 149.955 83.3332 148.317 92.3347C147.193 98.545 145.191 99.8061 144.103 100.003C143.978 100.014 143.852 100.014 143.726 100.003Z" fill="url(#paint15_linear_1_268)"/>
<path d="M139.865 135.753C138.818 135.743 137.79 135.47 136.877 134.958C135.906 134.464 135.092 133.709 134.528 132.778C133.964 131.846 133.672 130.775 133.685 129.686C133.805 127.51 135.377 125.687 138.114 124.551C147.026 120.834 143.918 99.8362 143.888 99.627L144.563 99.5254C144.701 100.404 147.779 121.258 138.371 125.179C135.897 126.213 134.474 127.827 134.372 129.722C134.375 130.68 134.64 131.619 135.14 132.437C135.64 133.255 136.354 133.92 137.206 134.36C138.182 134.892 139.293 135.128 140.401 135.038C141.51 134.947 142.568 134.535 143.446 133.852C149.967 129.196 157.193 114.414 157.193 112.508H157.88C157.88 114.516 150.678 129.518 143.834 134.414C142.686 135.269 141.297 135.737 139.865 135.753Z" fill="url(#paint16_linear_1_268)"/>
<path d="M137.056 128.144L140.045 118.449C140.288 117.658 140.807 116.981 141.509 116.542C142.21 116.103 143.046 115.931 143.864 116.058L155.621 117.852C156.116 117.929 156.588 118.114 157.004 118.393C157.421 118.671 157.771 119.037 158.032 119.464C158.293 119.892 158.458 120.371 158.516 120.869C158.573 121.366 158.521 121.871 158.364 122.346L150.797 145.203C150.526 146.023 149.956 146.711 149.201 147.131C148.446 147.55 147.561 147.671 146.721 147.468L135.645 144.82C135.185 144.71 134.752 144.506 134.373 144.221C133.995 143.937 133.679 143.577 133.446 143.165C133.213 142.753 133.067 142.297 133.018 141.826C132.968 141.355 133.016 140.879 133.159 140.427L137.056 128.144Z" fill="#0E455A"/>
<path d="M137.056 128.144L140.045 118.449C140.288 117.658 140.807 116.981 141.509 116.542C142.21 116.103 143.046 115.931 143.864 116.058L155.621 117.852C156.116 117.929 156.588 118.114 157.004 118.393C157.421 118.671 157.771 119.037 158.032 119.464C158.293 119.892 158.458 120.371 158.516 120.869C158.573 121.366 158.521 121.871 158.364 122.346L150.797 145.203C150.526 146.023 149.956 146.711 149.201 147.131C148.446 147.55 147.561 147.671 146.721 147.468L135.645 144.82C135.185 144.71 134.752 144.506 134.373 144.221C133.995 143.937 133.679 143.577 133.446 143.165C133.213 142.753 133.067 142.297 133.018 141.826C132.968 141.355 133.016 140.879 133.159 140.427L137.056 128.144Z" fill="url(#paint17_linear_1_268)"/>
<path d="M137.636 128.723L140.624 119.028C140.867 118.237 141.387 117.56 142.089 117.121C142.79 116.682 143.626 116.51 144.444 116.637L156.201 118.431C156.696 118.509 157.168 118.693 157.584 118.972C158 119.25 158.351 119.616 158.612 120.043C158.873 120.471 159.038 120.95 159.095 121.448C159.153 121.945 159.101 122.45 158.944 122.925L151.377 145.782C151.105 146.601 150.535 147.288 149.78 147.708C149.025 148.127 148.141 148.248 147.301 148.047L136.225 145.399C135.765 145.289 135.332 145.085 134.953 144.8C134.575 144.516 134.259 144.156 134.026 143.744C133.793 143.332 133.647 142.876 133.597 142.405C133.548 141.934 133.596 141.458 133.739 141.006L137.636 128.723Z" fill="#555FD2"/>
<path d="M140.594 127.175C141.405 127.103 142.221 127.209 142.985 127.486C143.367 127.628 143.704 127.868 143.962 128.183C144.219 128.499 144.388 128.877 144.45 129.279C144.527 130.242 143.804 131.073 142.997 131.605C142.19 132.136 141.252 132.435 140.487 133.021C139.542 133.75 138.945 134.814 138.126 135.699C137.158 136.687 135.922 137.369 134.571 137.661C133.22 137.953 131.812 137.843 130.523 137.343C129.616 137.041 128.856 136.41 128.393 135.574C127.93 134.738 127.799 133.758 128.025 132.83C128.156 131.945 128.503 130.2 129.22 129.584C129.937 128.969 131.993 128.741 132.92 128.484C135.418 127.751 137.994 127.311 140.594 127.175Z" fill="url(#paint18_linear_1_268)"/>
<path d="M150.768 69.3589C150.839 69.29 150.898 69.2091 150.941 69.1198C150.964 69.0136 150.978 68.9057 150.983 68.7971C150.998 68.6904 151.051 68.5929 151.132 68.5221C151.172 68.4868 151.221 68.4627 151.274 68.4522C151.326 68.4417 151.38 68.4452 151.431 68.4624C151.475 68.4831 151.515 68.513 151.547 68.5501C151.579 68.5872 151.602 68.6306 151.616 68.6775C151.642 68.769 151.656 68.8634 151.658 68.9585C151.696 69.3288 151.64 69.7027 151.497 70.0463C151.357 70.2726 151.182 70.4745 150.977 70.644C150.943 70.6876 150.901 70.7239 150.852 70.7506C150.804 70.7773 150.751 70.7939 150.696 70.7994C150.623 70.7948 150.552 70.77 150.493 70.7277C150.462 70.7167 150.437 70.6956 150.421 70.6679C150.415 70.6423 150.415 70.6158 150.421 70.5902C150.373 70.3374 150.373 70.0779 150.421 69.8251C150.488 69.6388 150.608 69.4765 150.768 69.3589Z" fill="url(#paint19_linear_1_268)"/>
<path d="M133.422 70.5658C133.347 70.4988 133.286 70.4175 133.243 70.3267C133.22 70.2205 133.206 70.1125 133.201 70.0039C133.187 69.897 133.133 69.799 133.051 69.729C133.011 69.6931 132.963 69.6687 132.91 69.6581C132.858 69.6476 132.803 69.6515 132.753 69.6692C132.709 69.6897 132.67 69.7196 132.639 69.7568C132.608 69.794 132.585 69.8375 132.573 69.8844C132.541 69.9745 132.527 70.0699 132.531 70.1653C132.493 70.5338 132.549 70.9058 132.693 71.2472C132.829 71.474 133.003 71.6761 133.207 71.8449C133.279 71.9314 133.382 71.9869 133.494 72.0003C133.566 71.9938 133.636 71.9691 133.697 71.9286C133.725 71.9138 133.749 71.8935 133.769 71.8688C133.774 71.8432 133.774 71.8167 133.769 71.7911C133.817 71.5383 133.817 71.2788 133.769 71.026C133.699 70.8427 133.579 70.683 133.422 70.5658Z" fill="url(#paint20_linear_1_268)"/>
<path d="M156.404 112.657C156.528 113.409 156.923 114.09 157.516 114.57C157.679 114.737 157.886 114.855 158.113 114.91C158.368 114.932 158.623 114.862 158.831 114.713C159.225 114.468 159.535 114.106 159.717 113.678C159.898 113.25 159.944 112.777 159.847 112.322C159.351 110.505 156.213 110.487 156.404 112.657Z" fill="#0E455A"/>
<path d="M156.984 111.808C157.073 112.812 158.382 115.394 160.188 114.546C160.734 114.246 161.164 113.771 161.409 113.198C161.654 112.625 161.699 111.986 161.538 111.384C160.905 108.951 156.727 108.927 156.984 111.808Z" fill="#0E455A"/>
<path d="M156.984 111.808C157.342 115.149 159.9 114.725 160.187 114.546C160.711 114.222 161.121 113.744 161.363 113.178C161.605 112.612 161.666 111.986 161.538 111.384C160.905 108.951 156.673 108.933 156.984 111.808Z" fill="url(#paint21_linear_1_268)"/>
<path d="M157.671 111.993C157.904 114.139 159.548 113.864 159.727 113.751C160.064 113.544 160.328 113.238 160.484 112.875C160.64 112.513 160.681 112.111 160.6 111.724C160.187 110.158 157.474 110.146 157.671 111.993Z" fill="url(#paint22_linear_1_268)"/>
<path d="M239.253 135.938L186.357 161.362C182.224 163.348 180.484 168.308 182.47 172.441C184.456 176.573 189.417 178.313 193.549 176.327L246.446 150.904C250.579 148.918 252.319 143.957 250.333 139.825C248.346 135.692 243.386 133.952 239.253 135.938Z" fill="#0E455A"/>
<path d="M239.253 135.938L186.357 161.362C182.224 163.348 180.484 168.308 182.47 172.441C184.456 176.573 189.417 178.313 193.549 176.327L246.446 150.904C250.579 148.918 252.319 143.957 250.333 139.825C248.346 135.692 243.386 133.952 239.253 135.938Z" fill="url(#paint23_linear_1_268)"/>
<defs>
<linearGradient id="paint0_linear_1_268" x1="106.136" y1="176.468" x2="106.621" y2="164.496" gradientUnits="userSpaceOnUse">
<stop stop-color="white" stop-opacity="0"/>
<stop offset="0.95" stop-color="white"/>
</linearGradient>
<linearGradient id="paint1_linear_1_268" x1="135.508" y1="196.485" x2="135.508" y2="164.442" gradientUnits="userSpaceOnUse">
<stop offset="0.12" stop-color="#010101" stop-opacity="0"/>
<stop offset="0.95" stop-color="#010101"/>
</linearGradient>
<linearGradient id="paint2_linear_1_268" x1="132.149" y1="70.9612" x2="134.57" y2="70.9612" gradientUnits="userSpaceOnUse">
<stop stop-color="#E5C6D6"/>
<stop offset="0.42" stop-color="#EAD4D0"/>
<stop offset="1" stop-color="#F0E9CB"/>
</linearGradient>
<linearGradient id="paint3_linear_1_268" x1="1470.09" y1="632.062" x2="1460.25" y2="632.062" gradientUnits="userSpaceOnUse">
<stop stop-color="#E5C6D6"/>
<stop offset="0.42" stop-color="#EAD4D0"/>
<stop offset="1" stop-color="#F0E9CB"/>
</linearGradient>
<linearGradient id="paint4_linear_1_268" x1="15446.8" y1="11905.9" x2="15560.9" y2="9454.2" gradientUnits="userSpaceOnUse">
<stop stop-color="white" stop-opacity="0"/>
<stop offset="0.95" stop-color="white"/>
</linearGradient>
<linearGradient id="paint5_linear_1_268" x1="13340.8" y1="25438.3" x2="18370.2" y2="25176.1" gradientUnits="userSpaceOnUse">
<stop stop-color="white" stop-opacity="0"/>
<stop offset="0.95" stop-color="white"/>
</linearGradient>
<linearGradient id="paint6_linear_1_268" x1="138.329" y1="51.3621" x2="140.69" y2="57.6381" gradientUnits="userSpaceOnUse">
<stop stop-color="#010101" stop-opacity="0"/>
<stop offset="0.95" stop-color="#010101"/>
</linearGradient>
<linearGradient id="paint7_linear_1_268" x1="3447.81" y1="2809.34" x2="3630.6" y2="2809.34" gradientUnits="userSpaceOnUse">
<stop stop-color="#E5C6D6"/>
<stop offset="0.42" stop-color="#EAD4D0"/>
<stop offset="1" stop-color="#F0E9CB"/>
</linearGradient>
<linearGradient id="paint8_linear_1_268" x1="2524.63" y1="1438.62" x2="2587.16" y2="1137.48" gradientUnits="userSpaceOnUse">
<stop offset="0.12" stop-color="#010101" stop-opacity="0"/>
<stop offset="0.95" stop-color="#010101"/>
</linearGradient>
<linearGradient id="paint9_linear_1_268" x1="5320.29" y1="3464.5" x2="5778.83" y2="3464.5" gradientUnits="userSpaceOnUse">
<stop stop-color="#F9EAEB"/>
<stop offset="0.42" stop-color="#EAD4D0"/>
<stop offset="1" stop-color="#F0E9CB"/>
</linearGradient>
<linearGradient id="paint10_linear_1_268" x1="98.5336" y1="111.097" x2="128.27" y2="114.57" gradientUnits="userSpaceOnUse">
<stop offset="0.52" stop-color="white" stop-opacity="0.52"/>
<stop offset="0.95" stop-color="white"/>
</linearGradient>
<linearGradient id="paint11_linear_1_268" x1="12519.7" y1="38163.3" x2="16098.5" y2="22167.3" gradientUnits="userSpaceOnUse">
<stop offset="0.12" stop-color="#010101" stop-opacity="0"/>
<stop offset="0.95" stop-color="#010101"/>
</linearGradient>
<linearGradient id="paint12_linear_1_268" x1="4215.47" y1="3081.93" x2="4386.2" y2="3081.93" gradientUnits="userSpaceOnUse">
<stop stop-color="#E5C6D6"/>
<stop offset="0.42" stop-color="#EAD4D0"/>
<stop offset="1" stop-color="#F0E9CB"/>
</linearGradient>
<linearGradient id="paint13_linear_1_268" x1="4110.44" y1="8056.02" x2="4309.4" y2="8033.51" gradientUnits="userSpaceOnUse">
<stop stop-color="white" stop-opacity="0"/>
<stop offset="0.95" stop-color="white"/>
</linearGradient>
<linearGradient id="paint14_linear_1_268" x1="155.424" y1="100.852" x2="146.028" y2="101.497" gradientUnits="userSpaceOnUse">
<stop stop-color="white" stop-opacity="0"/>
<stop offset="0.11" stop-color="white" stop-opacity="0.18"/>
<stop offset="0.29" stop-color="white" stop-opacity="0.42"/>
<stop offset="0.45" stop-color="white" stop-opacity="0.63"/>
<stop offset="0.6" stop-color="white" stop-opacity="0.79"/>
<stop offset="0.74" stop-color="white" stop-opacity="0.9"/>
<stop offset="0.86" stop-color="white" stop-opacity="0.98"/>
<stop offset="0.95" stop-color="white"/>
</linearGradient>
<linearGradient id="paint15_linear_1_268" x1="5176.18" y1="3336.59" x2="3872.06" y2="4516.2" gradientUnits="userSpaceOnUse">
<stop offset="0.12" stop-color="#010101" stop-opacity="0"/>
<stop offset="0.95" stop-color="#010101"/>
</linearGradient>
<linearGradient id="paint16_linear_1_268" x1="8922.06" y1="7207.66" x2="6480.36" y2="9058.23" gradientUnits="userSpaceOnUse">
<stop offset="0.12" stop-color="#010101" stop-opacity="0"/>
<stop offset="0.95" stop-color="#010101"/>
</linearGradient>
<linearGradient id="paint17_linear_1_268" x1="7993.03" y1="7507.38" x2="9840.1" y2="8848.82" gradientUnits="userSpaceOnUse">
<stop offset="0.12" stop-color="#010101" stop-opacity="0"/>
<stop offset="0.95" stop-color="#010101"/>
</linearGradient>
<linearGradient id="paint18_linear_1_268" x1="5148.72" y1="2891.19" x2="5605.02" y2="2891.19" gradientUnits="userSpaceOnUse">
<stop stop-color="#E5C6D6"/>
<stop offset="0.42" stop-color="#EAD4D0"/>
<stop offset="1" stop-color="#F0E9CB"/>
</linearGradient>
<linearGradient id="paint19_linear_1_268" x1="591.504" y1="431.296" x2="580.645" y2="430.068" gradientUnits="userSpaceOnUse">
<stop offset="0.12" stop-color="#010101" stop-opacity="0"/>
<stop offset="0.95" stop-color="#010101"/>
</linearGradient>
<linearGradient id="paint20_linear_1_268" x1="504.124" y1="436.449" x2="514.985" y2="435.218" gradientUnits="userSpaceOnUse">
<stop offset="0.12" stop-color="#010101" stop-opacity="0"/>
<stop offset="0.95" stop-color="#010101"/>
</linearGradient>
<linearGradient id="paint21_linear_1_268" x1="1825.36" y1="1213.89" x2="1763.25" y2="1308.18" gradientUnits="userSpaceOnUse">
<stop offset="0.12" stop-color="#010101" stop-opacity="0"/>
<stop offset="0.95" stop-color="#010101"/>
</linearGradient>
<linearGradient id="paint22_linear_1_268" x1="1225.07" y1="827.871" x2="1199.5" y2="866.756" gradientUnits="userSpaceOnUse">
<stop offset="0.12" stop-color="#010101" stop-opacity="0"/>
<stop offset="0.95" stop-color="#010101"/>
</linearGradient>
<linearGradient id="paint23_linear_1_268" x1="34452.3" y1="5226.12" x2="34402.1" y2="4783.93" gradientUnits="userSpaceOnUse">
<stop stop-color="white" stop-opacity="0"/>
<stop offset="0.95" stop-color="white"/>
</linearGradient>
</defs>
</svg>
