<svg width="25" height="23" viewBox="0 0 25 23" fill="none" xmlns="http://www.w3.org/2000/svg">
<path fill-rule="evenodd" clip-rule="evenodd" d="M22.493 18.2539H23.9583C24.5336 18.2539 25 18.7017 25 19.2541C25 19.8065 24.5336 20.2543 23.9583 20.2543H22.493C22.0536 21.5602 20.7771 22.5048 19.2708 22.5048C17.7645 22.5048 16.488 21.5602 16.0486 20.2543L1.04156 20.2543C0.466241 20.2543 -0.000114338 19.8065 -0.000114338 19.2541C-0.000114338 18.7017 0.466241 18.2539 1.04156 18.2539L16.0486 18.2539C16.488 16.948 17.7645 16.0034 19.2708 16.0034C20.7771 16.0034 22.0536 16.948 22.493 18.2539ZM21.0937 19.2541C21.0937 20.2208 20.2776 21.0045 19.2708 21.0045C18.264 21.0045 17.4479 20.2208 17.4479 19.2541C17.4479 18.2874 18.264 17.5038 19.2708 17.5038C20.2776 17.5038 21.0937 18.2874 21.0937 19.2541Z" fill="white"/>
<path fill-rule="evenodd" clip-rule="evenodd" d="M23.9583 10.2521L8.91055 10.2521C8.47117 8.94627 7.19471 8.00166 5.68835 8.00166C4.18209 8.00166 2.90563 8.94627 2.46625 10.2521H1.04156C0.466241 10.2521 -0.000114338 10.6999 -0.000114338 11.2524C-0.000114338 11.8048 0.466241 12.2526 1.04156 12.2526H2.46625C2.90563 13.5584 4.18209 14.503 5.68835 14.503C7.19471 14.503 8.47117 13.5584 8.91055 12.2526L23.9583 12.2526C24.5336 12.2526 25 11.8048 25 11.2524C25 10.6999 24.5336 10.2521 23.9583 10.2521ZM5.68835 13.0027C6.69512 13.0027 7.51127 12.2191 7.51127 11.2524C7.51127 10.2857 6.69512 9.50198 5.68835 9.50198C4.68157 9.50198 3.86542 10.2857 3.86542 11.2524C3.86542 12.2191 4.68157 13.0027 5.68835 13.0027Z" fill="white"/>
<path fill-rule="evenodd" clip-rule="evenodd" d="M16.243 2.2505L23.9583 2.2505C24.5336 2.2505 25 2.6983 25 3.25071C25 3.80313 24.5336 4.25093 23.9583 4.25093L16.243 4.25093C15.8036 5.5568 14.527 6.5014 13.0208 6.5014C11.5145 6.5014 10.238 5.5568 9.79858 4.25093L1.04156 4.25093C0.466241 4.25093 -0.000114338 3.80313 -0.000114338 3.25071C-0.000114338 2.6983 0.466241 2.2505 1.04156 2.2505L9.79858 2.2505C10.238 0.944623 11.5145 2.27707e-05 13.0208 2.27707e-05C14.527 2.27707e-05 15.8036 0.944623 16.243 2.2505ZM14.8437 3.25071C14.8437 4.21742 14.0276 5.00109 13.0208 5.00109C12.014 5.00109 11.1979 4.21742 11.1979 3.25071C11.1979 2.28401 12.014 1.50034 13.0208 1.50034C14.0276 1.50034 14.8437 2.28401 14.8437 3.25071Z" fill="white"/>
</svg>
