<svg width="35" height="35" viewBox="0 0 35 35" fill="none" xmlns="http://www.w3.org/2000/svg">
<path d="M27.7084 5.83317H24.7917V4.37484C24.7917 3.98806 24.6381 3.61713 24.3646 3.34364C24.0911 3.07015 23.7202 2.9165 23.3334 2.9165C22.9466 2.9165 22.5757 3.07015 22.3022 3.34364C22.0287 3.61713 21.8751 3.98806 21.8751 4.37484V5.83317H13.1251V4.37484C13.1251 3.98806 12.9714 3.61713 12.6979 3.34364C12.4245 3.07015 12.0535 2.9165 11.6667 2.9165C11.28 2.9165 10.909 3.07015 10.6356 3.34364C10.3621 3.61713 10.2084 3.98806 10.2084 4.37484V5.83317H7.29175C6.13143 5.83317 5.01863 6.29411 4.19816 7.11458C3.37768 7.93505 2.91675 9.04785 2.91675 10.2082V27.7082C2.91675 28.8685 3.37768 29.9813 4.19816 30.8018C5.01863 31.6222 6.13143 32.0832 7.29175 32.0832H27.7084C28.8687 32.0832 29.9815 31.6222 30.802 30.8018C31.6225 29.9813 32.0834 28.8685 32.0834 27.7082V10.2082C32.0834 9.04785 31.6225 7.93505 30.802 7.11458C29.9815 6.29411 28.8687 5.83317 27.7084 5.83317ZM29.1667 27.7082C29.1667 28.0949 29.0131 28.4659 28.7396 28.7394C28.4661 29.0129 28.0952 29.1665 27.7084 29.1665H7.29175C6.90497 29.1665 6.53404 29.0129 6.26055 28.7394C5.98706 28.4659 5.83341 28.0949 5.83341 27.7082V17.4998H29.1667V27.7082ZM29.1667 14.5832H5.83341V10.2082C5.83341 9.8214 5.98706 9.45046 6.26055 9.17697C6.53404 8.90348 6.90497 8.74984 7.29175 8.74984H10.2084V10.2082C10.2084 10.5949 10.3621 10.9659 10.6356 11.2394C10.909 11.5129 11.28 11.6665 11.6667 11.6665C12.0535 11.6665 12.4245 11.5129 12.6979 11.2394C12.9714 10.9659 13.1251 10.5949 13.1251 10.2082V8.74984H21.8751V10.2082C21.8751 10.5949 22.0287 10.9659 22.3022 11.2394C22.5757 11.5129 22.9466 11.6665 23.3334 11.6665C23.7202 11.6665 24.0911 11.5129 24.3646 11.2394C24.6381 10.9659 24.7917 10.5949 24.7917 10.2082V8.74984H27.7084C28.0952 8.74984 28.4661 8.90348 28.7396 9.17697C29.0131 9.45046 29.1667 9.8214 29.1667 10.2082V14.5832Z" fill="white"/>
</svg>
