<svg width="19" height="21" viewBox="0 0 19 21" fill="none" xmlns="http://www.w3.org/2000/svg">
<path fill-rule="evenodd" clip-rule="evenodd" d="M13.6364 2.43972C13.7528 2.55938 13.8452 2.70153 13.9082 2.85803C13.9712 3.01453 14.0036 3.1823 14.0036 3.35174C14.0036 3.52118 13.9712 3.68895 13.9082 3.84545C13.8452 4.00195 13.7528 4.1441 13.6364 4.26376L7.01948 11.0807L13.6364 17.8976C13.7526 18.0174 13.8448 18.1596 13.9077 18.3161C13.9706 18.4725 14.003 18.6403 14.003 18.8096C14.003 18.979 13.9706 19.1467 13.9077 19.3032C13.8448 19.4597 13.7526 19.6019 13.6364 19.7217C13.5202 19.8414 13.3823 19.9364 13.2304 20.0012C13.0786 20.0661 12.9159 20.0994 12.7515 20.0994C12.5872 20.0994 12.4244 20.0661 12.2726 20.0012C12.1208 19.9364 11.9828 19.8414 11.8666 19.7217L4.3672 11.9927C4.25081 11.873 4.15846 11.7309 4.09545 11.5744C4.03243 11.4179 4 11.2501 4 11.0807C4 10.9113 4.03243 10.7435 4.09545 10.587C4.15846 10.4305 4.25081 10.2883 4.3672 10.1687L11.8666 2.43972C11.9827 2.31976 12.1206 2.22458 12.2725 2.15965C12.4243 2.09471 12.5871 2.06128 12.7515 2.06128C12.9159 2.06128 13.0787 2.09471 13.2306 2.15965C13.3824 2.22458 13.5203 2.31976 13.6364 2.43972Z" fill="white"/>
</svg>
