<svg width="35" height="35" viewBox="0 0 35 35" fill="none" xmlns="http://www.w3.org/2000/svg">
<path d="M15.7545 4.26918C16.2468 3.86588 16.8636 3.64551 17.5001 3.64551C18.1365 3.64551 18.7534 3.86588 19.2457 4.26918L28.8525 12.1019C29.1794 12.3699 29.4426 12.7072 29.623 13.0895C29.8035 13.4717 29.8967 13.8893 29.8959 14.312V28.5198C29.8959 30.0853 28.6476 31.3541 27.1069 31.3541H23.3881C21.8474 31.3541 20.599 30.0853 20.599 28.5198V21.6926C20.599 21.1713 20.1834 20.7483 19.6694 20.7483H15.3308C14.8175 20.7483 14.4011 21.1713 14.4011 21.6926V28.5205C14.4011 30.0861 13.1528 31.3548 11.6121 31.3548H7.89332C6.35332 31.3541 5.10425 30.0853 5.10425 28.5198V14.312C5.10346 13.8893 5.19667 13.4717 5.37714 13.0895C5.5576 12.7072 5.82081 12.3699 6.14769 12.1019L15.7545 4.26918ZM18.082 5.74283C17.9178 5.60848 17.7122 5.53508 17.5001 5.53508C17.288 5.53508 17.0824 5.60848 16.9182 5.74283L7.31144 13.5748C7.20244 13.6642 7.11469 13.7767 7.05453 13.9042C6.99438 14.0317 6.96333 14.171 6.96363 14.312V28.5198C6.96363 29.0419 7.37925 29.4648 7.89332 29.4648H11.6121C12.1254 29.4648 12.5418 29.0419 12.5418 28.5198V21.6926C12.5418 20.1278 13.7908 18.8591 15.3308 18.8591H19.6694C21.2094 18.8591 22.4584 20.1278 22.4584 21.6926V28.5205C22.4584 29.0426 22.874 29.4655 23.3881 29.4655H27.1069C27.6202 29.4655 28.0365 29.0426 28.0365 28.5205V14.312C28.0369 14.1711 28.0059 14.0319 27.9458 13.9045C27.8856 13.7771 27.7978 13.6647 27.6887 13.5755L18.082 5.7421V5.74283Z" fill="#2854C3"/>
</svg>
