<svg width="10" height="14" viewBox="0 0 10 14" fill="none" xmlns="http://www.w3.org/2000/svg">
<path d="M4.99976 1C5.49421 1 5.97756 1.14662 6.38868 1.42133C6.79981 1.69603 7.12024 2.08648 7.30946 2.54329C7.49868 3.00011 7.54818 3.50277 7.45172 3.98773C7.35526 4.47268 7.11716 4.91814 6.76752 5.26777C6.41789 5.6174 5.97244 5.8555 5.48748 5.95196C5.00253 6.04843 4.49986 5.99892 4.04305 5.8097C3.58623 5.62048 3.19579 5.30005 2.92108 4.88893C2.64638 4.4778 2.49976 3.99445 2.49976 3.5C2.49976 2.83696 2.76315 2.20107 3.23199 1.73223C3.70083 1.26339 4.33672 1 4.99976 1ZM4.99976 0C4.30752 0 3.63083 0.205271 3.05526 0.589856C2.47969 0.974441 2.03109 1.52107 1.76618 2.16061C1.50127 2.80015 1.43196 3.50388 1.56701 4.18282C1.70206 4.86175 2.0354 5.48539 2.52488 5.97487C3.01437 6.46436 3.63801 6.7977 4.31694 6.93275C4.99587 7.0678 5.69961 6.99849 6.33915 6.73358C6.97869 6.46867 7.52532 6.02007 7.9099 5.4445C8.29449 4.86892 8.49976 4.19223 8.49976 3.5C8.49976 2.57174 8.13101 1.6815 7.47463 1.02513C6.81825 0.368749 5.92802 0 4.99976 0Z" fill="black"/>
<path d="M10 14H9V11.5C9 10.837 8.73661 10.2011 8.26777 9.73223C7.79893 9.26339 7.16304 9 6.5 9H3.5C2.83696 9 2.20107 9.26339 1.73223 9.73223C1.26339 10.2011 1 10.837 1 11.5V14H0V11.5C0 10.5717 0.368749 9.6815 1.02513 9.02513C1.6815 8.36875 2.57174 8 3.5 8H6.5C7.42826 8 8.3185 8.36875 8.97487 9.02513C9.63125 9.6815 10 10.5717 10 11.5V14Z" fill="black"/>
</svg>
