<svg width="11" height="10" viewBox="0 0 11 10" fill="none" xmlns="http://www.w3.org/2000/svg">
<path d="M4.74739 0.351321C4.89959 -0.117117 5.56231 -0.117118 5.71451 0.35132L6.60079 3.07901C6.66886 3.2885 6.86408 3.43034 7.08435 3.43034H9.95242C10.445 3.43034 10.6498 4.06062 10.2513 4.35013L7.93096 6.03593C7.75276 6.16541 7.67819 6.3949 7.74626 6.60439L8.63254 9.33208C8.78474 9.80052 8.2486 10.1901 7.85012 9.90055L5.52981 8.21474C5.3516 8.08527 5.1103 8.08527 4.93209 8.21474L2.61178 9.90054C2.2133 10.1901 1.67715 9.80052 1.82936 9.33208L2.71564 6.60439C2.78371 6.3949 2.70914 6.16541 2.53094 6.03593L0.210625 4.35013C-0.187852 4.06062 0.0169371 3.43034 0.509482 3.43034H3.37754C3.59782 3.43034 3.79304 3.2885 3.86111 3.07901L4.74739 0.351321Z" fill="#FFA600"/>
</svg>
