<svg width="52" height="40" viewBox="0 0 52 40" fill="none" xmlns="http://www.w3.org/2000/svg">
<path d="M24.1511 0.0353641C31.2947 0.407424 37.6941 2.77001 43.3494 7.12311C49.0048 11.4762 51.6836 16.6665 51.386 22.6938C51.1627 27.4562 48.8001 31.5117 44.2982 34.8602C39.7963 38.2087 33.9735 39.9202 26.83 39.9946C21.8444 40.069 17.5657 39.3621 13.9939 37.8739C13.7707 37.8739 13.659 37.7995 13.659 37.6506C13.7335 37.5762 13.8823 37.5762 14.1055 37.6506C16.2635 38.1715 17.9749 38.2831 19.24 37.9855C20.505 37.6879 21.3421 37.2228 21.7514 36.5903C22.1606 35.9578 22.1792 35.3067 21.8072 34.637C21.5095 34.0417 20.505 33.5208 18.7935 33.0743C17.082 32.6278 14.9985 32.0325 12.5429 31.2884C10.0873 30.5443 8.04094 29.5769 6.40388 28.3863L6.5155 28.2747C6.73873 27.6794 6.88755 27.3074 6.96197 27.1586C7.11079 26.9353 7.25961 26.8237 7.40844 26.8237H14.552C14.7008 26.8237 14.8496 26.9353 14.9985 27.1586L15.7798 28.9444C16.0774 29.763 16.6355 30.2094 17.4541 30.2839C18.347 30.2839 18.9051 29.8746 19.1283 29.0561C19.2027 28.7584 19.2027 28.498 19.1283 28.2747V28.0515L19.0167 27.9399L11.6499 11.4204C11.5011 11.0483 11.2779 10.8623 10.9802 10.8623C10.8314 10.8623 10.7198 10.8995 10.6454 10.9739C10.5709 11.0483 10.5337 11.1228 10.5337 11.1972C10.5337 11.2716 10.4965 11.346 10.4221 11.4204C10.3477 11.4948 8.22697 16.1828 4.0599 25.4843L3.72504 26.154L2.72048 24.8146C1.08342 22.5822 0.190473 20.201 0.0416485 17.671C-0.330412 12.5366 1.79033 8.23929 6.40388 4.77913C11.0174 1.31897 16.9332 -0.262284 24.1511 0.0353641ZM24.5976 28.2747V12.7598C24.5976 11.5692 23.9651 10.9739 22.7001 10.9739C21.5095 10.9739 20.9142 11.5692 20.9142 12.7598V28.2747C20.9142 29.4653 21.5095 30.0606 22.7001 30.0606C23.9651 30.0606 24.5976 29.4653 24.5976 28.2747ZM46.4748 28.2747V12.7598C46.4748 11.5692 45.8423 10.9739 44.5772 10.9739C43.9075 10.9739 43.4611 11.1228 43.2378 11.4204C43.1634 11.4948 42.9774 11.7553 42.6797 12.2017L37.3221 24.2565L31.9644 12.2017C31.89 12.0529 31.797 11.9041 31.6854 11.7553C31.5737 11.6064 31.5179 11.4948 31.5179 11.4204C31.2203 11.1228 30.7366 10.9739 30.0669 10.9739C28.8019 10.9739 28.1694 11.5692 28.1694 12.7598V28.2747C28.1694 29.4653 28.8019 30.0606 30.0669 30.0606C31.3319 30.0606 31.9644 29.4653 31.9644 28.2747V21.0196L35.6478 28.498C35.9455 29.2421 36.4663 29.6141 37.2105 29.6141C38.029 29.6141 38.6615 29.2049 39.108 28.3863L42.6797 21.0196V28.2747C42.6797 29.4653 43.3122 30.0606 44.5772 30.0606C45.8423 30.0606 46.4748 29.4653 46.4748 28.2747ZM13.101 23.5868H8.85947C8.71065 23.5868 8.63624 23.4752 8.63624 23.2519L10.757 18.3407C10.757 18.2663 10.7942 18.2291 10.8686 18.2291C10.8686 18.1547 10.9058 18.1175 10.9802 18.1175L11.2035 18.2291V18.3407L13.3242 23.2519C13.3986 23.4752 13.3242 23.5868 13.101 23.5868Z" fill="black"/>
</svg>
