<svg width="100" height="100" viewBox="0 0 100 100" fill="none" xmlns="http://www.w3.org/2000/svg">
<path d="M84.375 31.25C86.5234 31.25 88.5417 31.6569 90.4297 32.4707C92.3177 33.2845 93.9616 34.4076 95.3613 35.8398C96.7611 37.2721 97.8841 38.9323 98.7305 40.8203C99.5768 42.7083 100 44.7266 100 46.875C100 48.7305 99.6908 50.5046 99.0723 52.1973C98.4538 53.89 97.5911 55.4036 96.4844 56.7383C95.3776 58.0729 94.0592 59.2285 92.5293 60.2051C90.9994 61.1816 89.3229 61.849 87.5 62.207V67.1875C87.5 70.0846 87.1419 72.9004 86.4258 75.6348C85.7096 78.3691 84.7005 80.9733 83.3984 83.4473C82.0964 85.9212 80.5013 88.151 78.6133 90.1367C76.7253 92.1224 74.6256 93.8639 72.3145 95.3613C70.0033 96.8587 67.4805 97.998 64.7461 98.7793C62.0117 99.5605 59.1797 99.9674 56.25 100C53.2878 100 50.4557 99.5931 47.7539 98.7793C45.0521 97.9655 42.5456 96.8262 40.2344 95.3613C37.9232 93.8965 35.8236 92.1549 33.9355 90.1367C32.0475 88.1185 30.4525 85.8887 29.1504 83.4473C27.8483 81.0059 26.8229 78.418 26.0742 75.6836C25.3255 72.9492 24.9674 70.1172 25 67.1875V56.0059C20.9961 55.6478 17.4479 54.6875 14.3555 53.125C11.263 51.5625 8.64258 49.5117 6.49414 46.9727C4.3457 44.4336 2.73438 41.4876 1.66016 38.1348C0.585938 34.7819 0.0325521 31.1523 0 27.2461V0H15.625C16.4714 0 17.2038 0.309245 17.8223 0.927734C18.4408 1.54622 18.75 2.27865 18.75 3.125C18.75 3.97135 18.4408 4.70378 17.8223 5.32227C17.2038 5.94076 16.4714 6.25 15.625 6.25H6.25V27.2461C6.25 30.6966 6.72201 33.8216 7.66602 36.6211C8.61003 39.4206 10.026 41.8132 11.9141 43.7988C13.8021 45.7845 16.0807 47.3145 18.75 48.3887C21.4193 49.4629 24.5443 50 28.125 50C31.4128 50 34.4076 49.4954 37.1094 48.4863C39.8112 47.4772 42.1061 46.0286 43.9941 44.1406C45.8822 42.2526 47.3633 39.974 48.4375 37.3047C49.5117 34.6354 50.0326 31.6243 50 28.2715V6.25H40.625C39.7786 6.25 39.0462 5.94076 38.4277 5.32227C37.8092 4.70378 37.5 3.97135 37.5 3.125C37.5 2.27865 37.8092 1.54622 38.4277 0.927734C39.0462 0.309245 39.7786 0 40.625 0H56.25V27.2461C56.25 31.1523 55.6966 34.7819 54.5898 38.1348C53.4831 41.4876 51.8717 44.4336 49.7559 46.9727C47.64 49.5117 45.0358 51.5625 41.9434 53.125C38.8509 54.6875 35.2865 55.6478 31.25 56.0059V67.1875C31.25 70.6706 31.8685 74.0072 33.1055 77.1973C34.3424 80.3874 36.084 83.2194 38.3301 85.6934C40.5762 88.1673 43.2129 90.1204 46.2402 91.5527C49.2676 92.985 52.6042 93.7174 56.25 93.75C59.8633 93.75 63.1836 93.0176 66.2109 91.5527C69.2383 90.0879 71.875 88.1348 74.1211 85.6934C76.3672 83.252 78.1087 80.4362 79.3457 77.2461C80.5827 74.056 81.2174 70.7031 81.25 67.1875V62.207C79.4271 61.8164 77.7506 61.1491 76.2207 60.2051C74.6908 59.2611 73.3724 58.1217 72.2656 56.7871C71.1589 55.4525 70.2962 53.9225 69.6777 52.1973C69.0592 50.472 68.75 48.6979 68.75 46.875C68.75 44.7266 69.1569 42.7083 69.9707 40.8203C70.7845 38.9323 71.8913 37.2884 73.291 35.8887C74.6908 34.4889 76.3509 33.3659 78.2715 32.5195C80.1921 31.6732 82.2266 31.25 84.375 31.25ZM84.375 56.25C85.6771 56.25 86.8978 56.0059 88.0371 55.5176C89.1764 55.0293 90.1693 54.362 91.0156 53.5156C91.862 52.6693 92.5293 51.6764 93.0176 50.5371C93.5059 49.3978 93.75 48.1771 93.75 46.875C93.75 45.5729 93.5059 44.3522 93.0176 43.2129C92.5293 42.0736 91.862 41.0807 91.0156 40.2344C90.1693 39.388 89.1764 38.7207 88.0371 38.2324C86.8978 37.7441 85.6771 37.5 84.375 37.5C83.0729 37.5 81.8522 37.7441 80.7129 38.2324C79.5736 38.7207 78.5807 39.388 77.7344 40.2344C76.888 41.0807 76.2207 42.0736 75.7324 43.2129C75.2441 44.3522 75 45.5729 75 46.875C75 48.1771 75.2441 49.3978 75.7324 50.5371C76.2207 51.6764 76.888 52.6693 77.7344 53.5156C78.5807 54.362 79.5736 55.0293 80.7129 55.5176C81.8522 56.0059 83.0729 56.25 84.375 56.25Z" fill="#EADEDE"/>
</svg>
