<svg width="53" height="11" viewBox="0 0 53 11" fill="none" xmlns="http://www.w3.org/2000/svg">
<path d="M25 1.34208C27.6428 1.34208 30.1084 2.25 31.9435 3.89808L33 2.94923C30.8833 1.0475 28.0417 0 25 0C21.9583 0.000671042 19.1167 1.0475 17 2.94923L18.0565 3.89808C19.8916 2.25 22.3572 1.34208 25 1.34208ZM29.2372 6.91643C26.9404 4.85365 23.0596 4.85365 20.7628 6.91643L21.8193 7.86528C23.543 6.31719 26.457 6.31719 28.1807 7.86528L29.2372 6.91643Z" fill="white"/>
<path d="M31.3039 4.89381C27.8878 1.82446 22.1129 1.82446 18.6968 4.89381L19.7533 5.84266C22.5978 3.288 27.4029 3.288 30.2474 5.84266L31.3039 4.89381Z" fill="white"/>
<path d="M25 10.7369C25.8253 10.7369 26.4943 10.136 26.4943 9.39482C26.4943 8.65361 25.8253 8.05273 25 8.05273C24.1747 8.05273 23.5056 8.65361 23.5056 9.39482C23.5056 10.136 24.1747 10.7369 25 10.7369Z" fill="white"/>
<path fill-rule="evenodd" clip-rule="evenodd" d="M48.75 2.75062H38.125C37.8432 2.75062 37.573 2.85116 37.3737 3.03011C37.1744 3.20907 37.0625 3.45178 37.0625 3.70486V7.52181C37.0625 7.77489 37.1744 8.0176 37.3737 8.19656C37.573 8.37551 37.8432 8.47605 38.125 8.47605H48.75C49.0318 8.47605 49.302 8.37551 49.5013 8.19656C49.7006 8.0176 49.8125 7.77489 49.8125 7.52181V3.70486C49.8125 3.45178 49.7006 3.20907 49.5013 3.03011C49.302 2.85116 49.0318 2.75062 48.75 2.75062ZM38.125 1.79639C37.5614 1.79639 37.0209 1.99746 36.6224 2.35537C36.2239 2.71327 36 3.1987 36 3.70486V7.52181C36 8.02797 36.2239 8.5134 36.6224 8.87131C37.0209 9.22922 37.5614 9.43029 38.125 9.43029H48.75C49.3136 9.43029 49.8541 9.22922 50.2526 8.87131C50.6511 8.5134 50.875 8.02797 50.875 7.52181V3.70486C50.875 3.1987 50.6511 2.71327 50.2526 2.35537C49.8541 1.99746 49.3136 1.79639 48.75 1.79639H38.125Z" fill="white"/>
<path d="M38.125 3.70508H48.75V7.52203H38.125V3.70508ZM51.4062 7.04491C51.8289 7.04491 52.2343 6.89411 52.5332 6.62567C52.8321 6.35724 53 5.99317 53 5.61355C53 5.23393 52.8321 4.86986 52.5332 4.60143C52.2343 4.333 51.8289 4.1822 51.4062 4.1822V7.04491Z" fill="white"/>
<path d="M0.785714 6.54318C0.973815 6.54335 1.15561 6.60412 1.29806 6.71444C1.44051 6.82477 1.53416 6.97733 1.562 7.1444L1.57143 7.2479V9.59632C1.57163 9.77461 1.49667 9.94636 1.36163 10.077C1.22659 10.2077 1.04147 10.2877 0.843486 10.3008C0.645504 10.3139 0.449335 10.2592 0.294412 10.1477C0.13949 10.0362 0.0372984 9.8762 0.00838084 9.69981L0 9.59726V7.24884C0 7.06169 0.0827803 6.8822 0.23013 6.74987C0.37748 6.61753 0.57733 6.54318 0.785714 6.54318ZM3.92857 4.66144C4.11667 4.66161 4.29846 4.72237 4.44091 4.8327C4.58336 4.94302 4.67702 5.09558 4.70486 5.26266L4.71428 5.36615V9.59632C4.71448 9.77461 4.63953 9.94636 4.50449 10.077C4.36944 10.2077 4.18432 10.2877 3.98634 10.3008C3.78836 10.3139 3.59219 10.2592 3.43727 10.1477C3.28235 10.0362 3.18016 9.8762 3.15124 9.69981L3.14286 9.59726V5.36709C3.14286 5.17994 3.22564 5.00046 3.37299 4.86812C3.52034 4.73579 3.72019 4.66144 3.92857 4.66144ZM7.07143 2.77969C7.25953 2.77986 7.44132 2.84063 7.58377 2.95095C7.72622 3.06128 7.81987 3.21384 7.84771 3.38091L7.85714 3.48441V9.60102C7.85761 9.7794 7.78284 9.95131 7.64788 10.0822C7.51292 10.213 7.32779 10.2932 7.12972 10.3064C6.93166 10.3196 6.73536 10.265 6.58033 10.1535C6.42529 10.042 6.32302 9.88193 6.29409 9.70546L6.28571 9.60196V3.48535C6.28571 3.2982 6.36849 3.11871 6.51584 2.98638C6.66319 2.85404 6.86304 2.77969 7.07143 2.77969ZM10.2143 0.897949C10.4024 0.898116 10.5842 0.958883 10.7266 1.06921C10.8691 1.17953 10.9627 1.33209 10.9906 1.49917L11 1.60266V9.60102C11.0005 9.7794 10.9257 9.95131 10.7907 10.0822C10.6558 10.213 10.4706 10.2932 10.2726 10.3064C10.0745 10.3196 9.87822 10.265 9.72318 10.1535C9.56815 10.042 9.46588 9.88193 9.43695 9.70546L9.42857 9.60196V1.6036C9.42857 1.41645 9.51135 1.23697 9.6587 1.10463C9.80605 0.972295 10.0059 0.897949 10.2143 0.897949Z" fill="white"/>
</svg>
