<svg width="210" height="210" viewBox="0 0 210 210" fill="none" xmlns="http://www.w3.org/2000/svg">
<path d="M205 105C205 49.7917 160.208 5 105 5C49.7917 5 5 49.7917 5 105C5 160.208 49.7917 205 105 205C160.208 205 205 160.208 205 105Z" stroke="#2854C3" stroke-width="10" stroke-miterlimit="10"/>
<path d="M133.562 170.5C135.222 170.51 136.868 170.188 138.402 169.555C139.937 168.922 141.33 167.99 142.5 166.812L159.437 149.875C160.602 148.704 161.255 147.12 161.255 145.469C161.255 143.818 160.602 142.234 159.437 141.062L134.437 116.062C133.266 114.898 131.682 114.245 130.031 114.245C128.38 114.245 126.796 114.898 125.625 116.062L115.625 126C108.702 124.154 102.289 120.756 96.875 116.062C92.1945 110.639 88.7976 104.23 86.9375 97.3125L96.875 87.3125C98.039 86.1415 98.6924 84.5574 98.6924 82.9062C98.6924 81.2551 98.039 79.671 96.875 78.5L71.875 53.5C70.7039 52.3359 69.1199 51.6825 67.4687 51.6825C65.8176 51.6825 64.2335 52.3359 63.0625 53.5L46.1875 70.5C45.0102 71.6703 44.0777 73.0633 43.4446 74.5978C42.8115 76.1323 42.4904 77.7775 42.5 79.4375C43.067 103.452 52.6629 126.371 69.375 143.625C86.6294 160.337 109.548 169.933 133.562 170.5ZM67.5 66.8125L83.6875 83L75.625 91.0625C74.8613 91.7778 74.2895 92.6734 73.9619 93.6671C73.6343 94.6608 73.5614 95.7208 73.75 96.75C76.086 107.19 81.0319 116.867 88.125 124.875C96.1272 131.977 105.806 136.924 116.25 139.25C117.264 139.462 118.314 139.419 119.307 139.124C120.299 138.83 121.203 138.293 121.937 137.562L130 129.312L146.187 145.5L133.687 158C112.961 157.466 93.1844 149.195 78.25 134.812C63.8307 119.872 55.535 100.069 55 79.3125L67.5 66.8125ZM155 101.75H167.5C167.662 94.3187 166.318 86.9316 163.548 80.0338C160.779 73.136 156.642 66.8703 151.386 61.6143C146.13 56.3584 139.864 52.221 132.966 49.4516C126.068 46.6821 118.681 45.3379 111.25 45.5V58C117.049 57.7994 122.828 58.7938 128.227 60.9215C133.626 63.0491 138.529 66.2645 142.632 70.3678C146.735 74.471 149.951 79.3744 152.078 84.7732C154.206 90.1719 155.201 95.9506 155 101.75Z" fill="#2854C3"/>
<path d="M111.25 83C124.375 83 130 88.625 130 101.75H142.5C142.5 81.625 131.375 70.5 111.25 70.5V83Z" fill="#2854C3"/>
</svg>
