<svg width="20" height="25" viewBox="0 0 20 25" fill="none" xmlns="http://www.w3.org/2000/svg">
<path fill-rule="evenodd" clip-rule="evenodd" d="M19.1882 19.3683C16.2669 12.303 12.857 10.4409 12.857 6.91724V2.76689H13.5713C13.7607 2.76689 13.9424 2.69402 14.0763 2.56429C14.2103 2.43457 14.2855 2.25863 14.2855 2.07517V0.691724C14.2855 0.508267 14.2103 0.332324 14.0763 0.202601C13.9424 0.0728778 13.7607 0 13.5713 0H6.42871C6.23928 0 6.05761 0.0728778 5.92366 0.202601C5.78971 0.332324 5.71445 0.508267 5.71445 0.691724V2.07517C5.71445 2.25863 5.78971 2.43457 5.92366 2.56429C6.05761 2.69402 6.23928 2.76689 6.42871 2.76689H7.14297V6.91724C7.14297 10.4409 3.7331 12.303 0.81179 19.3683C-0.118174 21.6164 -2.50665 24.9021 10 24.9021C22.5067 24.9021 20.1182 21.6164 19.1882 19.3683ZM16.8783 21.7907C15.8755 22.0812 13.8798 22.4118 10 22.4118C6.12015 22.4118 4.12452 22.0812 3.1217 21.7907C2.766 21.6883 2.62743 21.2885 2.75314 20.9219C3.06742 19.995 3.66025 18.3929 4.76878 16.6041C7.47724 12.2338 10.2871 17.2917 12.6256 17.2917C14.9641 17.2917 14.3227 15.1321 15.2312 16.6041C16.0673 17.9661 16.7434 19.4143 17.2469 20.9219C17.3726 21.2885 17.234 21.6869 16.8783 21.7907Z" fill="#2854C3"/>
</svg>
