<svg width="16" height="16" viewBox="0 0 16 16" fill="none" xmlns="http://www.w3.org/2000/svg">
<path d="M15.7372 13.9304L12.7159 11.0314C13.6907 9.83632 14.2196 8.3605 14.2177 6.8412C14.2177 5.48814 13.8008 4.16546 13.0196 3.04043C12.2385 1.9154 11.1282 1.03855 9.82928 0.520758C8.53031 0.00296416 7.10096 -0.132514 5.72198 0.131455C4.343 0.395424 3.07632 1.04698 2.08213 2.00374C1.08795 2.9605 0.410894 4.17948 0.136598 5.50655C-0.137699 6.83361 0.00308013 8.20914 0.541131 9.45921C1.07918 10.7093 1.99034 11.7777 3.15938 12.5294C4.32843 13.2812 5.70285 13.6824 7.10884 13.6824C8.68759 13.6843 10.2211 13.1753 11.463 12.2372L14.4754 15.1447C14.558 15.2248 14.6563 15.2885 14.7646 15.3319C14.8728 15.3753 14.989 15.3976 15.1063 15.3976C15.2236 15.3976 15.3397 15.3753 15.448 15.3319C15.5563 15.2885 15.6546 15.2248 15.7372 15.1447C15.8205 15.0652 15.8866 14.9706 15.9317 14.8664C15.9768 14.7622 16 14.6504 16 14.5375C16 14.4247 15.9768 14.3129 15.9317 14.2087C15.8866 14.1045 15.8205 14.0099 15.7372 13.9304ZM1.77721 6.8412C1.77721 5.8264 2.08991 4.8344 2.67575 3.99062C3.2616 3.14685 4.09429 2.48921 5.06852 2.10087C6.04274 1.71252 7.11476 1.61091 8.14899 1.80889C9.18323 2.00687 10.1332 2.49554 10.8789 3.21311C11.6245 3.93067 12.1323 4.84491 12.338 5.84021C12.5437 6.83551 12.4382 7.86716 12.0346 8.80471C11.6311 9.74225 10.9477 10.5436 10.0709 11.1074C9.19416 11.6712 8.16334 11.9721 7.10884 11.9721C5.69481 11.9721 4.33869 11.4315 3.33881 10.4693C2.33894 9.50706 1.77721 8.20199 1.77721 6.8412Z" fill="#8C8FA5"/>
</svg>
