<svg width="50" height="50" viewBox="0 0 50 50" fill="none" xmlns="http://www.w3.org/2000/svg">
<path d="M25 4.6875C13.8 4.6875 4.6875 13.8 4.6875 25C4.6875 36.2 13.8 45.3125 25 45.3125C36.2 45.3125 45.3125 36.2 45.3125 25C45.3125 13.8 36.2 4.6875 25 4.6875ZM25 7.8125C34.5109 7.8125 42.1875 15.4891 42.1875 25C42.1875 34.5109 34.5109 42.1875 25 42.1875C15.4891 42.1875 7.8125 34.5109 7.8125 25C7.8125 15.4891 15.4891 7.8125 25 7.8125ZM19.0938 16.8438L16.8438 19.0938L22.7563 25L16.8469 30.9063L19.0969 33.1562L25 27.2453L30.9063 33.1516L33.1562 30.9063L27.2453 25L33.1516 19.0938L30.9063 16.8438L25 22.7563L19.0938 16.8469V16.8438Z" fill="#2854C3"/>
</svg>
