<svg width="25" height="21" viewBox="0 0 25 21" fill="none" xmlns="http://www.w3.org/2000/svg">
<g clip-path="url(#clip0_50_479)">
<path d="M21.875 3.9375C22.2894 3.9375 22.6868 4.07578 22.9799 4.32192C23.2729 4.56806 23.4375 4.9019 23.4375 5.25V15.75C23.4375 16.0981 23.2729 16.4319 22.9799 16.6781C22.6868 16.9242 22.2894 17.0625 21.875 17.0625H3.125C2.7106 17.0625 2.31317 16.9242 2.02015 16.6781C1.72712 16.4319 1.5625 16.0981 1.5625 15.75V5.25C1.5625 4.9019 1.72712 4.56806 2.02015 4.32192C2.31317 4.07578 2.7106 3.9375 3.125 3.9375H21.875ZM3.125 2.625C2.2962 2.625 1.50134 2.90156 0.915291 3.39384C0.32924 3.88613 0 4.55381 0 5.25L0 15.75C0 16.4462 0.32924 17.1139 0.915291 17.6062C1.50134 18.0984 2.2962 18.375 3.125 18.375H21.875C22.7038 18.375 23.4987 18.0984 24.0847 17.6062C24.6708 17.1139 25 16.4462 25 15.75V5.25C25 4.55381 24.6708 3.88613 24.0847 3.39384C23.4987 2.90156 22.7038 2.625 21.875 2.625H3.125Z" fill="white"/>
<path d="M3.125 7.21875C3.125 7.0447 3.20731 6.87778 3.35382 6.75471C3.50034 6.63164 3.69905 6.5625 3.90625 6.5625H7.03125C7.23845 6.5625 7.43716 6.63164 7.58368 6.75471C7.73019 6.87778 7.8125 7.0447 7.8125 7.21875V8.53125C7.8125 8.7053 7.73019 8.87222 7.58368 8.99529C7.43716 9.11836 7.23845 9.1875 7.03125 9.1875H3.90625C3.69905 9.1875 3.50034 9.11836 3.35382 8.99529C3.20731 8.87222 3.125 8.7053 3.125 8.53125V7.21875ZM3.125 11.1562C3.125 10.9822 3.20731 10.8153 3.35382 10.6922C3.50034 10.5691 3.69905 10.5 3.90625 10.5H11.7188C11.926 10.5 12.1247 10.5691 12.2712 10.6922C12.4177 10.8153 12.5 10.9822 12.5 11.1562C12.5 11.3303 12.4177 11.4972 12.2712 11.6203C12.1247 11.7434 11.926 11.8125 11.7188 11.8125H3.90625C3.69905 11.8125 3.50034 11.7434 3.35382 11.6203C3.20731 11.4972 3.125 11.3303 3.125 11.1562ZM3.125 13.7812C3.125 13.6072 3.20731 13.4403 3.35382 13.3172C3.50034 13.1941 3.69905 13.125 3.90625 13.125H5.46875C5.67595 13.125 5.87466 13.1941 6.02118 13.3172C6.16769 13.4403 6.25 13.6072 6.25 13.7812C6.25 13.9553 6.16769 14.1222 6.02118 14.2453C5.87466 14.3684 5.67595 14.4375 5.46875 14.4375H3.90625C3.69905 14.4375 3.50034 14.3684 3.35382 14.2453C3.20731 14.1222 3.125 13.9553 3.125 13.7812ZM7.8125 13.7812C7.8125 13.6072 7.89481 13.4403 8.04132 13.3172C8.18784 13.1941 8.38655 13.125 8.59375 13.125H10.1562C10.3635 13.125 10.5622 13.1941 10.7087 13.3172C10.8552 13.4403 10.9375 13.6072 10.9375 13.7812C10.9375 13.9553 10.8552 14.1222 10.7087 14.2453C10.5622 14.3684 10.3635 14.4375 10.1562 14.4375H8.59375C8.38655 14.4375 8.18784 14.3684 8.04132 14.2453C7.89481 14.1222 7.8125 13.9553 7.8125 13.7812ZM12.5 13.7812C12.5 13.6072 12.5823 13.4403 12.7288 13.3172C12.8753 13.1941 13.074 13.125 13.2812 13.125H14.8438C15.051 13.125 15.2497 13.1941 15.3962 13.3172C15.5427 13.4403 15.625 13.6072 15.625 13.7812C15.625 13.9553 15.5427 14.1222 15.3962 14.2453C15.2497 14.3684 15.051 14.4375 14.8438 14.4375H13.2812C13.074 14.4375 12.8753 14.3684 12.7288 14.2453C12.5823 14.1222 12.5 13.9553 12.5 13.7812ZM17.1875 13.7812C17.1875 13.6072 17.2698 13.4403 17.4163 13.3172C17.5628 13.1941 17.7615 13.125 17.9688 13.125H19.5312C19.7385 13.125 19.9372 13.1941 20.0837 13.3172C20.2302 13.4403 20.3125 13.6072 20.3125 13.7812C20.3125 13.9553 20.2302 14.1222 20.0837 14.2453C19.9372 14.3684 19.7385 14.4375 19.5312 14.4375H17.9688C17.7615 14.4375 17.5628 14.3684 17.4163 14.2453C17.2698 14.1222 17.1875 13.9553 17.1875 13.7812Z" fill="white"/>
</g>
<defs>
<clipPath id="clip0_50_479">
<rect width="25" height="21" fill="white"/>
</clipPath>
</defs>
</svg>
