<svg width="49" height="64" viewBox="0 0 49 64" fill="none" xmlns="http://www.w3.org/2000/svg">
<path d="M48.4267 19.8074C46.0225 7.7749 37.5551 0 26.8539 0H26.8529C26.5131 0 26.169 0.00846025 25.8249 0.0232655C16.4883 0.446274 10.3803 3.21804 6.60521 8.7457C2.95152 14.0925 1.49962 21.914 1.89695 34.1072C1.97151 36.4327 1.50708 39.3599 1.01495 42.4574C-0.0417473 49.1155 -1.13679 56 2.55206 60.2004C4.44708 62.3578 7.33595 63.4513 11.1409 63.4513C12.0176 63.4513 12.9624 63.3942 13.951 63.28C19.0331 62.692 20.9633 60.0661 22.8306 57.527C24.8865 54.731 27.2182 51.5616 34.7589 48.5804C47.1218 43.6904 50.5114 30.2388 48.4267 19.8074ZM33.8183 46.3184C18.5815 52.3431 22.3023 59.8578 13.658 60.8561C12.7505 60.9608 11.9121 61.0105 11.142 61.0105C-3.1884 61.0105 4.71019 43.6904 4.39702 34.0279C3.66415 11.5534 9.38756 3.21169 25.9421 2.46085C26.2478 2.4471 26.5514 2.4397 26.8529 2.4397C48.5343 2.44076 54.3483 38.2008 33.8183 46.3184Z" fill="#2854C3"/>
<path d="M39.7154 36.3978C39.4156 33.1868 38.545 30.0539 37.144 27.1445C35.6889 24.2395 33.6661 21.4476 30.6686 19.4785C29.1836 18.494 27.4218 17.7643 25.5299 17.5084C23.6434 17.2366 21.6802 17.4576 19.9141 18.0371C18.296 18.5765 16.6865 19.285 15.1952 20.2896C13.7082 21.289 12.3564 22.6088 11.353 24.1845C10.3793 25.775 9.77217 27.5802 9.60919 29.3621C9.46493 31.0919 9.64589 32.8333 10.1429 34.4974C10.8512 36.8959 12.0059 39.0818 13.5388 40.9377C12.3159 40.6205 11.092 40.4619 9.86272 40.41L9.73383 40.8299C11.0547 41.6209 12.3617 42.3749 13.4823 43.2199C14.0352 43.6429 14.539 44.0966 14.9108 44.5418C15.2911 44.9923 15.4647 45.447 15.4807 45.7516C15.4892 46.0593 15.3869 46.3174 15.16 46.7055C14.9481 47.0883 14.5902 47.5324 14.1587 47.9671C13.2831 48.8395 12.1955 49.7215 11.0622 50.631C9.92663 51.5859 8.75276 52.4404 7.51285 53.886C7.20287 54.2794 6.85987 54.6813 6.53285 55.4607C6.31518 55.9923 6.24172 56.5714 6.3198 57.14C6.41248 57.8718 6.87265 58.5592 7.27956 58.9071C7.70672 59.2868 8.0348 59.4401 8.39911 59.5977C8.69737 59.7193 8.92959 59.7807 9.15435 59.8473C9.62198 59.9731 10.0971 60.0683 10.5732 60.1318C12.4208 60.3618 14.2967 60.0879 15.9994 59.3397C17.6228 58.6438 18.9554 57.5747 20.1059 56.4421C21.2542 55.2957 22.2011 54.033 23.0682 52.7503C23.9259 51.4676 24.6888 50.1249 25.351 48.7327C26.0082 47.3368 26.6282 45.8848 27.018 44.3017C27.4047 42.7408 27.54 41.0118 27.2428 39.3356C26.6687 35.9304 24.142 32.9334 21.072 31.4074C18.6827 30.1912 15.9355 29.8433 13.461 30.3266C13.7444 28.9328 14.277 27.6606 15.111 26.6062C16.58 24.6583 18.883 23.2232 21.4981 22.1033C22.6581 21.5936 23.8778 21.325 25.1145 21.3821C26.3491 21.4445 27.5954 21.8199 28.765 22.4618C31.1021 23.771 33.0461 26.0055 34.4895 28.4949C35.9574 30.9896 36.9736 33.7921 37.4859 36.6812C38.009 39.5651 38.0356 42.5737 37.2857 45.429C36.5496 48.2717 34.9465 50.9525 32.4847 52.7957L32.7404 53.1585C34.1129 52.3334 35.3237 51.2686 36.3142 50.0155C37.3038 48.7581 38.0633 47.3273 38.6119 45.8288C39.708 42.8201 39.9881 39.5725 39.7154 36.3978ZM15.7193 32.4205C17.0157 32.9196 18.198 33.5499 19.2334 34.3219C21.3394 35.8574 22.6943 37.9397 23.6062 40.2641C23.8501 40.8468 24.0514 41.4602 24.2059 42.0978C24.2985 42.4109 24.3518 42.7535 24.4179 43.0623C24.4743 43.4599 24.5137 43.7095 24.5425 44.0765C24.6447 45.4311 24.4882 46.8641 24.0056 48.1997C23.0565 50.8816 21.0081 53.187 18.5634 54.566C16.3414 55.8192 13.9212 56.4294 11.9005 56.1449C12.5982 55.5421 13.4248 54.8685 14.2109 54.1769C15.3528 53.1511 16.5331 52.0565 17.5621 50.631C18.0724 49.9129 18.5655 49.1166 18.9043 48.1236C19.2377 47.1475 19.3176 45.8563 18.8734 44.7459C18.4441 43.6302 17.6409 42.8815 16.8889 42.3643C16.3584 41.9997 15.7868 41.6981 15.1856 41.4654C14.1534 38.9718 13.46 36.4126 13.2554 33.9401C13.1979 33.1808 13.2022 32.4363 13.2618 31.713C14.1172 31.9023 14.9353 32.1286 15.7193 32.4205Z" fill="#2854C3"/>
</svg>
