<svg width="30" height="30" viewBox="0 0 30 30" fill="none" xmlns="http://www.w3.org/2000/svg">
<path d="M23.4375 30C21.6211 30 20.0732 29.3604 18.7939 28.0811C17.5146 26.8018 16.875 25.2539 16.875 23.4375C16.875 21.6211 17.5146 20.0732 18.7939 18.7939C20.0732 17.5146 21.6211 16.875 23.4375 16.875C25.2539 16.875 26.8018 17.5146 28.0811 18.7939C29.3604 20.0732 30 21.6211 30 23.4375C30 25.2539 29.3604 26.8018 28.0811 28.0811C26.8018 29.3604 25.2539 30 23.4375 30ZM27.1875 22.5H24.375V19.6875C24.375 19.4336 24.2822 19.2139 24.0967 19.0283C23.9111 18.8428 23.6914 18.75 23.4375 18.75C23.1836 18.75 22.9639 18.8428 22.7783 19.0283C22.5928 19.2139 22.5 19.4336 22.5 19.6875V23.4375C22.5 23.6719 22.5732 23.8721 22.7197 24.0381C22.8662 24.2041 23.0469 24.3066 23.2617 24.3457C23.3008 24.3652 23.3594 24.375 23.4375 24.375H27.1875C27.4414 24.375 27.6611 24.2822 27.8467 24.0967C28.0322 23.9111 28.125 23.6914 28.125 23.4375C28.125 23.1836 28.0322 22.9639 27.8467 22.7783C27.6611 22.5928 27.4414 22.5 27.1875 22.5ZM14.0625 24.375H8.4375C8.18359 24.375 7.96387 24.2822 7.77832 24.0967C7.59277 23.9111 7.5 23.6914 7.5 23.4375C7.5 23.1836 7.59277 22.9639 7.77832 22.7783C7.96387 22.5928 8.18359 22.5 8.4375 22.5H14.0625C14.3164 22.5 14.5361 22.5928 14.7217 22.7783C14.9072 22.9639 15 23.1836 15 23.4375C15 23.6914 14.9072 23.9111 14.7217 24.0967C14.5361 24.2822 14.3164 24.375 14.0625 24.375ZM8.4375 18.75H14.0625C14.3164 18.75 14.5361 18.8428 14.7217 19.0283C14.9072 19.2139 15 19.4336 15 19.6875C15 19.9414 14.9072 20.1611 14.7217 20.3467C14.5361 20.5322 14.3164 20.625 14.0625 20.625H8.4375C8.18359 20.625 7.96387 20.5322 7.77832 20.3467C7.59277 20.1611 7.5 19.9414 7.5 19.6875C7.5 19.4336 7.59277 19.2139 7.77832 19.0283C7.96387 18.8428 8.18359 18.75 8.4375 18.75ZM17.8125 16.875H8.4375C8.18359 16.875 7.96387 16.7822 7.77832 16.5967C7.59277 16.4111 7.5 16.1914 7.5 15.9375C7.5 15.6836 7.59277 15.4639 7.77832 15.2783C7.96387 15.0928 8.18359 15 8.4375 15H17.8125C18.0664 15 18.2861 15.0928 18.4717 15.2783C18.6572 15.4639 18.75 15.6836 18.75 15.9375C18.75 16.1914 18.6572 16.4111 18.4717 16.5967C18.2861 16.7822 18.0664 16.875 17.8125 16.875ZM21.5625 13.125H8.4375C8.18359 13.125 7.96387 13.0322 7.77832 12.8467C7.59277 12.6611 7.5 12.4414 7.5 12.1875C7.5 11.9336 7.59277 11.7139 7.77832 11.5283C7.96387 11.3428 8.18359 11.25 8.4375 11.25H21.5625C21.8164 11.25 22.0361 11.3428 22.2217 11.5283C22.4072 11.7139 22.5 11.9336 22.5 12.1875C22.5 12.4414 22.4072 12.6611 22.2217 12.8467C22.0361 13.0322 21.8164 13.125 21.5625 13.125ZM21.5625 5.625H8.4375C8.18359 5.625 7.96387 5.53223 7.77832 5.34668C7.59277 5.16113 7.5 4.94141 7.5 4.6875C7.5 4.43359 7.59277 4.21387 7.77832 4.02832C7.96387 3.84277 8.18359 3.75 8.4375 3.75H21.5625C21.8164 3.75 22.0361 3.84277 22.2217 4.02832C22.4072 4.21387 22.5 4.43359 22.5 4.6875C22.5 4.94141 22.4072 5.16113 22.2217 5.34668C22.0361 5.53223 21.8164 5.625 21.5625 5.625ZM21.5625 9.375H8.4375C8.18359 9.375 7.96387 9.28223 7.77832 9.09668C7.59277 8.91113 7.5 8.69141 7.5 8.4375C7.5 8.18359 7.59277 7.96387 7.77832 7.77832C7.96387 7.59277 8.18359 7.5 8.4375 7.5H21.5625C21.8164 7.5 22.0361 7.59277 22.2217 7.77832C22.4072 7.96387 22.5 8.18359 22.5 8.4375C22.5 8.69141 22.4072 8.91113 22.2217 9.09668C22.0361 9.28223 21.8164 9.375 21.5625 9.375ZM24.375 2.8125C24.375 2.55859 24.2822 2.33887 24.0967 2.15332C23.9111 1.96777 23.6914 1.875 23.4375 1.875H4.6875C4.43359 1.875 4.21387 1.96777 4.02832 2.15332C3.84277 2.33887 3.75 2.55859 3.75 2.8125V3.75C4.27734 3.75 4.72168 3.93066 5.08301 4.29199C5.44434 4.65332 5.625 5.09766 5.625 5.625C5.625 6.15234 5.44434 6.59668 5.08301 6.95801C4.72168 7.31934 4.27734 7.5 3.75 7.5V9.375C4.27734 9.375 4.72168 9.55566 5.08301 9.91699C5.44434 10.2783 5.625 10.7227 5.625 11.25C5.625 11.7773 5.44434 12.2217 5.08301 12.583C4.72168 12.9443 4.27734 13.125 3.75 13.125V15C4.27734 15 4.72168 15.1807 5.08301 15.542C5.44434 15.9033 5.625 16.3428 5.625 16.8604C5.625 17.3779 5.44434 17.8223 5.08301 18.1934C4.72168 18.5645 4.27734 18.75 3.75 18.75V20.625C4.27734 20.625 4.72168 20.8057 5.08301 21.167C5.44434 21.5283 5.625 21.9678 5.625 22.4854C5.625 23.0029 5.44434 23.4473 5.08301 23.8184C4.72168 24.1895 4.27734 24.375 3.75 24.375V25.3125C3.75 25.5664 3.84277 25.7861 4.02832 25.9717C4.21387 26.1572 4.43359 26.25 4.6875 26.25H16.875V28.125H3.75C3.24219 28.125 2.80273 27.9395 2.43164 27.5684C2.06055 27.1973 1.875 26.7578 1.875 26.25V24.375C1.36719 24.375 0.927734 24.1895 0.556641 23.8184C0.185547 23.4473 0 23.0029 0 22.4854C0 21.9678 0.185547 21.5283 0.556641 21.167C0.927734 20.8057 1.36719 20.625 1.875 20.625V18.75C1.36719 18.75 0.927734 18.5645 0.556641 18.1934C0.185547 17.8223 0 17.3779 0 16.8604C0 16.3428 0.185547 15.9033 0.556641 15.542C0.927734 15.1807 1.36719 15 1.875 15V13.125C1.36719 13.125 0.927734 12.9443 0.556641 12.583C0.185547 12.2217 0 11.7773 0 11.25C0 10.7227 0.185547 10.2783 0.556641 9.91699C0.927734 9.55566 1.36719 9.375 1.875 9.375V7.5C1.36719 7.5 0.927734 7.31934 0.556641 6.95801C0.185547 6.59668 0 6.15234 0 5.625C0 5.09766 0.185547 4.65332 0.556641 4.29199C0.927734 3.93066 1.36719 3.75 1.875 3.75V1.875C1.875 1.34766 2.06055 0.90332 2.43164 0.541992C2.80273 0.180664 3.24219 0 3.75 0H24.375C24.8828 0 25.3223 0.180664 25.6934 0.541992C26.0645 0.90332 26.25 1.34766 26.25 1.875V15H24.375V2.8125Z" fill="#2854C3"/>
</svg>
