<svg width="35" height="35" viewBox="0 0 35 35" fill="none" xmlns="http://www.w3.org/2000/svg">
<path d="M28.4375 13.125H21.875V6.5625C21.8741 5.69252 21.5282 4.85843 20.913 4.24327C20.2978 3.6281 19.4637 3.28212 18.5938 3.28125H16.2608C15.7349 3.28348 15.2272 3.47418 14.8298 3.81875C14.4325 4.16331 14.1718 4.6389 14.0952 5.15922L13.1709 11.6309L9.25859 17.5H2.1875V32.8125H25.1562C27.1861 32.8102 29.1322 32.0028 30.5675 30.5675C32.0028 29.1322 32.8102 27.1861 32.8125 25.1562V17.5C32.8111 16.3401 32.3497 15.2282 31.5295 14.408C30.7093 13.5878 29.5974 13.1264 28.4375 13.125ZM8.75 30.625H4.375V19.6875H8.75V30.625ZM30.625 25.1562C30.6233 26.6061 30.0465 27.9961 29.0213 29.0213C27.9961 30.0465 26.6061 30.6233 25.1562 30.625H10.9375V18.9252L15.2666 12.4316L16.2619 5.46875H18.5938C18.8838 5.46875 19.162 5.58398 19.3671 5.7891C19.5723 5.99422 19.6875 6.27242 19.6875 6.5625V15.3125H28.4375C29.0175 15.3131 29.5735 15.5437 29.9837 15.9538C30.3938 16.364 30.6244 16.92 30.625 17.5V25.1562Z" fill="white"/>
</svg>
