<svg width="33" height="33" viewBox="0 0 33 33" fill="none" xmlns="http://www.w3.org/2000/svg">
<path fill-rule="evenodd" clip-rule="evenodd" d="M27.1127 24.7499C23.7385 16.3234 19.7999 14.1025 19.7999 9.8999V4.9499H20.6249C20.8437 4.9499 21.0536 4.86298 21.2083 4.70827C21.363 4.55355 21.4499 4.34371 21.4499 4.1249V2.4749C21.4499 2.2561 21.363 2.04626 21.2083 1.89154C21.0536 1.73682 20.8437 1.6499 20.6249 1.6499H12.3749C12.1561 1.6499 11.9463 1.73682 11.7916 1.89154C11.6368 2.04626 11.5499 2.2561 11.5499 2.4749V4.1249C11.5499 4.34371 11.6368 4.55355 11.7916 4.70827C11.9463 4.86298 12.1561 4.9499 12.3749 4.9499H13.1999V9.8999C13.1999 14.1025 9.26137 16.3234 5.88712 24.7499C4.81297 27.4312 2.05417 31.3499 16.4999 31.3499C30.9457 31.3499 28.1869 27.4312 27.1127 24.7499ZM24.4447 27.6391C23.2864 27.9856 20.9813 28.3799 16.4999 28.3799C12.0185 28.3799 9.71347 27.9856 8.55517 27.6391C8.14432 27.517 7.98427 27.0401 8.12947 26.6029C8.49247 25.4974 9.17722 23.5867 10.4576 21.4532C13.586 16.2409 16.8316 22.2733 19.5326 22.2733C22.2337 22.2733 21.4928 19.6976 22.5422 21.4532C23.5079 23.0775 24.2888 24.8048 24.8704 26.6029C25.0156 27.0401 24.8555 27.5153 24.4447 27.6391Z" fill="#2854C3"/>
</svg>
