<svg width="25" height="25" viewBox="0 0 25 25" fill="none" xmlns="http://www.w3.org/2000/svg">
<g clip-path="url(#clip0_1_2948)">
<path fill-rule="evenodd" clip-rule="evenodd" d="M12.5416 21.0041C17.74 21.0041 21.9542 16.9914 21.9542 12.0416C21.9542 7.09181 17.74 3.07909 12.5416 3.07909C7.34329 3.07909 3.12909 7.09181 3.12909 12.0416C3.12909 16.9914 7.34329 21.0041 12.5416 21.0041ZM12.5416 22C18.3178 22 23 17.5416 23 12.0416C23 6.54161 18.3178 2.08325 12.5416 2.08325C6.76547 2.08325 2.08325 6.54161 2.08325 12.0416C2.08325 17.5416 6.76547 22 12.5416 22Z" fill="#2854C3"/>
<path d="M6.2666 17.8324C6.2666 17.318 6.67029 16.8833 7.20786 16.8266C11.2422 16.4013 13.8594 16.4397 17.8848 16.836C18.0858 16.8561 18.2763 16.9315 18.4331 17.053C18.5898 17.1745 18.706 17.3369 18.7675 17.5202C18.8289 17.7036 18.833 17.9 18.7791 18.0855C18.7253 18.271 18.6158 18.4375 18.4642 18.5648C13.7135 22.5078 10.9985 22.4535 6.60127 18.5688C6.38687 18.3796 6.2666 18.1107 6.2666 17.8329V17.8324Z" fill="#2854C3"/>
<path fill-rule="evenodd" clip-rule="evenodd" d="M17.8309 17.3311C13.8374 16.9377 11.2578 16.9009 7.26483 17.3216C7.13339 17.3362 7.01222 17.3964 6.92451 17.4908C6.83681 17.5851 6.78873 17.707 6.78949 17.833C6.78949 17.9754 6.85172 18.1103 6.95683 18.2039C9.13635 20.1289 10.7877 20.9987 12.402 21.0042C14.022 21.0097 15.7623 20.1468 18.1206 18.19C18.1955 18.1265 18.2495 18.0436 18.2759 17.9515C18.3023 17.8593 18.3 17.7619 18.2693 17.671C18.2386 17.58 18.1808 17.4996 18.103 17.4393C18.0252 17.3791 17.9307 17.3416 17.8309 17.3316V17.3311ZM7.15031 16.3318C11.227 15.9021 13.8824 15.9409 17.9392 16.3407C18.2416 16.3708 18.5282 16.4841 18.764 16.6669C18.9998 16.8497 19.1745 17.094 19.2667 17.3699C19.3589 17.6457 19.3647 17.9412 19.2833 18.2201C19.2018 18.4991 19.0368 18.7494 18.8083 18.9403C16.4159 20.926 14.4236 22.0075 12.3988 22C10.3683 21.9931 8.46388 20.8932 6.24618 18.9339C6.0874 18.793 5.96082 18.6226 5.87436 18.433C5.78789 18.2435 5.7434 18.0391 5.74366 17.8325C5.74289 17.4612 5.886 17.1028 6.14555 16.8258C6.40511 16.5488 6.76287 16.3727 7.15031 16.3313V16.3318Z" fill="#2854C3"/>
<path d="M16.7251 10.05C16.7251 11.1064 16.2844 12.1196 15.4998 12.8666C14.7153 13.6137 13.6512 14.0333 12.5417 14.0333C11.4323 14.0333 10.3682 13.6137 9.58367 12.8666C8.79914 12.1196 8.3584 11.1064 8.3584 10.05C8.3584 8.99354 8.79914 7.98037 9.58367 7.23334C10.3682 6.48632 11.4323 6.06665 12.5417 6.06665C13.6512 6.06665 14.7153 6.48632 15.4998 7.23334C16.2844 7.98037 16.7251 8.99354 16.7251 10.05Z" fill="#2854C3"/>
<path fill-rule="evenodd" clip-rule="evenodd" d="M12.5417 13.0375C13.3739 13.0375 14.1719 12.7227 14.7603 12.1625C15.3487 11.6022 15.6793 10.8423 15.6793 10.05C15.6793 9.25766 15.3487 8.49777 14.7603 7.93751C14.1719 7.37724 13.3739 7.06249 12.5417 7.06249C11.7096 7.06249 10.9116 7.37724 10.3232 7.93751C9.73479 8.49777 9.40424 9.25766 9.40424 10.05C9.40424 10.8423 9.73479 11.6022 10.3232 12.1625C10.9116 12.7227 11.7096 13.0375 12.5417 13.0375ZM12.5417 14.0333C13.6512 14.0333 14.7153 13.6137 15.4998 12.8666C16.2844 12.1196 16.7251 11.1064 16.7251 10.05C16.7251 8.99354 16.2844 7.98037 15.4998 7.23334C14.7153 6.48632 13.6512 6.06665 12.5417 6.06665C11.4323 6.06665 10.3682 6.48632 9.58367 7.23334C8.79914 7.98037 8.3584 8.99354 8.3584 10.05C8.3584 11.1064 8.79914 12.1196 9.58367 12.8666C10.3682 13.6137 11.4323 14.0333 12.5417 14.0333Z" fill="#2854C3"/>
<g clip-path="url(#clip1_1_2948)">
<path d="M19.5901 22.375L20.4417 22.0317C20.6189 22.1669 20.8127 22.2789 21.0184 22.365L21.1467 23.27C21.1524 23.3101 21.1724 23.3467 21.2031 23.3731C21.2337 23.3994 21.273 23.4137 21.3134 23.4133H22.6801C22.7205 23.4137 22.7597 23.3994 22.7904 23.3731C22.821 23.3467 22.8411 23.3101 22.8467 23.27L22.9751 22.365C23.181 22.2795 23.3748 22.1674 23.5517 22.0317L24.4034 22.375C24.4411 22.3903 24.4831 22.3913 24.5215 22.3778C24.5598 22.3643 24.5919 22.3372 24.6117 22.3017L25.2951 21.1167C25.3162 21.0815 25.3236 21.0398 25.3159 20.9996C25.3082 20.9593 25.286 20.9232 25.2534 20.8983L24.5384 20.3333C24.5529 20.2228 24.5607 20.1115 24.5617 20C24.5607 19.8885 24.5529 19.7772 24.5384 19.6667L25.2601 19.1017M24.4101 17.625L23.5584 17.9683C23.3812 17.8331 23.1874 17.7211 22.9817 17.635L22.8534 16.73C22.8477 16.69 22.8277 16.6533 22.797 16.627C22.7664 16.6006 22.7272 16.5863 22.6867 16.5867H21.3167C21.2763 16.5863 21.2371 16.6006 21.2064 16.627C21.1757 16.6533 21.1557 16.69 21.1501 16.73L21.0217 17.635C20.8158 17.7205 20.6219 17.8326 20.4451 17.9683L19.5901 17.625C19.5524 17.6097 19.5104 17.6087 19.472 17.6222C19.4336 17.6357 19.4015 17.6628 19.3817 17.6983L18.6984 18.8833C18.6773 18.9185 18.6698 18.9602 18.6775 19.0005C18.6852 19.0408 18.7075 19.0768 18.7401 19.1017L19.4601 19.6667C19.4456 19.7772 19.4378 19.8885 19.4367 20C19.4377 20.1115 19.4455 20.2228 19.4601 20.3333L18.7401 20.8983M22.0001 21.1967C21.7634 21.197 21.5319 21.1271 21.3349 20.9959C21.138 20.8647 20.9843 20.678 20.8935 20.4595C20.8026 20.241 20.7785 20.0004 20.8244 19.7682C20.8702 19.536 20.9839 19.3226 21.151 19.155C21.3182 18.9874 21.5312 18.8732 21.7633 18.8267C21.9954 18.7802 22.236 18.8035 22.4548 18.8938C22.6736 18.9841 22.8607 19.1372 22.9925 19.3338C23.1242 19.5304 23.1947 19.7617 23.1951 19.9983V20C23.1953 20.1569 23.1646 20.3124 23.1047 20.4574C23.0449 20.6025 22.957 20.7344 22.8462 20.8455C22.7354 20.9566 22.6038 21.0448 22.4589 21.1051C22.314 21.1653 22.1587 21.1965 22.0017 21.1967H22.0001Z" stroke="#2854C3" stroke-width="0.416667" stroke-linecap="round" stroke-linejoin="round"/>
</g>
</g>
<defs>
<clipPath id="clip0_1_2948">
<rect width="25" height="25" fill="white"/>
</clipPath>
<clipPath id="clip1_1_2948">
<rect width="8" height="8" fill="white" transform="translate(18 16)"/>
</clipPath>
</defs>
</svg>
