<svg width="35" height="35" viewBox="0 0 35 35" fill="none" xmlns="http://www.w3.org/2000/svg">
<path d="M31.1667 8.75033H26.7917V5.83366C26.7917 4.22512 25.4836 2.91699 23.8751 2.91699H15.1251C13.5165 2.91699 12.2084 4.22512 12.2084 5.83366V8.75033H7.83341C6.22487 8.75033 4.91675 10.0585 4.91675 11.667V27.7087C4.91675 29.3172 6.22487 30.6253 7.83341 30.6253H31.1667C32.7753 30.6253 34.0834 29.3172 34.0834 27.7087V11.667C34.0834 10.0585 32.7753 8.75033 31.1667 8.75033ZM23.8751 5.83366V8.75033H15.1251V5.83366H23.8751ZM13.6667 11.667H31.1667V16.042H7.83341V11.667H13.6667ZM7.83341 27.7087V18.9587H16.5834V21.8753H22.4167V18.9587H31.1667L31.1682 27.7087H7.83341Z" fill="white"/>
</svg>
