<svg width="36" height="29" viewBox="0 0 36 29" fill="none" xmlns="http://www.w3.org/2000/svg">
<path d="M31.3606 1.01163H4.38375C2.52138 1.01163 1.01163 2.52138 1.01163 4.38375V24.6164C1.01163 26.4788 2.52138 27.9885 4.38375 27.9885H31.3606C33.223 27.9885 34.7328 26.4788 34.7328 24.6164V4.38375C34.7328 2.52138 33.223 1.01163 31.3606 1.01163Z" stroke="#2854C3" stroke-width="2" stroke-linecap="round" stroke-linejoin="round"/>
<path d="M18.8839 12.1667C18.4441 11.6337 17.8925 11.2039 17.268 10.9078C16.6436 10.6118 15.9617 10.4568 15.2707 10.4537C12.6117 10.4537 10.4536 12.7181 10.4536 15.5119C10.4536 18.3057 12.6117 20.57 15.2707 20.57C16.7105 20.57 18.0021 19.9074 18.8839 18.857M27.3141 15.5119C27.3141 18.3057 25.156 20.57 22.4971 20.57C19.8365 20.57 17.68 18.3057 17.68 15.5119C17.68 12.7181 19.8365 10.4537 22.4971 10.4537C25.156 10.4537 27.3141 12.7181 27.3141 15.5119Z" stroke="#2854C3" stroke-width="2" stroke-linecap="round" stroke-linejoin="round"/>
</svg>
