<svg width="36" height="36" viewBox="0 0 36 36" fill="none" xmlns="http://www.w3.org/2000/svg">
<path d="M19.6875 18C19.6875 18.4476 19.5098 18.8768 19.1933 19.1932C18.8768 19.5097 18.4476 19.6875 18 19.6875C17.5525 19.6875 17.1233 19.5097 16.8068 19.1932C16.4903 18.8768 16.3125 18.4476 16.3125 18C16.3125 17.5524 16.4903 17.1232 16.8068 16.8068C17.1233 16.4903 17.5525 16.3125 18 16.3125C18.4476 16.3125 18.8768 16.4903 19.1933 16.8068C19.5098 17.1232 19.6875 17.5524 19.6875 18ZM12.6563 18C12.6563 18.4476 12.4785 18.8768 12.162 19.1932C11.8456 19.5097 11.4163 19.6875 10.9688 19.6875C10.5212 19.6875 10.092 19.5097 9.77555 19.1932C9.45909 18.8768 9.2813 18.4476 9.2813 18C9.2813 17.5524 9.45909 17.1232 9.77555 16.8068C10.092 16.4903 10.5212 16.3125 10.9688 16.3125C11.4163 16.3125 11.8456 16.4903 12.162 16.8068C12.4785 17.1232 12.6563 17.5524 12.6563 18ZM26.7188 18C26.7188 18.4476 26.541 18.8768 26.2245 19.1932C25.9081 19.5097 25.4788 19.6875 25.0313 19.6875C24.5837 19.6875 24.1545 19.5097 23.8381 19.1932C23.5216 18.8768 23.3438 18.4476 23.3438 18C23.3438 17.5524 23.5216 17.1232 23.8381 16.8068C24.1545 16.4903 24.5837 16.3125 25.0313 16.3125C25.4788 16.3125 25.9081 16.4903 26.2245 16.8068C26.541 17.1232 26.7188 17.5524 26.7188 18ZM3.47348 11.8969C4.26802 10.009 5.40708 8.31445 6.85903 6.85898C8.30083 5.41194 10.0124 4.26172 11.8969 3.47344C13.8305 2.66133 15.8836 2.25 18 2.25H18.0704C20.2008 2.26055 22.2645 2.68242 24.2051 3.51211C26.0735 4.30847 27.769 5.46074 29.1973 6.90469C30.6352 8.35664 31.7637 10.0441 32.5442 11.925C33.3528 13.8727 33.7606 15.9434 33.75 18.0738C33.7381 20.5153 33.1605 22.9208 32.0625 25.1016V30.4453C32.0625 30.8742 31.8922 31.2856 31.5889 31.5888C31.2856 31.8921 30.8743 32.0625 30.4454 32.0625H25.0981C22.9174 33.1605 20.5119 33.7381 18.0704 33.75H17.9965C15.8907 33.75 13.8481 33.3422 11.925 32.5441C10.0501 31.7653 8.34485 30.6284 6.90474 29.1973C5.45278 27.7594 4.31021 26.0789 3.51216 24.2051C2.68247 22.2645 2.2606 20.2008 2.25005 18.0703C2.2395 15.9293 2.65434 13.8516 3.47348 11.8969ZM8.78559 27.2953C11.25 29.7352 14.5196 31.0781 18 31.0781H18.0598C20.1797 31.0676 22.2856 30.5402 24.1454 29.5488L24.4407 29.3906H29.3907V24.4406L29.5489 24.1453C30.5403 22.2855 31.0676 20.1797 31.0782 18.0598C31.0922 14.5547 29.7528 11.2641 27.2954 8.78555C24.8415 6.30703 21.5614 4.93594 18.0563 4.92188H17.9965C16.2387 4.92188 14.5336 5.26289 12.927 5.93789C11.359 6.59531 9.95278 7.54102 8.74341 8.75039C7.53755 9.95625 6.58833 11.366 5.93091 12.934C5.24888 14.5582 4.90786 16.2809 4.91489 18.0598C4.93599 21.5613 6.31059 24.8414 8.78559 27.2953Z" fill="black"/>
</svg>
