<svg width="16" height="14" viewBox="0 0 16 14" fill="none" xmlns="http://www.w3.org/2000/svg">
<g opacity="0.7">
<path d="M2.16793 10.255L2.89917 9.545C2.09849 8.84207 1.4694 7.97237 1.05829 7.00005C2.09634 4.46509 4.95993 2.50012 7.67011 2.50012C8.36754 2.50912 9.05866 2.63076 9.71553 2.86012L10.5081 2.08013C9.6095 1.7088 8.64562 1.51181 7.67011 1.50014C6.00335 1.56143 4.3915 2.09891 3.03375 3.04616C1.67601 3.99341 0.631899 5.3089 0.0304638 6.83005C-0.0101546 6.9399 -0.0101546 7.06019 0.0304638 7.17004C0.484673 8.34853 1.21703 9.40552 2.16793 10.255Z" fill="#8C8FA5"/>
<path d="M5.62481 6.86492C5.66037 6.38579 5.87112 5.93518 6.21853 5.59549C6.56595 5.25579 7.0268 5.04972 7.51682 5.01495L8.44237 4.10497C7.92374 3.97144 7.37837 3.97318 6.86063 4.11C6.34289 4.24682 5.87088 4.51395 5.49165 4.88475C5.11242 5.25556 4.83922 5.71708 4.69929 6.22331C4.55936 6.72954 4.55758 7.2628 4.69414 7.76991L5.62481 6.86492Z" fill="#8C8FA5"/>
<path d="M15.3098 6.82988C14.7235 5.33651 13.7032 4.04344 12.3747 3.10995L14.8292 0.704988L14.1082 0L0.511233 13.2948L1.23224 13.9998L3.84015 11.4498C5.00291 12.1168 6.32229 12.4785 7.6702 12.4998C9.33695 12.4385 10.9488 11.901 12.3066 10.9538C13.6643 10.0065 14.7084 8.69103 15.3098 7.16988C15.3505 7.06003 15.3505 6.93974 15.3098 6.82988ZM9.71562 6.99988C9.71347 7.34993 9.61739 7.69329 9.43699 7.99565C9.25658 8.29801 8.99818 8.54877 8.6876 8.72288C8.37702 8.89699 8.02514 8.98835 7.66713 8.98782C7.30912 8.98728 6.95753 8.89488 6.64749 8.71985L9.42926 5.9999C9.6131 6.30276 9.71188 6.64772 9.71562 6.99988ZM7.6702 11.4998C6.59741 11.4815 5.54496 11.2105 4.60207 10.7098L5.90091 9.43984C6.4917 9.84066 7.2077 10.0258 7.9239 9.96307C8.6401 9.90029 9.311 9.59355 9.81946 9.09638C10.3279 8.59922 10.6416 7.94323 10.7058 7.24294C10.77 6.54266 10.5806 5.84257 10.1707 5.26491L11.6383 3.82994C12.8117 4.61741 13.7292 5.71762 14.282 6.99988C13.244 9.53484 10.3804 11.4998 7.6702 11.4998Z" fill="#8C8FA5"/>
</g>
</svg>
