<svg width="18" height="19" viewBox="0 0 18 19" fill="none" xmlns="http://www.w3.org/2000/svg">
<path d="M17.8348 7.77081H9.18318V11.447H14.1256C13.9125 12.6353 13.2659 13.6404 12.2913 14.3137C11.4676 14.8831 10.4164 15.2198 9.18079 15.2198C6.78861 15.2198 4.7652 13.5488 4.04204 11.3035C3.86005 10.7341 3.75469 10.1251 3.75469 9.49876C3.75469 8.87244 3.86005 8.26345 4.04204 7.69407C4.76759 5.4512 6.79101 3.7802 9.18318 3.7802C10.5313 3.7802 11.7406 4.26046 12.6936 5.20117L15.3277 2.47557C13.7353 0.940717 11.6592 0 9.18318 0C5.59372 0 2.48796 2.12899 0.976986 5.23335C0.354397 6.5157 0 7.96638 0 9.50124C0 11.0361 0.354397 12.4843 0.976986 13.7666C2.48796 16.871 5.59372 19 9.18318 19C11.664 19 13.7424 18.1484 15.2606 16.6977C16.9967 15.044 18 12.6081 18 9.71414C18 9.04078 17.9425 8.39466 17.8348 7.77081Z" fill="white"/>
</svg>
