<svg width="35" height="33" viewBox="0 0 35 33" fill="none" xmlns="http://www.w3.org/2000/svg">
<rect width="33" height="33" rx="7" fill="white"/>
<g clip-path="url(#clip0_50_466)">
<path d="M16.6851 3C22.3817 3 27 6.31915 27 10.414C27 14.5088 22.3831 17 16.6851 17C11.2744 16.9052 7.44147 15.4263 5.1863 12.5632C5.10542 12.4584 5.04924 12.3407 5.021 12.217C4.99275 12.0932 4.99301 11.9658 5.02174 11.8422C6.31099 6.25625 10.1988 3.30887 16.6851 3ZM16.3005 7.61209C13.025 7.90006 11.0207 9.25338 10.2875 11.6721C11.2865 12.4365 13.291 12.8607 16.3012 12.9447C19.3247 12.904 21.1569 12.1383 21.1924 10.36C21.0044 8.39529 18.8036 7.53778 16.3005 7.61209Z" stroke="#2854C3" stroke-linejoin="round"/>
<path d="M5.02709 15C6.67332 19.2425 11.2132 21.6035 15.8807 21.6035C19.7519 21.6035 22.3171 20.099 23.6622 17.8276L28 20.2688C26.488 23.591 22.0055 26 16.7104 26C10.1743 26 4.57741 22.0426 5.02514 15.1633C5.02514 15.1083 5.02579 15.0539 5.02709 15V15Z" stroke="#2854C3" stroke-linejoin="round"/>
</g>
<defs>
<clipPath id="clip0_50_466">
<rect width="34" height="31" fill="white" transform="translate(1)"/>
</clipPath>
</defs>
</svg>
