<svg width="40" height="40" viewBox="0 0 40 40" fill="none" xmlns="http://www.w3.org/2000/svg">
<path d="M34.9979 5.56461H10.7043L10.47 4.59687C10.2096 3.36031 9.62376 2.35224 8.71243 1.57268C7.80109 0.793105 6.72051 0.40332 5.47068 0.40332H1.64309C1.1744 0.40332 0.783828 0.564611 0.471371 0.887191C0.158914 1.20977 0.00268555 1.63988 0.00268555 2.17751C0.00268555 2.66138 0.158914 3.06461 0.471371 3.38719C0.783828 3.70977 1.1744 3.87106 1.64309 3.87106H5.47068C6.46013 3.87106 7.03297 4.32805 7.1892 5.24203L11.0168 25.8872C11.3293 27.0162 11.9411 27.9302 12.8525 28.6291C13.7638 29.3281 14.7663 29.6775 15.8599 29.6775H31.639C32.1597 29.6775 32.5763 29.5162 32.8888 29.1936C33.2012 28.8711 33.3575 28.4678 33.3575 27.984C33.3575 26.8012 32.7846 26.2098 31.639 26.2098H15.8599C15.1308 26.2098 14.6101 25.8872 14.2976 25.242L14.1414 24.5162H30.8578C31.8993 24.5162 32.8497 24.1936 33.709 23.5485C34.5682 22.9033 35.1541 22.07 35.4666 21.0485L39.9972 11.1291V10.7259C39.9972 9.27429 39.5155 8.05117 38.5521 7.05655C37.5887 6.06192 36.4039 5.56461 34.9979 5.56461ZM15.0006 21.0485H13.5165L11.3293 9.03235H15.0006V21.0485ZM21.6403 21.0485H18.3595V9.03235H21.6403V21.0485ZM28.3582 21.0485H24.9993V9.03235H28.3582V21.0485ZM32.4982 19.6775V19.8388C32.342 20.3764 32.0556 20.7259 31.639 20.8872V9.03235H34.9979C35.9352 9.03235 36.482 9.48934 36.6383 10.4033L32.4982 19.6775ZM19.9999 34.8388C19.9999 35.8065 19.6745 36.6264 19.0235 37.2985C18.3726 37.9705 17.5784 38.3065 16.641 38.3065C15.7557 38.3065 14.9876 37.9705 14.3367 37.2985C13.6857 36.6264 13.3602 35.8065 13.3602 34.8388C13.3602 33.8711 13.6857 33.0512 14.3367 32.3791C14.9876 31.7071 15.7557 31.3711 16.641 31.3711C17.5784 31.3711 18.3726 31.7071 19.0235 32.3791C19.6745 33.0512 19.9999 33.8711 19.9999 34.8388ZM33.3575 34.8388C33.3575 35.8065 33.032 36.6264 32.381 37.2985C31.7301 37.9705 30.9359 38.3065 29.9986 38.3065C29.0612 38.3065 28.267 37.9705 27.6161 37.2985C26.9651 36.6264 26.6397 35.8065 26.6397 34.8388C26.6397 33.8711 26.9651 33.0512 27.6161 32.3791C28.267 31.7071 29.0612 31.3711 29.9986 31.3711C30.9359 31.3711 31.7301 31.7071 32.381 32.3791C33.032 33.0512 33.3575 33.8711 33.3575 34.8388Z" fill="white"/>
</svg>
