<svg width="31" height="30" viewBox="0 0 31 30" fill="none" xmlns="http://www.w3.org/2000/svg">
<path d="M12.9418 0C11.1108 0.0308457 9.45692 1.12292 8.70874 2.81155L17.6671 5.51745C18.0609 3.16858 16.6499 0.891244 14.3791 0.200169C13.9722 0.0767861 13.5456 0.00918809 13.119 0H12.9418ZM8.36747 3.943C7.96713 6.29843 9.37816 8.58233 11.6555 9.27144C13.9394 9.96054 16.3742 8.83172 17.3324 6.64627L8.36747 3.943ZM25.792 6.84972C24.1316 6.85628 22.3662 7.65696 21.0339 9.54052L12.8434 21.1503C10.6448 24.2611 11.603 27.5164 13.7688 29.0521C15.9411 30.5944 19.321 30.4172 21.5196 27.3063L29.7035 15.7031C31.9021 12.5857 30.9439 9.33707 28.7782 7.79478C27.9643 7.21724 26.9865 6.88253 25.9561 6.84972H25.792ZM25.6739 7.9851C25.7592 7.9851 25.8445 7.9851 25.9233 7.99167C26.7174 8.02448 27.4656 8.30669 28.0956 8.75953C29.7823 9.95398 30.6289 12.3363 28.7322 15.0206L24.4991 21.0256C22.1496 20.3956 19.1307 18.2495 17.759 16.2347L22.0052 10.2231C23.1144 8.65452 24.4335 8.01136 25.6739 7.9851ZM4.6627 12.986C4.03135 12.9926 3.40853 13.1239 2.82968 13.3798C0.656698 14.3314 -0.474093 16.7597 0.188762 19.0436L8.76781 15.2962C7.90807 13.8458 6.34609 12.9664 4.6627 12.986ZM9.23378 16.3725L0.656042 20.1265C1.8669 22.1873 4.4166 23.0142 6.60205 22.0626C8.78094 21.1044 9.90976 18.663 9.23378 16.3725Z" fill="#0027AF"/>
</svg>
