<svg width="11" height="10" viewBox="0 0 11 10" fill="none" xmlns="http://www.w3.org/2000/svg">
<path d="M4.74733 0.351441C4.89953 -0.116991 5.56224 -0.116992 5.71444 0.35144L6.60071 3.0791C6.66878 3.28858 6.864 3.43042 7.08427 3.43042H9.95229C10.4448 3.43042 10.6496 4.06069 10.2511 4.3502L7.93086 6.03598C7.75266 6.16545 7.67809 6.39495 7.74616 6.60444L8.63243 9.33209C8.78463 9.80052 8.24849 10.1901 7.85002 9.90055L5.52974 8.21476C5.35154 8.08529 5.11023 8.08529 4.93203 8.21476L2.61175 9.90055C2.21328 10.1901 1.67713 9.80052 1.82934 9.33209L2.71561 6.60444C2.78367 6.39495 2.70911 6.16545 2.5309 6.03598L0.210622 4.3502C-0.18785 4.06069 0.0169369 3.43042 0.509475 3.43042H3.3775C3.59777 3.43042 3.79299 3.28858 3.86106 3.0791L4.74733 0.351441Z" fill="#FFA600"/>
</svg>
