<svg width="18" height="29" viewBox="0 0 18 29" fill="none" xmlns="http://www.w3.org/2000/svg">
<path d="M17.9999 11.4332L16.0313 10.9274C15.6784 12.2867 14.9306 13.511 13.8822 14.4456C12.8339 15.3801 11.532 15.9829 10.1412 16.1779C8.75041 16.3729 7.33299 16.1513 6.06806 15.5411C4.80312 14.9309 3.74742 13.9595 3.03432 12.7496C2.32122 11.5397 1.98272 10.1456 2.06159 8.74336C2.14045 7.34115 2.63315 5.99378 3.47742 4.87146C4.32169 3.74914 5.47967 2.90222 6.80505 2.43772C8.13043 1.97321 9.56375 1.91195 10.9239 2.26168L11.4308 0.294095C9.44797 -0.221671 7.34929 -0.0556611 5.4722 0.765432C3.59511 1.58653 2.04867 3.01499 1.08152 4.82117C0.114361 6.62735 -0.217314 8.70629 0.139817 10.7237C0.496948 12.7412 1.52214 14.5799 3.05055 15.9444V28.4487L9.14529 24.3856L15.24 28.4487V15.9626C16.5891 14.7602 17.5499 13.1835 17.9999 11.4332ZM13.2084 24.6527L9.14529 21.9436L5.08213 24.6527V17.3258C6.34276 17.9591 7.7338 18.2894 9.14456 18.2905C10.5553 18.2916 11.9469 17.9633 13.2084 17.3319V24.6527Z" fill="black"/>
</svg>
