<svg width="30" height="32" viewBox="0 0 30 32" fill="none" xmlns="http://www.w3.org/2000/svg">
<path d="M18.625 24C19.1063 24 19.5184 23.8043 19.8614 23.413C20.2038 23.021 20.375 22.55 20.375 22V8C20.375 7.45 20.2038 6.979 19.8614 6.587C19.5184 6.19567 19.1063 6 18.625 6H12.5V8H18.625V22H12.5V24H18.625ZM9 20L10.2031 18.55L7.97188 16H15.125V14H7.97188L10.2031 11.45L9 10L4.625 15L9 20Z" fill="#2854C3"/>
<path d="M29 15.6643C29 23.8045 22.6916 30.3287 15 30.3287C7.30841 30.3287 1 23.8045 1 15.6643C1 7.52416 7.30841 1 15 1C22.6916 1 29 7.52416 29 15.6643Z" stroke="#2854C3" stroke-width="2"/>
</svg>
