<svg width="368" height="265" viewBox="0 0 368 265" fill="none" xmlns="http://www.w3.org/2000/svg">
<path opacity="0.1" d="M213.663 46.7285C190.088 45.9091 167.617 38.2979 146.192 29.9723C124.766 21.6466 103.531 12.4204 80.5074 8.00871C65.7048 5.16804 48.7759 4.76852 36.8512 12.7048C25.3734 20.3397 21.666 33.5206 19.6717 45.75C18.1718 54.9526 17.3017 64.6359 21.4019 73.2527C24.2561 79.232 29.3212 84.2599 32.8255 89.9886C45.0143 109.921 36.3975 134.501 23.1862 153.98C16.9902 163.121 9.80219 171.82 5.02147 181.54C0.240747 191.261 -1.97355 202.396 2.21127 212.31C6.35885 222.129 16.2386 229.517 26.9444 234.707C48.6879 245.24 74.3081 248.253 99.2917 249.98C154.595 253.762 210.196 252.123 265.645 250.485C286.166 249.875 306.779 249.262 326.965 246.083C338.175 244.319 349.751 241.523 357.891 234.771C368.221 226.199 370.784 211.687 363.86 200.937C352.247 182.911 320.139 178.432 312.02 159.086C307.554 148.437 312.142 136.574 318.636 126.697C332.562 105.512 355.91 86.9245 357.139 62.706C357.986 46.0717 346.762 29.417 329.406 21.5451C311.218 13.2871 285.994 14.33 272.576 27.978C258.759 42.0392 234.476 47.4497 213.663 46.7285Z" fill="#2854C3"/>
<path d="M82.0209 245.478C82.0209 245.478 63.3991 231.4 59.8812 213.492C58.4547 205.971 54.6282 199.115 48.9756 193.953C46.2716 191.524 43.351 189.348 40.2505 187.452" stroke="#535461" stroke-width="2" stroke-miterlimit="10"/>
<path d="M37.9719 176.17C39.6039 178.378 40.342 187.733 40.342 187.733C40.342 187.733 31.6168 184.296 29.9815 182.092C29.1962 181.032 28.864 179.704 29.058 178.4C29.252 177.095 29.9562 175.921 31.0158 175.136C32.0754 174.351 33.4036 174.018 34.7081 174.212C36.0126 174.406 37.1867 175.111 37.9719 176.17Z" fill="#000101"/>
<path d="M53.6209 183.511C53.7902 186.25 49.3311 194.505 49.3311 194.505C49.3311 194.505 43.8699 186.873 43.6972 184.134C43.6315 182.828 44.083 181.549 44.9539 180.574C45.8248 179.599 47.0448 179.006 48.3497 178.924C49.6546 178.842 50.9393 179.277 51.9253 180.136C52.9113 180.995 53.5193 182.207 53.6175 183.511H53.6209Z" fill="#000101"/>
<path d="M68.7892 204.611C67.5568 207.062 59.5359 211.938 59.5359 211.938C59.5359 211.938 58.6793 202.593 59.9117 200.142C60.5184 198.989 61.5534 198.121 62.7939 197.723C64.0345 197.326 65.3815 197.431 66.545 198.017C67.7086 198.603 68.5957 199.622 69.0154 200.855C69.4351 202.088 69.3538 203.437 68.7892 204.611Z" fill="#000101"/>
<path d="M76.6748 223.152C75.8724 225.776 68.7927 231.935 68.7927 231.935C68.7927 231.935 66.3651 222.871 67.1675 220.243C67.5532 218.983 68.4239 217.927 69.5881 217.308C70.7523 216.689 72.1146 216.558 73.3754 216.944C74.6361 217.33 75.692 218.2 76.3108 219.365C76.9295 220.529 77.0605 221.891 76.6748 223.152Z" fill="#000101"/>
<path d="M41.2596 201.141C43.9682 201.507 52.5309 197.64 52.5309 197.64C52.5309 197.64 45.3056 191.654 42.5834 191.288C41.2769 191.113 39.9541 191.464 38.9061 192.263C37.8581 193.063 37.1708 194.246 36.9952 195.553C36.8197 196.859 37.1703 198.182 37.9701 199.23C38.7698 200.278 39.9531 200.965 41.2596 201.141Z" fill="#000101"/>
<path d="M50.7565 222.712C53.4651 222.248 60.4635 216.001 60.4635 216.001C60.4635 216.001 51.7756 212.453 49.0704 212.917C48.4227 213.023 47.8024 213.256 47.2454 213.604C46.6884 213.951 46.2057 214.405 45.8251 214.939C45.4445 215.474 45.1735 216.079 45.0279 216.719C44.8823 217.359 44.8649 218.021 44.9767 218.668C45.0884 219.315 45.3272 219.933 45.6792 220.487C46.0311 221.041 46.4894 221.52 47.0273 221.896C47.5653 222.272 48.1725 222.537 48.8137 222.677C49.4549 222.818 50.1175 222.829 50.7633 222.712H50.7565Z" fill="#000101"/>
<path d="M62.8607 242.413C65.6065 242.413 73.5631 237.44 73.5631 237.44C73.5631 237.44 65.6032 232.473 62.8573 232.473C61.5391 232.473 60.2749 232.996 59.3427 233.928C58.4106 234.861 57.887 236.125 57.887 237.443C57.887 238.761 58.4106 240.025 59.3427 240.958C60.2749 241.89 61.5391 242.413 62.8573 242.413H62.8607Z" fill="#000101"/>
<path d="M262.923 123.715C262.923 123.715 274.401 103.384 291.702 97.5262C298.967 95.1134 305.254 90.4102 309.62 84.1219C311.667 81.1155 313.434 77.9274 314.898 74.5977" stroke="#535461" stroke-width="2" stroke-miterlimit="10"/>
<path d="M325.76 70.8733C323.789 72.7829 314.617 74.7602 314.617 74.7602C314.617 74.7602 316.869 65.6525 318.839 63.7395C319.79 62.849 321.053 62.3676 322.356 62.3989C323.658 62.4302 324.896 62.9718 325.804 63.907C326.711 64.8422 327.215 66.0962 327.206 67.3991C327.198 68.7021 326.679 69.9497 325.76 70.8733Z" fill="#000101"/>
<path d="M320.573 87.3384C317.864 87.8733 309.105 84.5485 309.105 84.5485C309.105 84.5485 315.944 78.1155 318.636 77.5907C319.282 77.4473 319.951 77.4344 320.602 77.5529C321.254 77.6713 321.875 77.9187 322.429 78.2804C322.984 78.6422 323.46 79.1111 323.831 79.6596C324.202 80.2081 324.459 80.8251 324.588 81.4744C324.717 82.1237 324.715 82.7923 324.582 83.4409C324.449 84.0894 324.188 84.7048 323.814 85.2511C323.44 85.7973 322.961 86.2633 322.404 86.6218C321.847 86.9802 321.225 87.2238 320.573 87.3384Z" fill="#000101"/>
<path d="M301.694 105.174C299.1 104.277 293.206 96.9774 293.206 96.9774C293.206 96.9774 302.347 94.885 304.947 95.7822C305.572 95.9895 306.15 96.3187 306.646 96.7509C307.142 97.1831 307.548 97.7096 307.839 98.2999C308.131 98.8901 308.302 99.5323 308.343 100.189C308.384 100.846 308.294 101.505 308.079 102.127C307.864 102.749 307.527 103.322 307.088 103.812C306.649 104.303 306.117 104.702 305.523 104.985C304.929 105.269 304.285 105.432 303.628 105.464C302.97 105.496 302.313 105.398 301.694 105.174Z" fill="#000101"/>
<path d="M284.345 115.453C281.636 115.006 274.607 108.793 274.607 108.793C274.607 108.793 283.272 105.184 285.977 105.631C287.279 105.845 288.443 106.568 289.212 107.64C289.981 108.712 290.293 110.046 290.079 111.348C289.865 112.65 289.142 113.814 288.07 114.583C286.998 115.352 285.664 115.664 284.362 115.45L284.345 115.453Z" fill="#000101"/>
<path d="M301.457 77.4273C301.453 80.1732 306.434 88.1399 306.434 88.1399C306.434 88.1399 311.407 80.1833 311.407 77.4409C311.425 76.7775 311.309 76.1173 311.067 75.4993C310.825 74.8814 310.462 74.3181 309.999 73.8428C309.536 73.3674 308.982 72.9896 308.371 72.7317C307.759 72.4737 307.102 72.3408 306.439 72.3408C305.775 72.3408 305.118 72.4737 304.507 72.7317C303.895 72.9896 303.342 73.3674 302.879 73.8428C302.416 74.3181 302.052 74.8814 301.81 75.4993C301.568 76.1173 301.453 76.7775 301.47 77.4409L301.457 77.4273Z" fill="#000101"/>
<path d="M281.335 89.7048C282.154 92.3254 289.278 98.4367 289.278 98.4367C289.278 98.4367 291.648 89.356 290.822 86.7354C290.394 85.5213 289.511 84.5207 288.359 83.9445C287.208 83.3683 285.878 83.2613 284.649 83.6462C283.421 84.031 282.389 84.8776 281.772 86.0077C281.155 87.1378 281.001 88.4632 281.342 89.7048H281.335Z" fill="#000101"/>
<path d="M263.434 104.321C263.8 107.03 269.786 114.265 269.786 114.265C269.786 114.265 273.649 105.716 273.284 102.998C273.211 102.339 273.008 101.701 272.685 101.122C272.362 100.543 271.927 100.035 271.405 99.6266C270.883 99.2183 270.285 98.9185 269.645 98.7449C269.006 98.5713 268.338 98.5273 267.681 98.6156C267.024 98.7039 266.392 98.9226 265.821 99.259C265.25 99.5953 264.752 100.042 264.356 100.574C263.96 101.106 263.675 101.711 263.517 102.355C263.358 102.998 263.33 103.667 263.434 104.321Z" fill="#000101"/>
<path opacity="0.25" d="M325.76 70.8733C323.789 72.7829 314.617 74.7602 314.617 74.7602C314.617 74.7602 316.869 65.6525 318.839 63.7395C319.79 62.849 321.053 62.3676 322.356 62.3989C323.658 62.4302 324.896 62.9718 325.804 63.907C326.711 64.8422 327.215 66.0962 327.206 67.3991C327.198 68.7021 326.679 69.9497 325.76 70.8733Z" fill="black"/>
<path opacity="0.25" d="M320.573 87.3384C317.864 87.8733 309.105 84.5485 309.105 84.5485C309.105 84.5485 315.944 78.1155 318.636 77.5907C319.282 77.4473 319.951 77.4344 320.602 77.5529C321.254 77.6713 321.875 77.9187 322.429 78.2804C322.984 78.6422 323.46 79.1111 323.831 79.6596C324.202 80.2081 324.459 80.8251 324.588 81.4744C324.717 82.1237 324.715 82.7923 324.582 83.4409C324.449 84.0894 324.188 84.7048 323.814 85.2511C323.44 85.7973 322.961 86.2633 322.404 86.6218C321.847 86.9802 321.225 87.2238 320.573 87.3384Z" fill="black"/>
<path opacity="0.25" d="M301.694 105.174C299.1 104.277 293.206 96.9774 293.206 96.9774C293.206 96.9774 302.347 94.885 304.947 95.7822C305.572 95.9895 306.15 96.3187 306.646 96.7509C307.142 97.1831 307.548 97.7096 307.839 98.2999C308.131 98.8901 308.302 99.5323 308.343 100.189C308.384 100.846 308.294 101.505 308.079 102.127C307.864 102.749 307.527 103.322 307.088 103.812C306.649 104.303 306.117 104.702 305.523 104.985C304.929 105.269 304.285 105.432 303.628 105.464C302.97 105.496 302.313 105.398 301.694 105.174Z" fill="black"/>
<path opacity="0.25" d="M284.345 115.453C281.636 115.006 274.607 108.793 274.607 108.793C274.607 108.793 283.272 105.184 285.977 105.631C287.279 105.845 288.443 106.568 289.212 107.64C289.981 108.712 290.293 110.046 290.079 111.348C289.865 112.65 289.142 113.814 288.07 114.583C286.998 115.352 285.664 115.664 284.362 115.45L284.345 115.453Z" fill="black"/>
<path opacity="0.25" d="M301.457 77.4273C301.453 80.1732 306.434 88.1399 306.434 88.1399C306.434 88.1399 311.407 80.1833 311.407 77.4409C311.425 76.7775 311.309 76.1173 311.067 75.4993C310.825 74.8814 310.462 74.3181 309.999 73.8428C309.536 73.3674 308.982 72.9896 308.371 72.7317C307.759 72.4737 307.102 72.3408 306.439 72.3408C305.775 72.3408 305.118 72.4737 304.507 72.7317C303.895 72.9896 303.342 73.3674 302.879 73.8428C302.416 74.3181 302.052 74.8814 301.81 75.4993C301.568 76.1173 301.453 76.7775 301.47 77.4409L301.457 77.4273Z" fill="black"/>
<path opacity="0.25" d="M281.335 89.7048C282.154 92.3254 289.278 98.4367 289.278 98.4367C289.278 98.4367 291.648 89.356 290.822 86.7354C290.394 85.5213 289.511 84.5207 288.359 83.9445C287.208 83.3683 285.878 83.2613 284.649 83.6462C283.421 84.031 282.389 84.8776 281.772 86.0077C281.155 87.1378 281.001 88.4632 281.342 89.7048H281.335Z" fill="black"/>
<path opacity="0.25" d="M263.434 104.321C263.8 107.03 269.786 114.265 269.786 114.265C269.786 114.265 273.649 105.716 273.284 102.998C273.211 102.339 273.008 101.701 272.685 101.122C272.362 100.543 271.927 100.035 271.405 99.6266C270.883 99.2183 270.285 98.9185 269.645 98.7449C269.006 98.5713 268.338 98.5273 267.681 98.6156C267.024 98.7039 266.392 98.9226 265.821 99.259C265.25 99.5953 264.752 100.042 264.356 100.574C263.96 101.106 263.675 101.711 263.517 102.355C263.358 102.998 263.33 103.667 263.434 104.321Z" fill="black"/>
<path d="M263.583 123.312C263.583 123.312 265.838 100.072 279.266 87.7134C284.93 82.563 288.772 75.7157 290.216 68.1978C290.873 64.6239 291.201 60.9971 291.194 57.3633" stroke="#535461" stroke-width="2" stroke-miterlimit="10"/>
<path d="M299.611 49.5219C298.596 52.068 290.998 57.5936 290.998 57.5936C290.998 57.5936 289.366 48.3538 290.392 45.8077C290.886 44.5851 291.845 43.6088 293.059 43.0936C294.273 42.5783 295.641 42.5663 296.864 43.0602C298.086 43.554 299.063 44.5134 299.578 45.7271C300.093 46.9408 300.105 48.3095 299.611 49.5321V49.5219Z" fill="#000101"/>
<path d="M301.545 66.6945C299.3 68.2723 289.931 68.7903 289.931 68.7903C289.931 68.7903 293.581 60.143 295.826 58.5653C296.358 58.1668 296.965 57.8793 297.611 57.7196C298.256 57.56 298.927 57.5314 299.584 57.6358C300.241 57.7401 300.87 57.9751 301.434 58.3269C301.998 58.6788 302.486 59.1402 302.869 59.684C303.252 60.2278 303.521 60.8429 303.662 61.4928C303.803 62.1426 303.812 62.8142 303.688 63.4675C303.565 64.1209 303.311 64.7429 302.943 65.2966C302.575 65.8503 302.099 66.3245 301.545 66.6911V66.6945Z" fill="#000101"/>
<path d="M291.503 90.6596C288.767 90.8898 280.417 86.5966 280.417 86.5966C280.417 86.5966 287.934 80.9762 290.67 80.746C291.983 80.6356 293.287 81.0515 294.294 81.9023C295.301 82.7532 295.929 83.9692 296.039 85.2829C296.15 86.5967 295.734 87.9005 294.883 88.9075C294.032 89.9145 292.816 90.5423 291.503 90.6528V90.6596Z" fill="#000101"/>
<path d="M279.818 107.077C277.16 107.755 268.208 104.955 268.208 104.955C268.208 104.955 274.665 98.1458 277.323 97.4551C278.599 97.1242 279.954 97.3137 281.09 97.982C282.226 98.6503 283.051 99.7426 283.382 101.019C283.713 102.295 283.523 103.65 282.855 104.786C282.186 105.922 281.094 106.747 279.818 107.077Z" fill="#000101"/>
<path d="M280.055 65.3816C281.166 67.8904 288.933 73.1689 288.933 73.1689C288.933 73.1689 290.253 63.8783 289.143 61.3694C288.589 60.1956 287.599 59.2848 286.383 58.8316C285.167 58.3783 283.822 58.4186 282.635 58.9439C281.448 59.4691 280.514 60.4376 280.032 61.6425C279.55 62.8473 279.558 64.1929 280.055 65.3917V65.3816Z" fill="#000101"/>
<path d="M266.634 84.7549C268.445 86.8168 277.431 89.5187 277.431 89.5187C277.431 89.5187 275.914 80.2586 274.103 78.1966C273.675 77.6957 273.152 77.2848 272.565 76.9877C271.977 76.6906 271.336 76.5132 270.679 76.4659C270.022 76.4187 269.363 76.5024 268.738 76.7123C268.114 76.9222 267.538 77.254 267.043 77.6886C266.548 78.1231 266.144 78.6516 265.856 79.2435C265.567 79.8353 265.398 80.4787 265.36 81.1361C265.322 81.7936 265.415 82.4521 265.634 83.0733C265.852 83.6946 266.192 84.2661 266.634 84.7549Z" fill="#000101"/>
<path d="M256.175 105.381C257.611 107.717 266.011 111.899 266.011 111.899C266.011 111.899 266.082 102.517 264.657 100.177C263.947 99.0969 262.845 98.3355 261.583 98.0545C260.322 97.7735 259 97.9949 257.899 98.6718C256.798 99.3487 256.004 100.428 255.685 101.68C255.367 102.933 255.549 104.26 256.192 105.381H256.175Z" fill="#000101"/>
<path d="M246.316 32.2992C246.878 30.2373 247.555 28.1652 248.029 26.0762C247.46 28.1652 246.78 30.2441 246.316 32.2992Z" fill="url(#paint0_linear_1_149)"/>
<path d="M243.797 52.1597C243.749 52.0785 243.715 51.9972 243.678 51.9227C243.678 51.8889 243.644 51.8618 243.631 51.8279C243.557 51.8627 243.481 51.8932 243.404 51.9193C243.255 51.9769 243.103 52.0311 242.947 52.0751C242.791 52.1191 242.727 52.1428 242.608 52.1699C242.51 52.2037 242.409 52.2298 242.307 52.2477L242.334 52.3087C242.459 52.2816 242.581 52.2579 242.707 52.224L242.74 52.6439C242.883 52.6439 243.015 52.6236 243.143 52.6236C243.204 52.6202 243.265 52.6202 243.326 52.6236C243.59 52.6236 243.82 52.6236 244.003 52.6236C243.932 52.4712 243.858 52.3121 243.797 52.1597ZM312.528 161.564C310.937 159.421 307.761 136.418 307.761 136.418C307.761 136.418 301.514 120.062 303.217 113.534C304.92 107.006 298.565 90.3039 298.565 90.3039C298.565 90.3039 294.367 88.479 294.14 85.7704C294.14 85.7704 276.998 80.3531 276.195 76.2902C275.545 72.9586 264.914 70.5682 261.095 69.8132C259.93 65.1137 258.758 60.7291 257.895 58.3354C257.661 57.5905 257.441 56.9472 257.238 56.4393C255.779 52.715 251.269 52.3764 247.998 52.6744C247.857 52.0396 247.593 51.4383 247.223 50.9036C247.169 50.7198 247.062 50.556 246.915 50.433C246.845 50.3731 246.77 50.3188 246.692 50.2705C246.632 50.1607 246.554 50.0622 246.461 49.9793C246.368 49.8956 246.266 49.8229 246.157 49.7626C246.078 49.72 245.996 49.6827 245.913 49.6509C245.717 49.5761 245.514 49.5206 245.307 49.485C245.066 49.4354 244.821 49.4037 244.575 49.3902C245.173 49.1287 245.706 48.7392 246.136 48.2491C246.429 47.9051 246.647 47.5038 246.776 47.0709C246.883 46.7109 246.931 46.3358 246.918 45.9604C246.831 46.1151 246.729 46.2613 246.614 46.3971C246.756 44.8972 245.964 43.3736 245.51 41.8805C244.96 39.9366 244.858 37.8935 245.212 35.9046C245.666 32.9048 246.79 29.8711 247.552 26.8172C247.553 26.8003 247.553 26.7832 247.552 26.7664C247.951 25.2497 248.198 23.697 248.29 22.1312C248.422 18.9723 247.613 15.8201 246.312 12.9422C245.158 10.3927 243.455 7.88387 240.848 6.84782C238.911 6.06571 236.741 6.19098 234.655 6.06232C229.976 5.77115 225.514 4.12566 221.065 2.62914C216.616 1.13263 212.038 -0.228456 207.356 0.0322494C202.673 0.292954 197.855 2.55127 195.719 6.69546C195.041 7.98883 194.652 9.42779 193.843 10.6433C192.326 12.9355 189.611 14.0832 187.346 15.6644C185.081 17.2456 183.086 19.4903 182.267 22.1685C181.82 23.6114 181.756 25.1461 182.084 26.6208C182.158 26.9538 182.253 27.2818 182.369 27.6027C182.69 28.4973 183.191 29.3165 183.841 30.0099C184.332 30.5224 184.895 30.9594 185.514 31.3067C186.291 31.7373 187.122 32.0607 187.986 32.2683C187.955 32.3698 187.925 32.4782 187.891 32.5831C187.837 32.7558 187.789 32.9217 187.738 33.1079C187.627 33.5244 187.522 33.9476 187.434 34.3742C187.43 34.4046 187.43 34.4353 187.434 34.4656C187.018 36.3915 186.809 38.3562 186.811 40.3264C186.81 41.2582 186.857 42.1894 186.953 43.1163C188.307 56.8558 199.65 67.6937 213.663 68.3979C214.144 68.4216 214.628 68.4352 215.119 68.4352C215.343 68.4352 215.563 68.4352 215.796 68.4352C216.016 68.7263 216.233 69.0243 216.44 69.3155C216.646 69.6066 216.836 69.9046 217.015 70.1958L216.524 69.6879L216.033 69.2376C215.9 69.4203 215.752 69.5913 215.59 69.7488C215.27 69.6362 214.943 69.5435 214.611 69.4712C213.206 69.1597 211.066 69.0446 208.249 69.8944C205.659 70.6698 202.494 72.2645 198.79 75.2948L180.74 86.1292L170.975 92.0679L167.458 100.668C167.458 100.668 164.813 110.886 161.871 122.594C161.756 122.628 161.644 122.662 161.532 122.702C161.294 122.675 161.054 122.662 160.815 122.662C159.108 122.658 157.465 123.316 156.233 124.497C155.001 125.678 154.274 127.291 154.206 128.997C148.355 136.107 148.023 143.217 149.398 146.481C149.522 146.787 149.679 147.078 149.865 147.351C150.766 148.651 152.448 152.003 154.155 155.575C154.111 155.87 154.084 156.117 154.07 156.303C154.067 156.364 154.067 156.425 154.07 156.486C154.07 156.486 155.086 171.827 151.7 176.225C150.959 177.183 151.07 178.443 151.7 179.837C153.969 184.855 162.938 191.556 162.938 191.556C162.938 191.556 173.694 191.498 179.687 190.845C179.67 191.447 179.657 192.047 179.643 192.632C179.508 198.551 179.508 203.511 179.508 203.511L179.284 209.717C179.284 209.717 177.253 222.796 176.237 226.402C175.597 228.664 176.335 249.605 176.978 265H282.96C284.206 255.892 282.449 228.22 282.449 228.22C282.449 228.22 280.78 221.066 280.719 214.83C280.715 214.823 280.714 214.815 280.714 214.807C280.714 214.8 280.715 214.792 280.719 214.785C280.719 214.24 280.719 213.709 280.739 213.187L281.508 213.16L282.889 213.113H283.014C283.014 213.113 283.048 212.984 283.126 212.774C283.309 212.251 283.558 211.754 283.867 211.295C284.457 210.425 285.378 209.571 286.762 209.514C287.527 209.483 288.712 208.864 290.05 207.95C290.059 207.952 290.068 207.952 290.077 207.95C293.676 205.515 298.433 201.022 299.588 200.284C301.176 199.268 308.78 192.497 308.78 192.497C308.78 192.497 309.914 191.061 311.123 189.331L311.167 189.27C312.67 187.103 314.268 184.513 313.876 183.697C313.198 182.235 314.329 178.737 314.329 178.737C317.861 172.274 314.119 163.708 312.528 161.564ZM247.057 57.4246C247.09 57.5257 247.11 57.6302 247.118 57.7361C247.034 57.6244 246.949 57.5059 246.864 57.3975L246.783 57.2892L246.725 57.2079L246.854 57.0319C246.854 57.0319 246.854 57.0319 246.854 57.0556C246.943 57.1653 247.012 57.2904 247.057 57.4246ZM245.92 54.4248C245.551 54.4993 245.259 54.567 245.07 54.6178C244.829 54.1912 244.599 53.7646 244.393 53.3312C244.935 53.6461 245.447 54.0123 245.92 54.4248ZM245.283 54.9598C245.282 54.953 245.282 54.9462 245.283 54.9394L245.31 54.9598C245.449 55.0512 245.584 55.1392 245.71 55.2306C245.821 55.3119 245.923 55.3898 246.025 55.471C245.957 55.5895 245.882 55.7114 245.808 55.8096C245.689 55.6234 245.578 55.4439 245.469 55.2577C245.402 55.1832 245.341 55.0816 245.283 54.9598ZM243.252 50.7817C243.906 50.7172 244.565 50.7172 245.219 50.7817C245.31 50.7817 245.391 50.7986 245.473 50.8122C245.656 50.8406 245.837 50.8871 246.011 50.951C246.411 51.5108 246.658 52.1657 246.725 52.8504L246.543 52.8775L246.363 52.9114C246.025 52.9689 245.686 53.0265 245.422 53.0807L245.083 53.1518C244.633 53.2499 244.372 53.3244 244.362 53.3278C244.318 53.2364 244.274 53.1517 244.227 53.0637C244.152 52.9181 244.074 52.7692 244.007 52.6236C243.939 52.478 243.851 52.3121 243.78 52.1597C243.732 52.0785 243.699 51.9972 243.661 51.9227C243.661 51.8889 243.627 51.8618 243.614 51.8279C243.594 51.792 243.577 51.7546 243.563 51.7162C243.357 51.2963 243.167 50.8765 242.984 50.4634C242.964 50.4228 242.947 50.3788 242.93 50.3382L243.187 50.3212V50.4093L243.252 50.7817ZM162.47 260.815C162.443 255.774 162.078 250.319 161.062 245.2C160.628 243.023 160.182 240.846 159.728 238.706C159.613 238.171 159.501 237.643 159.389 237.115L158.346 237.254H158.252C155.408 223.842 152.435 212.026 152.435 212.026C152.435 212.026 146.53 189.48 147.214 187.682C147.302 187.449 147.19 186.819 146.94 185.895C145.511 180.769 139.545 166.643 137.46 161.815C137.46 161.795 137.443 161.771 137.436 161.754C137.097 160.945 136.853 160.4 136.779 160.241L137.27 153.036L137.297 152.602L137.361 151.681L137.334 151.658L137.361 151.231C137.361 151.231 132.208 147.006 123.48 143.955C123.141 143.833 122.782 143.715 122.427 143.599C122.863 140.684 123.442 137.393 124.197 134.187C124.269 133.865 124.346 133.554 124.428 133.239C124.499 132.924 124.58 132.619 124.661 132.311C124.79 131.81 124.929 131.316 125.071 130.828C125.542 130.679 126.005 130.513 126.463 130.337L126.639 130.27C132.269 128.079 136.916 123.921 139.717 118.568C142.518 113.214 143.285 107.027 141.875 101.152C141.071 97.8198 139.586 94.6901 137.514 91.9596C137.358 91.7496 137.192 91.5397 137.026 91.3332C136.86 91.1267 136.66 90.8964 136.474 90.6865C137.453 88.462 138.607 86.3459 138.702 84.1824C138.719 83.9084 138.719 83.6337 138.702 83.3597V83.3258C138.577 81.9343 137.961 80.5258 136.525 79.0462C134.429 76.8759 131.446 75.7755 128.463 75.2474C125.481 74.7192 122.44 74.7056 119.44 74.3501C114.467 73.7542 109.622 72.2205 104.648 71.7498C98.5216 71.1825 92.3537 72.2333 86.7609 74.797C83.0602 76.4899 79.3121 79.4491 79.0887 83.5087C78.9058 86.864 81.242 90.0805 80.6529 93.3951C80.0672 96.6522 76.7491 99.2153 77.0403 102.51C77.152 103.796 77.8122 104.947 78.6384 105.973C78.9228 106.312 79.2241 106.65 79.5356 106.989C80.7409 108.265 82.0682 109.491 82.7419 111.099C82.769 111.167 82.7961 111.235 82.8198 111.303C83.392 112.89 83.1347 114.898 81.7194 115.809C81.7273 115.815 81.7331 115.823 81.7364 115.833C81.7567 115.86 81.777 115.88 81.7939 115.907C81.796 115.902 81.796 115.896 81.7939 115.89C82.2957 116.485 82.9721 116.907 83.7272 117.096L84.015 117.184C83.7814 117.438 83.5613 117.702 83.3378 117.979L83.1922 118.172C82.8191 118.674 82.4798 119.2 82.1765 119.747C82.0038 120.051 81.8379 120.356 81.6991 120.661C81.235 121.59 80.899 122.577 80.7003 123.596C80.338 125.838 80.8493 128.174 80.3008 130.368C79.6236 133.076 77.4804 135.155 76.2717 137.671C73.9829 142.411 75.2797 147.974 75.7401 153.208C76.3665 160.318 75.3508 167.459 74.3384 174.522C73.8012 178.278 73.264 182.037 72.7268 185.8C71.3725 195.244 70.0182 204.688 68.6639 214.132C68.1695 217.592 67.5838 221.242 65.2781 223.914H65.3018C65.3018 223.914 65.3018 223.934 65.2781 223.941C65.9702 224.243 66.7064 224.433 67.4585 224.503C70.4685 224.804 73.6579 223.348 76.3665 221.757C78.5116 220.517 80.543 219.091 82.4372 217.494C82.1596 218.51 81.8616 219.617 81.5434 220.809C81.5444 220.82 81.5444 220.831 81.5434 220.843C77.7208 235.402 71.5722 262.092 71.5722 262.092C71.5722 262.092 71.0136 263.253 70.289 264.983H165.768C164.651 263.629 163.611 262.332 162.799 261.286L162.47 260.815ZM91.7752 126.197C91.7989 126.156 91.8158 126.119 91.8395 126.081C91.8395 126.19 91.8395 126.295 91.8395 126.396C91.8395 126.498 91.8395 126.589 91.8395 126.684C91.8395 126.779 91.8395 126.769 91.8395 126.816C91.8395 126.864 91.8395 126.816 91.8395 126.816C91.8395 126.955 91.809 127.094 91.7853 127.233C91.7853 127.233 91.7853 127.25 91.7853 127.263L92.1239 127.388L92.5167 127.551C94.8371 128.467 97.1868 129.297 99.5659 130.039C99.8097 130.117 100.057 130.192 100.304 130.263L100.355 130.683C100.416 131.113 100.473 131.549 100.527 131.986C100.527 131.986 100.527 132.007 100.527 132.02C100.68 133.229 100.829 134.434 100.961 135.612C100.961 135.612 94.7445 133.242 94.8224 136.841C94.8188 136.906 94.8188 136.97 94.8224 137.034C94.8155 137.12 94.8155 137.206 94.8224 137.292C94.8799 140.095 95.7569 141.758 95.9329 142.611C95.9224 142.646 95.9038 142.679 95.8788 142.706C95.7285 143.033 95.6768 143.396 95.7298 143.752C95.7239 144.358 95.7715 144.963 95.872 145.56C95.6892 145.672 95.5097 145.783 95.3303 145.898C95.1948 145.983 95.0662 146.078 94.9341 146.173C94.1035 143.292 93.0169 140.49 91.6872 137.803C90.7561 135.887 89.7099 133.889 89.72 131.786C89.72 131.651 89.72 131.512 89.737 131.373C89.7747 130.764 89.8908 130.162 90.0823 129.582C90.1602 129.362 90.2448 129.146 90.3396 128.932C90.5609 128.425 90.8084 127.93 91.0811 127.449C91.2572 127.131 91.4434 126.816 91.6228 126.498C91.6804 126.403 91.7346 126.305 91.7887 126.21L91.7752 126.197ZM243.797 52.1597C243.749 52.0785 243.715 51.9972 243.678 51.9227C243.678 51.8889 243.644 51.8618 243.631 51.8279C243.557 51.8627 243.481 51.8932 243.404 51.9193C243.255 51.9769 243.103 52.0311 242.947 52.0751C242.791 52.1191 242.727 52.1428 242.608 52.1699L242.307 52.2477L242.334 52.3087C242.459 52.2816 242.581 52.2579 242.707 52.224L242.74 52.6439C242.883 52.6439 243.015 52.6236 243.143 52.6236H243.326C243.59 52.6236 243.82 52.6236 244.003 52.6236C243.932 52.4712 243.858 52.3121 243.797 52.1597Z" fill="url(#paint1_linear_1_149)"/>
<path d="M169.817 101.89L167.786 102.787C167.786 102.787 154.544 154.231 154.544 158.389C154.544 162.546 182.622 185.681 182.622 185.681L187.004 156.11C187.004 156.11 180.713 88.2961 169.817 101.89Z" fill="white"/>
<path d="M231.408 85.5262L219.677 79.4047C219.019 76.6035 217.853 73.9467 216.237 71.5666C214.52 69.0882 212.238 66.6539 209.394 65.3842C202.206 62.1609 239.798 45.2422 239.798 45.2422C240.39 47.2746 241.088 49.2749 241.887 51.235C243.824 56.0157 247.037 62.1982 251.178 63.9588C258.217 66.9552 231.408 85.5262 231.408 85.5262Z" fill="#CAE8F4"/>
<path opacity="0.1" d="M241.887 51.235C240.281 56.8842 236.941 61.886 232.338 65.5342C227.736 69.1823 222.103 71.2925 216.237 71.5666C214.52 69.0882 212.238 66.6539 209.394 65.3842C202.206 62.1609 239.798 45.2422 239.798 45.2422C240.39 47.2746 241.088 49.2749 241.887 51.235Z" fill="black"/>
<path d="M242.944 42.6935C242.945 48.2339 241.303 53.6503 238.226 58.2576C235.149 62.8648 230.775 66.4561 225.656 68.5771C220.538 70.6981 214.906 71.2535 209.472 70.1732C204.037 69.0929 199.046 66.4254 195.128 62.508C191.21 58.5905 188.542 53.5992 187.461 48.1653C186.38 42.7314 186.935 37.0989 189.055 31.9804C191.176 26.8618 194.766 22.4869 199.373 19.4092C203.98 16.3315 209.396 14.6891 214.937 14.6898C218.619 14.6727 222.268 15.3854 225.674 16.7867C229.079 18.1879 232.173 20.2499 234.777 22.8537C237.381 25.4574 239.444 28.5513 240.846 31.9566C242.247 35.3619 242.96 39.0111 242.944 42.6935Z" fill="#CAE8F4"/>
<path d="M246.986 81.9311L239.348 99.7538L232.61 111.584H211.043L204.752 95.4099L207.301 78.6367H223.773L234.408 78.0374L238 76.8389L240.316 78.1525L246.986 81.9311Z" fill="#575A89"/>
<path opacity="0.1" d="M244.356 58.1728C244.356 58.1728 249.119 59.1886 244.853 62.6861C240.587 66.1836 225.869 77.3059 225.869 77.3059C225.869 77.3059 231.039 81.9105 229.969 87.3041L247.098 77.7562L250.145 62.4796C250.145 62.4796 250.487 57.8884 244.356 58.1728Z" fill="black"/>
<path opacity="0.1" d="M229.238 77.3057L218.343 79.1035C218.343 79.1035 220.591 87.4156 219.467 89.7755C219.433 89.8488 219.404 89.9247 219.382 90.0023L214.937 102.018L218.268 111.455L229.8 95.7277L225.869 89.7755C225.869 89.7755 230.024 84.2702 232.495 82.3606C234.967 80.4511 229.238 77.3057 229.238 77.3057Z" fill="black"/>
<path d="M229.238 76.8418L218.343 78.6363C218.343 78.6363 220.591 86.9484 219.467 89.3082C219.433 89.3816 219.404 89.4574 219.382 89.5351L214.937 101.551L218.268 110.987L229.8 95.2503L225.869 89.2981C225.869 89.2981 230.024 83.7928 232.495 81.8832C234.967 79.9736 229.238 76.8418 229.238 76.8418Z" fill="#DCE6F2"/>
<path d="M244.813 57.2754C244.813 57.2754 249.576 58.2911 245.307 61.7886C241.037 65.2861 225.869 77.3057 225.869 77.3057C225.869 77.3057 231.486 81.0131 230.42 86.4032L247.548 76.8587L250.596 61.5821C250.596 61.5821 250.934 56.991 244.813 57.2754Z" fill="#575A89"/>
<path opacity="0.1" d="M216.985 72.627C216.985 72.627 218.024 74.5704 222.612 78.0747C222.612 78.0747 214.974 82.1376 217.896 87.8494L206.211 84.8022L204.413 79.1852L216.985 72.627Z" fill="black"/>
<path d="M216.535 72.1797C216.535 72.1797 217.574 74.1231 222.162 77.6274C222.162 77.6274 214.523 81.67 217.445 87.3988L205.764 84.3516L203.967 78.738L216.535 72.1797Z" fill="#575A89"/>
<path opacity="0.1" d="M246.986 81.9309L239.348 99.7536L232.624 111.584H211.043L204.752 95.4097L207.298 78.6365H211.879C211.805 82.5505 213.233 87.1484 213.142 88.8582C212.986 91.6684 217.334 106.83 217.334 106.83C217.334 106.83 226.431 92.1153 230.023 90.805C232.282 89.9823 237.066 83.1362 240.313 78.1523L246.986 81.9309Z" fill="black"/>
<path d="M277.076 175.721L276.3 176.696C276.3 176.696 281.917 204.889 280.363 211.292C280.099 212.446 279.948 213.623 279.913 214.806V214.857C279.639 221.371 281.606 229.825 281.606 229.825C281.606 229.825 283.177 254.745 282.283 264.994H177.114C176.498 249.839 175.834 230.205 176.437 228.028C177.453 224.435 179.484 211.403 179.484 211.403L179.707 205.228C179.707 205.228 179.707 199.259 179.89 192.609C179.968 189.619 180.083 186.481 180.249 183.698C180.462 180.197 180.76 177.248 181.17 175.799C181.422 174.7 181.568 173.58 181.603 172.453C181.603 172.348 181.603 172.24 181.624 172.132C181.624 171.793 181.658 171.428 181.671 171.052C181.671 170.947 181.671 170.842 181.671 170.713C181.736 168.533 181.712 165.946 181.641 163.264C181.641 163.119 181.641 162.97 181.641 162.821C181.583 160.81 181.499 158.758 181.404 156.808C181.109 150.713 180.727 145.56 180.727 145.56L167.81 102.764L171.29 94.1911L180.95 88.2728L198.81 77.489C207.522 70.3281 213.257 71.1881 215.444 71.9736C215.657 72.0461 215.865 72.1309 216.067 72.2275C216.135 72.2614 216.189 72.2885 216.24 72.319C216.31 72.3519 216.376 72.3904 216.44 72.4341C215.841 72.7222 215.32 73.1508 214.923 73.6834C214.475 74.2895 214.156 74.9809 213.985 75.7149C213.871 76.1699 213.79 76.6328 213.745 77.0997C213.701 77.5906 213.684 78.0985 213.684 78.6097C213.708 79.7309 213.804 80.8494 213.972 81.9583C213.972 81.9786 213.972 82.0057 213.972 82.0328C214.083 82.825 214.222 83.6004 214.358 84.3283C214.356 84.3407 214.356 84.3532 214.358 84.3656C214.513 85.2154 214.669 86.0009 214.774 86.6781C214.794 86.7999 214.811 86.9117 214.828 87.0166C214.903 87.4641 214.938 87.9173 214.933 88.3709C214.971 89.4663 215.119 90.5552 215.373 91.6213C215.461 92.0682 215.563 92.5456 215.675 93.0433C215.827 93.7205 215.993 94.4586 216.172 95.2102C216.27 95.6233 216.375 96.0499 216.484 96.4731C216.524 96.6424 216.568 96.8117 216.609 96.9844L216.677 97.2518C217.398 100.12 218.18 102.974 218.661 104.701C218.945 105.716 219.125 106.343 219.125 106.343C219.125 106.343 224.224 98.0983 228.293 93.4056C228.354 93.3379 228.408 93.2736 228.466 93.2126C228.869 92.7488 229.265 92.3255 229.644 91.9531C230.474 91.127 231.219 90.5378 231.818 90.3212C231.946 90.2743 232.069 90.2165 232.187 90.1485C233.853 89.2038 236.541 85.774 239.057 82.1817C239.304 81.8432 239.544 81.4741 239.788 81.1254C240.347 80.3196 240.888 79.5104 241.4 78.735C241.792 78.1425 242.168 77.5669 242.524 77.0184C244.217 74.3843 245.409 72.4205 245.409 72.4205L247.758 72.3156L248.168 72.2953H248.442L259.111 71.8009C259.111 71.8009 259.571 71.8788 260.33 72.0312C260.37 72.0312 260.411 72.0312 260.455 72.0583C264.24 72.8099 274.756 75.1901 275.4 78.4912C276.185 82.5339 293.148 87.9274 293.148 87.9274C293.371 90.636 297.526 92.4203 297.526 92.4203C297.526 92.4203 303.817 109.045 302.134 115.559C300.471 121.992 306.461 137.905 306.62 138.352L305.472 139.801L277.076 175.721Z" fill="white"/>
<path opacity="0.1" d="M244.352 56.9917C244.352 56.9917 254.736 54.046 257.096 60.11C259.456 66.1739 264.734 90.6632 264.734 90.6632C264.734 90.6632 251.029 93.2466 247.436 90.6632C245.329 89.13 242.721 88.4481 240.133 88.7537L232.383 94.0321L230.094 93.3549C230.094 93.3549 242.493 74.9227 245.188 68.659C247.883 62.3954 248.794 59.5953 244.352 56.9917Z" fill="black"/>
<path d="M243.902 55.6372C243.902 55.6372 254.293 52.6915 256.663 58.7555C259.033 64.8194 264.301 89.3087 264.301 89.3087C264.301 89.3087 250.599 91.8921 247.003 89.3087C244.897 87.7755 242.29 87.0935 239.703 87.3992L231.947 92.6776L229.658 92.0004C229.658 92.0004 242.056 73.5682 244.752 67.3046C247.447 61.0409 248.344 58.2476 243.902 55.6372Z" fill="white"/>
<path opacity="0.1" d="M174.199 153.334C174.199 153.334 181.949 155.244 183.411 159.625C184.874 164.006 177.682 164.118 177.682 164.118C177.682 164.118 173.301 156.368 174.199 153.334Z" fill="black"/>
<path opacity="0.1" d="M203.066 185.682C203.066 185.682 184.085 224.547 188.466 228.254C192.848 231.962 203.066 185.682 203.066 185.682Z" fill="black"/>
<path opacity="0.1" d="M229.238 157.041C229.238 157.041 244.403 194.792 241.369 200.623C238.336 206.453 247.884 200.623 247.884 200.623L229.238 157.041Z" fill="black"/>
<path d="M250.355 194.332C250.355 194.332 199.135 196.804 214.076 212.754C229.018 228.704 259.679 213.431 259.679 213.431L250.355 194.332Z" fill="#CAE8F4"/>
<path opacity="0.1" d="M242.944 42.6927C242.948 46.3663 242.227 50.0047 240.821 53.3986C240.35 53.4527 239.879 53.4866 239.426 53.5069C238.749 52.0205 239.111 50.304 239.124 48.6686C239.138 47.0333 238.535 45.1102 236.961 44.67C233.822 43.7863 231.655 49.6539 228.561 48.5941C226.191 47.7883 226.81 44.1926 225.446 42.1171C224.366 40.475 222.202 40.0112 220.52 38.9819C216.941 36.7845 217.049 33.2701 215.387 29.9453C213.646 26.4613 209.969 27.4906 206.777 29.5457C204.352 31.11 202.26 33.2058 199.667 34.4517C197.422 35.5352 194.899 35.9279 192.411 35.9855C190.879 36.0449 189.346 35.8829 187.86 35.5047C189.608 28.9342 193.686 23.2237 199.333 19.4381C204.981 15.6524 211.813 14.0501 218.554 14.9299C225.296 15.8097 231.488 19.1116 235.975 24.2198C240.461 29.328 242.937 35.8938 242.94 42.6927H242.944Z" fill="black"/>
<path d="M206.787 28.6492C204.359 30.2134 202.27 32.3058 199.677 33.5586C197.432 34.6386 194.91 35.0314 192.421 35.0889C189.374 35.1566 186.093 34.6217 184.011 32.4209C182.098 30.3895 181.641 27.2644 182.45 24.5998C183.259 21.9352 185.199 19.7243 187.478 18.1228C189.756 16.5213 192.401 15.4142 193.911 13.122C194.71 11.9099 195.096 10.4811 195.759 9.1911C197.882 5.06383 202.656 2.82922 207.271 2.55158C211.886 2.27395 216.46 3.64858 220.855 5.13832C225.25 6.62806 229.678 8.26678 234.317 8.57489C236.382 8.70355 238.529 8.57489 240.445 9.357C243.022 10.4032 244.711 12.9053 245.862 15.4514C247.152 18.3225 247.955 21.4578 247.819 24.593C247.535 31.2867 243.113 37.8551 245.056 44.2678C245.571 45.9776 246.536 47.7314 246.021 49.4413C245.27 51.9366 242.05 52.5054 239.446 52.6239C238.769 51.1375 239.131 49.4176 239.145 47.7856C239.158 46.1537 238.556 44.2271 236.985 43.787C233.843 42.9101 231.676 48.7675 228.588 47.7111C226.235 46.9019 226.844 43.3096 225.476 41.2341C224.396 39.5886 222.23 39.1282 220.55 38.0989C216.971 35.9015 217.08 32.3871 215.417 29.0622C213.663 25.5613 209.983 26.5906 206.787 28.6492Z" fill="#021B24"/>
<path d="M157.121 157.488L154.538 158.389C154.538 158.389 155.553 173.665 152.168 178.047C148.782 182.428 163.286 193.32 163.286 193.32C163.286 193.32 183.168 193.208 183.73 191.627C184.292 190.046 182.714 163.322 182.714 163.322C182.714 163.322 172.042 159.164 172.939 152.538C172.939 152.538 169.682 168.15 164.854 167.476C160.026 166.802 154.544 162.77 157.121 157.488Z" fill="white"/>
<path opacity="0.1" d="M165.738 172.203C169.502 172.203 172.553 169.412 172.553 165.97C172.553 162.527 169.502 159.736 165.738 159.736C161.974 159.736 158.922 162.527 158.922 165.97C158.922 169.412 161.974 172.203 165.738 172.203Z" fill="black"/>
<path d="M173.19 157.938C173.19 157.938 171.835 116.605 160.046 125.814C148.257 135.023 148.142 146.037 150.387 149.291C152.631 152.545 159.829 168.834 159.829 168.834C160.955 169.486 162.22 169.863 163.519 169.932C164.819 170.002 166.116 169.763 167.306 169.234C168.495 168.706 169.542 167.903 170.361 166.892C171.18 165.88 171.748 164.689 172.018 163.416L173.19 157.938Z" fill="#CAE8F4"/>
<path opacity="0.1" d="M246.732 53.2395C246.677 53.0579 246.572 52.8958 246.428 52.7723C245.845 52.2407 244.593 52.0545 242.703 52.217L242.781 53.1108C245.3 52.8942 245.798 53.3953 245.862 53.4799V53.5645L245.94 53.6763C246.254 54.0984 246.477 54.5814 246.593 55.0945C246.71 55.6076 246.718 56.1394 246.617 56.6558C246.065 59.4152 242.676 61.6125 242.642 61.6362L242.561 61.6836L242.51 61.7615C241.048 63.9318 232.776 70.0567 230.613 71.6412L230.423 71.4245C229.455 72.2642 220.943 79.7163 220.482 82.5705C220.184 84.3616 218.167 85.0557 217.435 85.2487C216.663 84.6629 214.158 82.6687 212.854 80.4341C211.632 78.3315 216.552 74.228 216.985 72.6265L216.308 71.9324C216.237 72.1897 209.919 78.0945 211.676 81.1112C213.085 83.5321 215.658 85.6042 216.558 86.2881C216.271 88.9019 214.479 104.25 211.727 107.886C208.307 112.406 205.433 135.186 205.751 143.139C206.032 150.205 204.187 163.552 198.025 169.284C196.958 170.32 195.671 171.101 194.26 171.57C192.848 172.039 191.35 172.184 189.875 171.992H189.801H189.726C189.638 171.992 180.7 172.907 173.19 166.575C167.045 161.405 163.564 152.968 162.84 141.49H162.691L162.63 138.148C164.296 137.888 165.796 136.992 166.816 135.649C167.836 134.306 168.295 132.62 168.097 130.945C167.9 129.27 167.061 127.737 165.757 126.668C164.453 125.599 162.785 125.077 161.104 125.212C159.423 125.346 157.86 126.127 156.742 127.391C155.625 128.654 155.041 130.301 155.113 131.986C155.185 133.67 155.907 135.262 157.127 136.426C158.348 137.589 159.972 138.235 161.658 138.226H161.732L161.793 141.547L161.495 141.568C162.24 153.418 165.897 162.184 172.33 167.598C177.219 171.649 183.465 173.693 189.804 173.316C190.254 173.365 190.706 173.39 191.158 173.391C194.064 173.406 196.859 172.281 198.946 170.259C205.436 164.215 207.41 150.378 207.102 143.071C206.763 134.644 209.78 112.684 212.807 108.685C215.773 104.761 217.571 89.4707 217.886 86.5082C218.959 86.2068 221.386 85.2554 221.8 82.7838C222.097 80.9961 227.782 75.4875 231.28 72.4369L231.175 72.315C233.057 70.9404 238.911 66.6066 241.813 63.8235C242.713 62.9601 243.607 62.0967 244.542 61.274C245.666 60.2785 247.095 58.6974 247.47 56.8284C247.599 56.2115 247.599 55.5749 247.472 54.9577C247.345 54.3405 247.094 53.7558 246.732 53.2395Z" fill="black"/>
<path d="M216.443 86.0751C216.301 85.9769 212.929 83.5629 211.239 80.6579C209.485 77.6412 215.803 71.7397 215.871 71.4824L216.548 72.1765C216.118 73.7746 211.199 77.8815 212.421 79.9807C213.961 82.6318 217.205 84.9511 217.239 84.9748L216.443 86.0751Z" fill="#353146"/>
<path d="M230.172 72.2982L229.644 71.5702C229.753 71.4924 240.387 63.7999 242.063 61.3113L242.117 61.2368L242.195 61.186C242.229 61.1623 245.618 58.9684 246.17 56.2056C246.272 55.6897 246.264 55.1583 246.148 54.6456C246.031 54.1329 245.808 53.6505 245.493 53.2295L245.415 53.1143V53.0331C245.348 52.9451 244.85 52.4473 242.331 52.664L242.253 51.7668C244.146 51.6043 245.395 51.7905 245.977 52.3221C246.122 52.4468 246.229 52.6099 246.285 52.7927C246.651 53.3075 246.908 53.8918 247.04 54.5096C247.171 55.1275 247.175 55.7657 247.051 56.385C246.675 58.2573 245.249 59.8385 244.122 60.8305C243.191 61.6533 242.294 62.5234 241.396 63.38C237.994 66.6405 230.545 72.0307 230.172 72.2982Z" fill="white"/>
<path d="M162.193 136.97L161.296 136.986L161.396 142.44L162.293 142.423L162.193 136.97Z" fill="white"/>
<path d="M161.221 137.796C164.839 137.796 167.773 134.863 167.773 131.245C167.773 127.627 164.839 124.693 161.221 124.693C157.603 124.693 154.67 127.627 154.67 131.245C154.67 134.863 157.603 137.796 161.221 137.796Z" fill="#000101"/>
<path d="M161.221 136.686C164.226 136.686 166.662 134.25 166.662 131.245C166.662 128.24 164.226 125.804 161.221 125.804C158.216 125.804 155.78 128.24 155.78 131.245C155.78 134.25 158.216 136.686 161.221 136.686Z" fill="white"/>
<path d="M190.731 172.954C190.279 172.955 189.827 172.931 189.377 172.883C183.039 173.256 176.794 171.213 171.903 167.164C165.47 161.747 161.82 152.991 161.069 141.131L162.423 141.046C163.147 152.524 166.628 160.965 172.777 166.131C180.286 172.446 189.221 171.549 189.309 171.549H189.384H189.458C190.934 171.739 192.433 171.594 193.844 171.125C195.256 170.656 196.543 169.875 197.611 168.84C203.77 163.108 205.615 149.761 205.334 142.695C204.996 134.735 207.87 111.956 211.293 107.439C214.29 103.481 216.148 85.6414 216.169 85.4619L216.22 84.954L216.721 84.866C216.751 84.866 219.676 84.3107 220.042 82.1235C220.516 79.2727 229.014 71.8206 229.979 70.9775L230.863 71.9933C227.352 75.0405 221.667 80.5525 221.383 82.3436C220.97 84.822 218.542 85.77 217.472 86.068C217.134 89.0339 215.349 104.321 212.394 108.245C209.367 112.243 206.35 134.204 206.689 142.631C206.98 149.937 205.026 163.778 198.536 169.819C196.446 171.846 193.643 172.972 190.731 172.954Z" fill="#353146"/>
<g opacity="0.1">
<path opacity="0.1" d="M245.828 34.6891C246.383 32.6374 247.054 30.572 247.521 28.4932C246.962 30.5822 246.289 32.6374 245.828 34.6891Z" fill="black"/>
<path opacity="0.1" d="M240.164 50.8122C239.487 49.3258 239.849 47.6058 239.862 45.9739C239.876 44.342 239.273 42.4324 237.702 41.9753C234.56 41.0984 232.393 46.9592 229.306 45.8994C226.936 45.0902 227.562 41.4979 226.194 39.4224C225.114 37.7769 222.95 37.3165 221.271 36.2872C217.689 34.0898 217.797 30.5754 216.138 27.2505C214.395 23.7632 210.721 24.7925 207.525 26.851C205.097 28.4152 203.008 30.511 200.415 31.7604C198.17 32.8405 195.648 33.2332 193.159 33.2908C190.129 33.3619 186.831 32.8235 184.749 30.6228C183.144 28.9299 182.565 26.4481 182.897 24.1221C182.839 24.2812 182.788 24.4403 182.738 24.5995C181.925 27.2641 182.399 30.3959 184.298 32.4206C186.381 34.6214 189.678 35.1563 192.709 35.0886C195.201 35.0311 197.72 34.6383 199.968 33.5582C202.568 32.3055 204.657 30.2131 207.078 28.6489C210.274 26.5903 213.951 25.561 215.691 29.0484C217.35 32.3732 217.245 35.8877 220.824 38.085C222.517 39.1008 224.667 39.5748 225.751 41.2203C227.105 43.3025 226.506 46.8881 228.862 47.6973C231.947 48.7536 234.113 42.8962 237.255 43.7731C238.826 44.2133 239.432 46.1432 239.416 47.7717C239.399 49.4003 239.046 51.1237 239.717 52.61C242.321 52.4915 245.54 51.9329 246.295 49.4274C246.399 49.0678 246.447 48.6944 246.438 48.3202C245.337 50.2197 242.507 50.7072 240.164 50.8122Z" fill="black"/>
</g>
<path opacity="0.1" d="M301.355 134.237L305.286 138.395C305.286 138.395 308.431 161.307 310.002 163.45C311.573 165.593 315.284 174.119 311.8 180.521C311.8 180.521 310.676 184.005 311.35 185.464C312.024 186.924 306.298 194.227 306.298 194.227C306.298 194.227 298.772 200.964 297.197 201.977C295.623 202.989 287.314 211.074 284.507 211.186C281.701 211.298 280.783 214.782 280.783 214.782L264.944 215.344C264.944 215.344 256.196 214.887 254.293 216.123C254.293 216.123 255.308 202.756 245.534 193.993L258 189.5C258 189.5 262.72 187.469 264.179 185.346C265.097 184.044 266.4 183.063 267.904 182.539C267.904 182.539 271.384 180.067 271.496 178.72C271.608 177.372 275.752 175.72 275.752 175.72L273.405 155.693L274.641 122.445C274.641 122.445 278.572 94.5866 286.884 96.161C295.196 97.7354 301.355 134.237 301.355 134.237Z" fill="black"/>
<path d="M302.709 134.237L306.64 138.395C306.64 138.395 309.786 161.307 311.357 163.45C312.928 165.593 316.638 174.119 313.154 180.521C313.154 180.521 312.034 184.005 312.708 185.464C313.381 186.924 307.653 194.227 307.653 194.227C307.653 194.227 300.126 200.964 298.552 201.977C296.977 202.989 288.668 211.074 285.862 211.186C283.055 211.298 282.137 214.782 282.137 214.782L266.299 215.344C266.299 215.344 257.543 214.887 255.647 216.123C255.647 216.123 256.663 202.756 246.888 193.993L259.354 189.5C259.354 189.5 264.074 187.469 265.533 185.346C266.451 184.044 267.754 183.063 269.258 182.539C269.258 182.539 272.738 180.067 272.85 178.72C272.962 177.372 277.106 175.72 277.106 175.72L274.76 155.693L275.995 122.445C275.995 122.445 279.926 94.5866 288.238 96.161C296.551 97.7354 302.709 134.237 302.709 134.237Z" fill="white"/>
<path opacity="0.1" d="M288.096 167.824C288.096 167.824 299.666 164.777 302.699 168.501C305.733 172.226 288.096 167.824 288.096 167.824Z" fill="black"/>
<path opacity="0.1" d="M285.401 172.934C289.332 175.686 301.463 175.798 301.463 175.798L285.401 172.934Z" fill="black"/>
<path opacity="0.1" d="M291.354 186.693C291.692 186.805 299.693 195.344 303.051 192.761C306.41 190.177 291.354 186.693 291.354 186.693Z" fill="black"/>
<path opacity="0.1" d="M183.604 115.03C183.604 115.03 185.954 131.208 184.796 137.796C183.638 144.385 187.864 152.548 187.864 152.548L183.604 115.03Z" fill="black"/>
<path d="M131.585 121.609C128.877 123.731 126.899 128.756 125.467 134.278C122.968 143.911 122.152 155.08 122.152 155.08C122.152 155.08 100.585 150.137 102.156 147.892C103.145 146.48 101.817 135.842 100.71 128.13C100.05 123.572 99.4609 120.034 99.4609 120.034C99.4609 120.034 139 115.765 131.585 121.609Z" fill="white"/>
<path opacity="0.1" d="M131.585 121.159C128.877 123.285 126.899 128.306 125.467 133.828C121.17 135.133 116.6 135.251 112.241 134.169C107.883 133.087 103.898 130.846 100.71 127.683C100.05 123.123 99.4609 119.584 99.4609 119.584C99.4609 119.584 139 115.318 131.585 121.159Z" fill="black"/>
<path d="M143.178 109.058C143.18 114.947 141.099 120.647 137.303 125.149C133.507 129.651 128.24 132.665 122.436 133.657C116.631 134.65 110.662 133.556 105.586 130.571C100.51 127.586 96.6532 122.901 94.699 117.346C92.7448 111.791 92.8189 105.723 94.9081 100.217C96.9973 94.7114 100.967 90.1221 106.115 87.2617C111.262 84.4012 117.256 83.4541 123.035 84.5878C128.813 85.7215 134.005 88.8631 137.69 93.4564C141.241 97.8811 143.177 103.385 143.178 109.058Z" fill="white"/>
<path opacity="0.1" d="M162.843 264.993H155.733L155.133 252.435L154.507 239.437C154.507 239.437 156.122 239.197 158.695 238.838L159.735 238.699H159.819C160.381 241.337 160.937 244.045 161.472 246.751C162.362 251.553 162.825 256.425 162.856 261.309C162.856 261.648 162.856 261.987 162.856 262.305C162.877 263.209 162.856 264.113 162.843 264.993Z" fill="black"/>
<path d="M161.478 264.993H72.3105C72.6965 264.116 72.9538 263.585 72.9538 263.585C72.9538 263.585 80.0877 232.375 83.7139 219.17C83.715 219.159 83.715 219.147 83.7139 219.136C84.1669 217.342 84.7139 215.574 85.3526 213.837C85.3938 213.719 85.4472 213.606 85.5117 213.499C87.3062 210.58 89.5543 207.435 86.4089 202.942C83.2635 198.449 84.3775 178.679 84.3775 178.679C84.3775 178.679 88.1966 161.828 92.2392 152.843C92.8528 151.451 93.7235 150.187 94.8057 149.118C95.1575 148.774 95.5331 148.455 95.9297 148.163C96.2313 147.937 96.5455 147.728 96.871 147.537L96.9353 147.496C98.6335 146.534 100.519 145.948 102.464 145.78C103.846 145.635 105.24 145.674 106.612 145.895C113.167 146.856 118.415 148.465 122.586 150.296C133.891 155.263 137.314 161.92 137.382 162.059L137.409 162.116C137.863 163.176 144.499 178.669 146.889 185.898C147.509 187.78 147.847 189.104 147.712 189.467C147.035 191.261 152.879 213.726 152.879 213.726C152.879 213.726 155.587 224.56 158.296 237.26C158.414 237.788 158.526 238.317 158.634 238.852C159.119 241.157 159.599 243.507 160.063 245.853C160.962 250.689 161.425 255.595 161.448 260.514C161.498 262.046 161.508 263.54 161.478 264.993Z" fill="#142120"/>
<path opacity="0.1" d="M101.933 138.053C101.933 138.053 95.7807 135.683 95.8552 139.279C95.9297 142.875 97.3551 144.595 96.9048 145.12C96.4544 145.644 97.1282 148.79 97.1282 148.79C97.1282 148.79 105.44 148.79 109.259 150.51C113.079 152.23 127.157 155.676 128.955 156.726C130.752 157.776 137.419 162.482 137.419 162.482L138.018 153.571C138.018 153.571 131.128 147.879 119.823 144.96C108.518 142.042 101.933 138.053 101.933 138.053Z" fill="black"/>
<path d="M101.933 137.603C101.933 137.603 95.7807 135.233 95.8552 138.829C95.9297 142.425 97.3551 144.145 96.9048 144.669C96.4544 145.194 97.1282 148.34 97.1282 148.34C97.1282 148.34 105.44 148.34 109.259 150.063C113.079 151.786 127.157 155.23 128.955 156.276C130.752 157.322 137.419 162.032 137.419 162.032L138.025 153.147C138.025 153.147 131.135 147.456 119.83 144.537C108.525 141.619 101.933 137.603 101.933 137.603Z" fill="#142120"/>
<path opacity="0.1" d="M120.504 159.049C120.504 159.049 132.259 171.776 131.66 175.301C131.061 178.825 120.504 159.049 120.504 159.049Z" fill="black"/>
<path opacity="0.1" d="M101.408 205.024C101.408 205.024 92.7911 212.964 90.2517 213.414C87.7124 213.865 92.1986 215.361 95.1171 214.166C98.0357 212.971 104.259 209.825 104.259 209.825L101.408 205.024Z" fill="black"/>
<path d="M164.979 264.993H144.885C142.074 262.556 139.417 260.297 137.724 258.94C135.015 256.766 133.062 253.566 131.816 250.993C131.535 250.407 131.291 249.859 131.084 249.361C130.714 248.504 130.389 247.628 130.109 246.737L144.99 237.9C145.812 238.6 146.585 239.355 147.302 240.162L147.482 240.369C148.308 241.344 149.036 242.451 149.1 243.358C149.174 244.415 152.113 248.501 155.117 252.425C158.164 256.417 161.285 260.233 161.492 260.49C161.492 260.49 162.007 261.191 162.846 262.268C163.439 263.047 164.17 263.981 164.979 264.993Z" fill="white"/>
<path opacity="0.1" d="M137.69 93.4557C136.975 95.0674 136.336 96.7399 136.241 98.5344C135.973 103.715 136.407 115.297 130.671 117.898C127.83 119.177 124.79 116.367 121.675 116.3C119.434 116.252 117.379 117.674 116.011 119.452C114.643 121.229 113.793 123.339 112.801 125.35C111.898 127.175 110.858 128.93 109.689 130.598C109.34 131.108 108.956 131.594 108.538 132.05C105.041 130.574 101.927 128.32 99.4327 125.458C96.9387 122.597 95.1309 119.203 94.1469 115.537C93.1629 111.871 93.0288 108.029 93.7548 104.303C94.4807 100.577 96.0476 97.0661 98.3359 94.0375C100.624 91.0089 103.574 88.5427 106.96 86.8267C110.346 85.1107 114.079 84.1902 117.874 84.1354C121.67 84.0806 125.427 84.8929 128.861 86.5104C132.296 88.128 135.315 90.508 137.69 93.4693V93.4557Z" fill="black"/>
<path d="M135.79 97.621C135.52 102.801 135.956 114.384 130.217 116.981C127.377 118.261 124.336 115.454 121.221 115.386C118.98 115.335 116.928 116.761 115.557 118.535C114.186 120.309 113.343 122.422 112.347 124.436C111.444 126.262 110.404 128.016 109.236 129.684C108.538 130.673 107.766 131.665 106.693 132.22C104.824 133.195 102.559 132.647 100.555 132.021C97.9543 131.201 95.3924 130.278 92.8689 129.251C92.9268 128.87 92.9562 128.485 92.9569 128.1C92.8824 128.242 92.8012 128.374 92.7199 128.516L92.5608 128.794C92.273 129.302 91.992 129.81 91.7346 130.331C91.6365 130.531 91.5416 130.737 91.457 130.944C91.1165 131.713 90.9027 132.531 90.8239 133.368C90.6512 135.626 91.7651 137.77 92.7538 139.801C96.556 147.659 98.9057 156.849 96.0447 165.093C94.8055 168.678 92.659 171.864 91.0913 175.328C88.351 181.463 87.5444 188.287 88.7788 194.891C89.561 198.995 91.1286 203.058 90.7426 207.219C90.0655 214.38 83.8898 219.709 77.704 223.372C74.3622 225.343 70.2722 227.097 66.7239 225.539C68.9856 222.898 69.5679 219.245 70.0555 215.798C71.3895 206.397 72.7269 196.991 74.0676 187.581C74.6026 183.837 75.1364 180.092 75.6691 176.347C76.6645 169.312 77.6735 162.198 77.0505 155.118C76.5968 149.901 75.317 144.362 77.5787 139.639C78.7739 137.136 80.9035 135.064 81.5671 132.369C82.1123 130.179 81.6044 127.849 81.9633 125.618C82.1597 124.603 82.4923 123.619 82.9519 122.693C83.5372 121.436 84.3013 120.27 85.2204 119.232C84.313 118.968 83.4666 118.606 82.9519 117.848C84.4078 116.9 84.6279 114.763 83.9677 113.158C83.3074 111.554 81.987 110.331 80.7986 109.065C79.6102 107.799 78.4658 106.323 78.3168 104.596C78.029 101.308 81.3132 98.7621 81.8922 95.5185C82.4779 92.2173 80.162 89.0076 80.3483 85.6659C80.5649 81.6266 84.2758 78.6912 87.9392 76.9881C93.4674 74.429 99.5743 73.3777 105.64 73.9409C110.577 74.4081 115.354 75.9351 120.277 76.5276C123.246 76.8662 126.256 76.9001 129.205 77.4215C132.154 77.9429 135.11 79.0433 137.185 81.2068C142.657 86.9118 136.102 91.6079 135.79 97.621Z" fill="#FFE0D0"/>
<path opacity="0.1" d="M131.213 250.997C129.486 250.249 126.344 250.695 120.951 249.053C115.557 247.411 114.518 239.99 114.518 239.99V239.966C114.453 239.797 113.952 238.693 110.56 234.826C106.812 230.557 98.7094 208.993 98.7094 208.993C98.7094 208.993 91.5248 201.277 91.7516 198.433C91.9785 195.588 90.4752 188.021 90.6242 179.557C90.7732 171.092 106.798 165.479 106.798 165.479C137.653 160.011 130.387 195.582 129.564 198.277C128.741 200.972 133.011 208.251 133.011 208.251C132.408 211.42 135.482 216.326 135.482 216.326C135.482 216.326 136.227 220.667 136.38 222.316C136.388 222.392 136.405 222.467 136.43 222.539C136.925 224.093 140.954 225.502 142.593 226.358C144.316 227.259 149.858 235.121 149.858 235.121C151.054 240.894 132.933 251.755 131.213 250.997Z" fill="black"/>
<path d="M132.11 249.642C130.387 248.89 127.241 249.341 121.851 247.695C116.461 246.05 115.418 238.635 115.418 238.635V238.611C115.357 238.438 114.853 237.338 111.46 233.471C107.712 229.202 99.6099 207.635 99.6099 207.635C99.6099 207.635 92.4252 199.922 92.6487 197.078C92.8721 194.234 91.3756 186.666 91.5246 178.209C91.6736 169.751 107.688 164.141 107.688 164.141C138.543 158.673 131.277 194.244 130.454 196.939C129.632 199.634 133.901 206.913 133.901 206.913C133.298 210.082 136.373 214.988 136.373 214.988C136.373 214.988 137.118 219.329 137.273 220.978C137.279 221.054 137.295 221.129 137.321 221.201C137.815 222.755 141.844 224.164 143.486 225.021C145.206 225.918 150.752 233.783 150.752 233.783C151.954 239.546 133.833 250.407 132.11 249.642Z" fill="#142120"/>
<path opacity="0.1" d="M108.298 182.712C108.298 182.712 121.777 196.932 125.294 196.932C128.812 196.932 108.298 182.712 108.298 182.712Z" fill="black"/>
<path d="M132.11 249.643C130.387 248.891 127.241 249.341 121.851 247.696C116.461 246.05 115.418 238.635 115.418 238.635V238.612C118.99 236.242 128.037 229.548 131.602 227.1C134.111 225.383 136.16 222.861 137.358 221.188C137.852 222.743 141.881 224.151 143.524 225.008C145.244 225.905 150.789 233.77 150.789 233.77C151.954 239.546 133.833 250.408 132.11 249.643Z" fill="#142120"/>
<g opacity="0.1">
<path opacity="0.1" d="M82.9722 117.884C82.9891 117.911 83.0128 117.935 83.0331 117.962C83.1347 117.834 83.2396 117.705 83.348 117.583C83.2326 117.695 83.1068 117.796 82.9722 117.884Z" fill="black"/>
<path opacity="0.1" d="M90.8272 133.405C90.9695 131.525 91.975 129.87 92.9163 128.218C92.3001 127.981 91.6838 127.74 91.0744 127.49C91.1325 127.11 91.1619 126.726 91.1624 126.342C90.211 128.035 89.175 129.7 89.0294 131.607C88.8567 133.868 89.9706 136.008 90.9593 138.04C94.7649 145.895 97.1113 155.084 94.2503 163.331C93.0077 166.914 90.8645 170.103 89.2969 173.567C86.5575 179.7 85.7521 186.523 86.9878 193.126C87.7631 197.233 89.3341 201.293 88.9481 205.454C88.271 212.615 82.0987 217.944 75.9095 221.604C73.3803 223.101 70.4245 224.472 67.5974 224.374C67.3357 224.795 67.0438 225.197 66.7239 225.576C70.2756 227.143 74.3622 225.379 77.704 223.402C83.8966 219.745 90.0824 214.43 90.7595 207.255C91.1455 203.094 89.5745 199.035 88.7958 194.928C87.5597 188.325 88.3627 181.503 91.0981 175.368C92.6556 171.908 94.8225 168.715 96.0515 165.133C98.9125 156.885 96.5628 147.696 92.7605 139.841C91.7753 137.796 90.6546 135.666 90.8272 133.405Z" fill="black"/>
<path opacity="0.1" d="M137.179 81.2469C136.846 80.9052 136.488 80.5883 136.109 80.2988C140.212 85.6213 134.287 90.1447 133.993 95.8734C133.728 101.054 134.162 112.64 128.423 115.233C125.586 116.517 122.542 113.706 119.43 113.639C117.186 113.591 115.134 115.017 113.763 116.791C112.391 118.565 111.548 120.678 110.556 122.689C109.651 124.514 108.61 126.268 107.441 127.937C106.764 128.929 105.972 129.917 104.895 130.476C103.033 131.448 100.768 130.903 98.7602 130.273C96.8077 129.659 94.8733 128.982 92.9569 128.241C92.953 128.594 92.9236 128.946 92.8689 129.294C95.3947 130.324 97.9577 131.247 100.558 132.064C102.562 132.694 104.827 133.239 106.693 132.267C107.766 131.708 108.545 130.716 109.239 129.724C110.409 128.058 111.449 126.305 112.351 124.48C113.346 122.469 114.186 120.353 115.56 118.578C116.935 116.804 118.983 115.382 121.225 115.43C124.34 115.497 127.384 118.308 130.221 117.024C135.96 114.431 135.523 102.845 135.79 97.6645C136.102 91.6412 142.657 86.9485 137.179 81.2469Z" fill="black"/>
</g>
<path opacity="0.1" d="M92.5642 128.797C92.2764 129.305 91.9954 129.813 91.738 130.334C91.6398 130.534 91.545 130.74 91.4604 130.947C89.6863 129.159 85.366 124.91 82.9553 123.593C83.5415 122.337 84.3055 121.171 85.2238 120.133C85.2238 120.133 90.9695 123.17 92.5642 128.797Z" fill="black"/>
<path d="M92.7233 128.519C91.3927 122.496 85.2238 119.235 85.2238 119.235C84.3047 120.273 83.5406 121.439 82.9553 122.696C85.498 124.087 90.184 128.753 91.738 130.334L92.7233 128.519Z" fill="#142120"/>
<defs>
<linearGradient id="paint0_linear_1_149" x1="247.173" y1="32.2992" x2="247.173" y2="26.0762" gradientUnits="userSpaceOnUse">
<stop stop-color="#808080" stop-opacity="0.41"/>
<stop offset="0.54" stop-color="#808080" stop-opacity="0.12"/>
<stop offset="1" stop-color="#808080" stop-opacity="0.1"/>
</linearGradient>
<linearGradient id="paint1_linear_1_149" x1="155330" y1="222955" x2="155330" y2="15544.9" gradientUnits="userSpaceOnUse">
<stop stop-color="#808080" stop-opacity="0.25"/>
<stop offset="0.54" stop-color="#808080" stop-opacity="0.12"/>
<stop offset="1" stop-color="#808080" stop-opacity="0.1"/>
</linearGradient>
</defs>
</svg>
