<svg width="12" height="12" viewBox="0 0 12 12" fill="none" xmlns="http://www.w3.org/2000/svg">
<path d="M5.22978 0.364708C5.36942 -0.121332 6.05815 -0.121331 6.19779 0.364708L7.17072 3.75114C7.23273 3.96698 7.43016 4.11567 7.65473 4.11567H10.923C11.3957 4.11567 11.608 4.70823 11.2427 5.00835L8.4963 7.26498C8.3411 7.3925 8.27653 7.60006 8.332 7.79313L9.3553 11.3549C9.49179 11.83 8.93351 12.1968 8.55159 11.883L6.03348 9.81398C5.84769 9.66131 5.57988 9.66131 5.39408 9.81398L2.87597 11.883C2.49406 12.1968 1.93577 11.83 2.07226 11.3549L3.09557 7.79313C3.15104 7.60006 3.08646 7.3925 2.93126 7.26498L0.184859 5.00835C-0.180395 4.70823 0.0318212 4.11567 0.50456 4.11567H3.77284C3.9974 4.11567 4.19483 3.96698 4.25684 3.75114L5.22978 0.364708Z" fill="#FFA600"/>
</svg>
