<svg width="30" height="30" viewBox="0 0 30 30" fill="none" xmlns="http://www.w3.org/2000/svg">
<g clip-path="url(#clip0_6_1227)">
<path d="M2.75534 16.9679C2.41033 15.3384 2.41033 13.6547 2.75534 12.0252C4.08698 12.1812 5.25067 11.7409 5.62977 10.8244C6.01007 9.90662 5.5002 8.77292 4.44689 7.94155C5.35509 6.54551 6.54551 5.35509 7.94155 4.44689C8.77172 5.499 9.90662 6.01007 10.8244 5.62977C11.7421 5.24947 12.1824 4.08698 12.0252 2.75534C13.6547 2.41033 15.3384 2.41033 16.9679 2.75534C16.812 4.08698 17.2522 5.25067 18.1688 5.62977C19.0865 6.01007 20.2202 5.5002 21.0516 4.44689C22.4476 5.35509 23.6381 6.54551 24.5463 7.94155C23.4942 8.77172 22.9831 9.90662 23.3634 10.8244C23.7437 11.7421 24.9062 12.1824 26.2378 12.0252C26.5828 13.6547 26.5828 15.3384 26.2378 16.9679C24.9062 16.812 23.7425 17.2522 23.3634 18.1688C22.9831 19.0865 23.493 20.2202 24.5463 21.0516C23.6381 22.4476 22.4476 23.6381 21.0516 24.5463C20.2214 23.4942 19.0865 22.9831 18.1688 23.3634C17.251 23.7437 16.8108 24.9062 16.9679 26.2378C15.3384 26.5828 13.6547 26.5828 12.0252 26.2378C12.1812 24.9062 11.7409 23.7425 10.8244 23.3634C9.90662 22.9831 8.77292 23.493 7.94155 24.5463C6.54551 23.6381 5.35509 22.4476 4.44689 21.0516C5.499 20.2214 6.01007 19.0865 5.62977 18.1688C5.24947 17.251 4.08698 16.8108 2.75534 16.9679ZM4.89917 14.7485C6.21881 15.1144 7.30692 15.9506 7.84677 17.251C8.38543 18.5527 8.20668 19.9143 7.53246 21.1044C7.64763 21.2268 7.76639 21.3455 7.88876 21.4607C9.08004 20.7865 10.4405 20.6089 11.7421 21.1464C13.0426 21.6862 13.8787 22.7744 14.2446 24.094C14.4126 24.0988 14.5806 24.0988 14.7485 24.094C15.1144 22.7744 15.9506 21.6862 17.251 21.1464C18.5527 20.6077 19.9143 20.7865 21.1044 21.4607C21.2268 21.3455 21.3455 21.2268 21.4607 21.1044C20.7865 19.9131 20.6089 18.5527 21.1464 17.251C21.6862 15.9506 22.7744 15.1144 24.094 14.7485C24.0988 14.5806 24.0988 14.4126 24.094 14.2446C22.7744 13.8787 21.6862 13.0426 21.1464 11.7421C20.6077 10.4405 20.7865 9.07884 21.4607 7.88876C21.3451 7.76687 21.2263 7.64806 21.1044 7.53246C19.9131 8.20668 18.5527 8.38423 17.251 7.84677C15.9506 7.30692 15.1144 6.21881 14.7485 4.89917C14.5806 4.89472 14.4126 4.89472 14.2446 4.89917C13.8787 6.21881 13.0426 7.30692 11.7421 7.84677C10.4405 8.38543 9.07884 8.20668 7.88876 7.53246C7.76642 7.6476 7.6476 7.76642 7.53246 7.88876C8.20668 9.08004 8.38423 10.4405 7.84677 11.7421C7.30692 13.0426 6.21881 13.8787 4.89917 14.2446C4.89437 14.4126 4.89437 14.5806 4.89917 14.7485ZM14.4966 18.0956C13.5421 18.0956 12.6266 17.7164 11.9517 17.0415C11.2767 16.3665 10.8975 15.4511 10.8975 14.4966C10.8975 13.5421 11.2767 12.6266 11.9517 11.9517C12.6266 11.2767 13.5421 10.8975 14.4966 10.8975C15.4511 10.8975 16.3665 11.2767 17.0415 11.9517C17.7164 12.6266 18.0956 13.5421 18.0956 14.4966C18.0956 15.4511 17.7164 16.3665 17.0415 17.0415C16.3665 17.7164 15.4511 18.0956 14.4966 18.0956ZM14.4966 15.6963C14.8148 15.6963 15.1199 15.5699 15.3449 15.3449C15.5699 15.1199 15.6963 14.8148 15.6963 14.4966C15.6963 14.1784 15.5699 13.8733 15.3449 13.6483C15.1199 13.4233 14.8148 13.2969 14.4966 13.2969C14.1784 13.2969 13.8733 13.4233 13.6483 13.6483C13.4233 13.8733 13.2969 14.1784 13.2969 14.4966C13.2969 14.8148 13.4233 15.1199 13.6483 15.3449C13.8733 15.5699 14.1784 15.6963 14.4966 15.6963Z" fill="#2854C3"/>
<circle cx="15" cy="15" r="14" stroke="#2854C3" stroke-width="2"/>
</g>
<defs>
<clipPath id="clip0_6_1227">
<rect width="30" height="30" fill="white"/>
</clipPath>
</defs>
</svg>
