<svg width="18" height="21" viewBox="0 0 18 21" fill="none" xmlns="http://www.w3.org/2000/svg">
<path fill-rule="evenodd" clip-rule="evenodd" d="M16.2106 9.8V15L18 17V18H1.89478V17L3.68425 15V9C3.68425 5.9 5.47372 3.2 8.15793 2.3V2C8.15793 0.9 8.9632 0 9.94741 0C10.4842 0 11.0211 0.3 11.2895 0.7C10.5737 1.6 10.0369 2.7 9.94741 4C7.44214 4 5.47372 6.2 5.47372 9V16H14.4211V10H14.8685C15.3158 10 15.7632 9.9 16.2106 9.8ZM9.94741 21C8.9632 21 8.15793 20.1 8.15793 19H11.7369C11.7369 20.1 10.9316 21 9.94741 21Z" fill="white"/>
<path fill-rule="evenodd" clip-rule="evenodd" d="M16.2106 9.8V15L18 17V18H1.89478V17L3.68425 15V9C3.68425 5.9 5.47372 3.2 8.15793 2.3V2C8.15793 0.9 8.9632 0 9.94741 0C10.4842 0 11.0211 0.3 11.2895 0.7C10.5737 1.6 10.0369 2.7 9.94741 4C7.44214 4 5.47372 6.2 5.47372 9V16H14.4211V10H14.8685C15.3158 10 15.7632 9.9 16.2106 9.8ZM9.94741 21C8.9632 21 8.15793 20.1 8.15793 19H11.7369C11.7369 20.1 10.9316 21 9.94741 21Z" fill="white" fill-opacity="0.2"/>
<path d="M18 4.5C18 6.4 16.5685 8 14.8685 8C13.1685 8 11.7369 6.4 11.7369 4.5C11.7369 2.6 13.1685 1 14.8685 1C16.5685 1 18 2.6 18 4.5Z" fill="white"/>
<path d="M18 4.5C18 6.4 16.5685 8 14.8685 8C13.1685 8 11.7369 6.4 11.7369 4.5C11.7369 2.6 13.1685 1 14.8685 1C16.5685 1 18 2.6 18 4.5Z" fill="#EC1F1F"/>
</svg>
