<svg width="10" height="10" viewBox="0 0 10 10" fill="none" xmlns="http://www.w3.org/2000/svg">
<g clip-path="url(#clip0_38_481)">
<path d="M4.44417 9.62958C4.34 9.51292 4.22167 9.38042 4.13167 9.36292C3.98622 9.3691 3.84514 9.41444 3.72333 9.49417L3.72625 9.49208C3.57917 9.57858 3.41516 9.6323 3.24542 9.64958L3.24042 9.65H3.23625C3.18377 9.65005 3.1318 9.63972 3.08333 9.61958L3.08583 9.62042C2.88125 9.53542 2.79833 9.29875 2.71917 9.06958C2.68742 8.9316 2.622 8.80363 2.52875 8.69708L2.52958 8.69792C2.45753 8.66293 2.37725 8.64837 2.2975 8.65583H2.29917C2.23833 8.65583 2.17417 8.65958 2.11 8.66333C2.04083 8.6675 1.97167 8.67083 1.90583 8.67083C1.82678 8.67829 1.74702 8.67005 1.67116 8.6466C1.59529 8.62315 1.52481 8.58494 1.46375 8.53417L1.46458 8.535C1.39903 8.44153 1.35384 8.33534 1.33195 8.22329C1.31005 8.11125 1.31195 7.99585 1.3375 7.88458L1.33667 7.89C1.36108 7.74751 1.34904 7.60116 1.30167 7.46458L1.30333 7.47083C1.19872 7.37886 1.07308 7.31404 0.9375 7.28208L0.931667 7.28083C0.7025 7.20125 0.465 7.11875 0.380833 6.91417C0.356689 6.80382 0.355816 6.68966 0.378272 6.57896C0.400727 6.46826 0.446017 6.36346 0.51125 6.27125L0.509583 6.27375C0.585707 6.15155 0.629709 6.01209 0.6375 5.86833V5.86625C0.62 5.77583 0.4875 5.65792 0.370833 5.55375C0.188333 5.39208 0 5.22417 0 4.99958C0 4.775 0.188333 4.60708 0.370417 4.44417C0.487083 4.34 0.619583 4.22167 0.637083 4.13167C0.628627 3.98651 0.583467 3.84587 0.505833 3.72292L0.507917 3.72625C0.442866 3.63334 0.397957 3.52785 0.376071 3.41656C0.354186 3.30527 0.355808 3.19063 0.380833 3.08L0.38 3.08542C0.465 2.88083 0.701667 2.79792 0.930833 2.71875C1.075 2.685 1.20042 2.61875 1.30333 2.52792L1.3025 2.52875C1.34947 2.39233 1.36066 2.24614 1.335 2.10417L1.33583 2.10917C1.31128 1.99812 1.31008 1.88317 1.33232 1.77163C1.35455 1.66009 1.39974 1.5544 1.465 1.46125L1.46333 1.46375C1.52471 1.41318 1.59546 1.37522 1.67154 1.35205C1.74762 1.32889 1.82752 1.32097 1.90667 1.32875H1.90417C1.97083 1.32875 2.03958 1.3325 2.10833 1.33625C2.1725 1.34 2.23667 1.34375 2.2975 1.34375C2.37761 1.35109 2.45819 1.33624 2.53042 1.30083L2.52792 1.30208C2.6175 1.19958 2.68375 1.07458 2.71625 0.93625L2.7175 0.930417C2.7975 0.70125 2.88 0.46375 3.08417 0.379583C3.13189 0.360022 3.18301 0.350108 3.23458 0.350417H3.23917H3.23875C3.42042 0.369167 3.58542 0.425417 3.73083 0.51125L3.725 0.508333C3.8453 0.587438 3.98489 0.632239 4.12875 0.637917H4.13042C4.22083 0.620417 4.33875 0.487917 4.44292 0.37125C4.60708 0.188333 4.77542 0 5 0C5.22458 0 5.3925 0.188333 5.55542 0.370833C5.65958 0.4875 5.77792 0.62 5.86792 0.6375C6.01333 0.630787 6.15431 0.58533 6.27625 0.505833L6.27292 0.507917C6.42012 0.421441 6.58429 0.367853 6.75417 0.350833L6.75917 0.350417H6.76333C6.8175 0.350417 6.86917 0.36125 6.91625 0.380833L6.91375 0.38C7.11833 0.465 7.20125 0.701667 7.28042 0.930833C7.31417 1.075 7.38042 1.2 7.47083 1.30333L7.47 1.3025C7.54221 1.33744 7.62268 1.35172 7.7025 1.34375H7.70083C7.76167 1.34375 7.82583 1.34 7.89 1.33667C7.95917 1.33292 8.02833 1.32917 8.09417 1.32917C8.17329 1.32177 8.25309 1.33003 8.32901 1.35348C8.40494 1.37693 8.4755 1.41511 8.53667 1.46583L8.53583 1.465C8.60118 1.55857 8.64621 1.66478 8.66802 1.7768C8.68984 1.88882 8.68796 2.00417 8.6625 2.11542L8.66333 2.11C8.63885 2.25251 8.65104 2.39891 8.69875 2.53542L8.69708 2.52958C8.79917 2.61958 8.92458 2.68583 9.06292 2.71792L9.06875 2.71917C9.29792 2.79917 9.53542 2.88167 9.61958 3.08583C9.64348 3.19617 9.64427 3.31025 9.62189 3.4209C9.59952 3.53155 9.55447 3.63637 9.48958 3.72875L9.49125 3.72625C9.41492 3.84752 9.37049 3.98612 9.36208 4.12917V4.13167C9.37958 4.22208 9.51208 4.34 9.62875 4.44417C9.8125 4.60792 10.0008 4.77583 10.0008 5.00042C10.0008 5.225 9.8125 5.39333 9.63 5.55625C9.51333 5.66042 9.38083 5.77833 9.36333 5.86875C9.3725 6.02 9.41958 6.15875 9.49458 6.27792L9.4925 6.27417C9.55756 6.36699 9.60248 6.47241 9.62437 6.58364C9.64626 6.69486 9.64463 6.80944 9.61958 6.92L9.62042 6.91458C9.53583 7.11958 9.29875 7.20208 9.06958 7.28125C8.93151 7.31299 8.8035 7.37857 8.69708 7.47208L8.69792 7.47125C8.65094 7.60767 8.63975 7.75386 8.66542 7.89583L8.66458 7.89083C8.68908 8.00182 8.69025 8.11669 8.66801 8.22815C8.64578 8.33961 8.60062 8.44524 8.53542 8.53833L8.53708 8.53583C8.47582 8.5865 8.40517 8.62458 8.32916 8.64789C8.25316 8.6712 8.1733 8.67928 8.09417 8.67167H8.09667C8.03 8.67167 7.96125 8.66792 7.8925 8.66417C7.82953 8.65986 7.76645 8.65736 7.70333 8.65667C7.62322 8.64918 7.5426 8.66403 7.47042 8.69958L7.47292 8.69833C7.38122 8.80308 7.31657 8.92868 7.28458 9.06417L7.28333 9.07C7.20333 9.29917 7.12083 9.53667 6.91667 9.62083C6.86895 9.6404 6.81782 9.65031 6.76625 9.65H6.76167H6.76208C6.58841 9.63268 6.42061 9.57765 6.27042 9.48875L6.27583 9.49167C6.15559 9.41252 6.01594 9.36784 5.87208 9.3625H5.87042C5.78 9.38 5.66208 9.5125 5.55792 9.62917C5.39333 9.81167 5.22542 10 5.00042 10C4.77542 10 4.60792 9.81167 4.44458 9.62958H4.44417ZM5.91583 3.04542L3.8825 6.74042C3.87671 6.75093 3.87377 6.76278 3.87395 6.77478C3.87412 6.78678 3.87742 6.79853 3.88352 6.80887C3.88961 6.81921 3.8983 6.82779 3.90871 6.83376C3.91912 6.83973 3.93091 6.84288 3.94292 6.84292H4.29583C4.30809 6.84294 4.32013 6.83966 4.33069 6.83343C4.34124 6.8272 4.34993 6.81824 4.35583 6.8075V6.80708L6.38625 3.11167C6.39203 3.10115 6.39498 3.08931 6.3948 3.0773C6.39463 3.0653 6.39133 3.05355 6.38523 3.04321C6.37914 3.03287 6.37045 3.02429 6.36004 3.01832C6.34963 3.01236 6.33784 3.0092 6.32583 3.00917H5.97625C5.9639 3.0092 5.95178 3.01254 5.94115 3.01884C5.93053 3.02514 5.92179 3.03418 5.91583 3.045V3.04542ZM5.6225 4.94083C5.56955 4.98461 5.52693 5.03954 5.49769 5.1017C5.46844 5.16386 5.4533 5.23172 5.45333 5.30042V6.30083C5.45333 6.44417 5.51917 6.57208 5.62208 6.65625L5.62292 6.65708C5.72958 6.74625 5.86792 6.8 6.01917 6.8C6.17042 6.8 6.30875 6.74583 6.41625 6.65625L6.41542 6.65708C6.51958 6.5725 6.58542 6.44458 6.58542 6.30125V5.30125C6.58542 5.15792 6.52083 5.02917 6.41958 4.94333L6.41875 4.94292C6.31315 4.84803 6.17614 4.79563 6.03417 4.79583H6.02125H6.02208H6.00917C5.8668 4.79563 5.72927 4.8475 5.6225 4.94167L5.62333 4.94125L5.6225 4.94083ZM3.85417 3.14625C3.80122 3.19002 3.7586 3.24495 3.72936 3.30712C3.70011 3.36928 3.68497 3.43714 3.685 3.50583V4.50583C3.685 4.64958 3.75042 4.77833 3.85375 4.86292L3.85458 4.86375C3.96125 4.95417 4.1 5.00875 4.25167 5.00875C4.40333 5.00875 4.5425 4.95375 4.64958 4.86292L4.64875 4.86375C4.75375 4.77833 4.82 4.64958 4.82 4.505V3.5075C4.82 3.36292 4.75458 3.23417 4.65125 3.14833L4.65042 3.14792C4.53915 3.05315 4.39775 3.00113 4.25159 3.00121C4.10543 3.00128 3.96409 3.05345 3.85292 3.14833L3.85375 3.1475L3.85417 3.14625ZM5.92833 6.355C5.91937 6.34787 5.91214 6.3388 5.90716 6.32849C5.90218 6.31817 5.89959 6.30687 5.89958 6.29542V5.295C5.89958 5.27083 5.91083 5.24958 5.92792 5.23583C5.94954 5.21707 5.9772 5.20671 6.00583 5.20667H6.01125H6.01083H6.01583C6.04453 5.20664 6.0723 5.21684 6.09417 5.23542C6.10307 5.24251 6.11028 5.2515 6.11525 5.26174C6.12022 5.27198 6.12284 5.2832 6.12292 5.29458V6.29542C6.12292 6.30677 6.12038 6.31798 6.11548 6.32822C6.11058 6.33846 6.10343 6.34747 6.09458 6.35458C6.07208 6.37292 6.04292 6.38375 6.01125 6.38375C5.97958 6.38375 5.95042 6.37292 5.9275 6.35417H5.92792L5.92833 6.355ZM4.16167 4.56083C4.15275 4.55366 4.14555 4.54459 4.14057 4.53428C4.1356 4.52398 4.13299 4.51269 4.13292 4.50125V3.50125C4.13292 3.47708 4.14417 3.45583 4.16125 3.44167C4.18375 3.42333 4.21292 3.4125 4.24458 3.4125C4.27625 3.4125 4.30542 3.42333 4.32833 3.44208H4.32792C4.33688 3.44922 4.34411 3.45828 4.34909 3.46859C4.35407 3.47891 4.35666 3.49021 4.35667 3.50167V4.50208C4.35665 4.51349 4.3541 4.52476 4.3492 4.53506C4.3443 4.54536 4.33717 4.55445 4.32833 4.56167C4.30583 4.58 4.27667 4.59083 4.245 4.59083C4.21333 4.59083 4.18417 4.58 4.16125 4.56125H4.16167V4.56083Z" fill="#2854C3"/>
</g>
<defs>
<clipPath id="clip0_38_481">
<rect width="10" height="10" fill="white"/>
</clipPath>
</defs>
</svg>
