<svg width="59" height="63" viewBox="0 0 59 63" fill="none" xmlns="http://www.w3.org/2000/svg">
<path d="M41.0971 11.2638C40.5731 11.2638 40.0707 11.5037 39.7002 11.9308C39.3298 12.3578 39.1216 12.937 39.1216 13.5409C39.1216 14.1448 39.3298 14.724 39.7002 15.151C40.0707 15.5781 40.5731 15.818 41.0971 15.818C42.2468 15.818 43.2266 16.2096 43.9377 16.9383C44.6331 17.6533 45.2534 18.8647 45.4153 20.8959C45.4278 21.2029 45.4941 21.5038 45.6102 21.7804C45.7263 22.0571 45.8897 22.3039 46.0907 22.5058C46.2917 22.7077 46.5261 22.8606 46.7797 22.9554C47.0334 23.0501 47.301 23.0846 47.5666 23.0569C47.8321 23.0293 48.09 22.9399 48.3248 22.7943C48.5596 22.6486 48.7663 22.4497 48.9327 22.2095C49.099 21.9692 49.2214 21.6927 49.2925 21.3965C49.3636 21.1003 49.382 20.7906 49.3465 20.486C49.1134 17.5076 48.1335 15.144 46.5572 13.5318C44.9966 11.9378 43.033 11.2638 41.0971 11.2638ZM25.3134 3.65836C21.6154 0.215416 17.5104 -0.517804 13.8361 0.311054C10.415 1.12065 7.29721 3.13724 4.91507 6.08118C2.5327 9.06871 0.197739 12.8487 0.0120486 18.3774C-0.0748704 21.119 0.276757 25.0948 2.11391 28.0732L2.12181 28.0823C4.54369 31.9579 5.7645 34.7997 6.26231 38.4977C6.42035 39.6818 6.51122 40.9706 6.53097 42.4462C6.55072 45.379 7.08409 49.4095 8.37207 53.0756C9.6482 56.6961 11.8212 60.3987 15.3651 61.9061L15.452 61.9425L15.5429 61.9699C17.6131 62.6074 19.5412 62.3797 20.9951 60.8085C22.2752 59.4286 22.8125 57.3747 23.1088 55.5257C23.3853 53.8134 23.5236 51.8277 23.6619 49.874L23.7093 49.1772C23.8674 46.9411 24.0491 44.7141 24.4244 42.6101C25.4754 36.8127 26.9806 35.7925 27.6799 35.5512C29.6198 34.9728 30.7577 35.3644 31.5123 35.9975C32.6106 36.9174 33.4482 38.7983 34.0329 41.5718C34.5979 44.2724 34.8231 47.3282 35.0206 50.1199C35.3051 54.0638 36.0281 57.6525 37.407 59.9478C38.1181 61.141 39.1335 62.1794 40.5044 62.5209C41.8872 62.8625 43.2305 62.3843 44.4158 61.5008C48.7775 58.2946 51.3021 51.6319 51.9935 42.8059C52.3096 38.8393 52.6612 36.9129 53.1709 35.3918C53.566 34.2077 54.0519 33.2513 54.8224 31.7393C55.3085 30.7853 55.7865 29.8258 56.2565 28.8611C57.2205 26.8755 58.8048 23.2595 58.9826 19.0241C59.1723 14.6248 57.8369 9.76549 53.3289 5.53923C49.0225 1.50424 45.0084 0.0423583 41.425 0.265512C37.8771 0.49322 35.0364 2.35132 33.0175 4.34604L32.9662 4.39158L32.9227 4.45079C30.9473 6.68233 30.0386 7.07854 29.446 7.04666C28.7822 7.01933 27.6997 6.42274 25.4754 3.83598L25.3963 3.74489L25.3134 3.66747V3.65836ZM7.8229 9.16434C9.63455 6.93771 11.9979 5.40939 14.5907 4.7878C17.2101 4.19575 20.0706 4.67849 22.7493 7.13319C24.8827 9.60154 26.9372 11.487 29.28 11.6008C31.7138 11.7192 33.7169 9.91578 35.637 7.75711C37.2055 6.22236 39.2323 4.96541 41.6423 4.81512C44.0444 4.66483 47.1221 5.58933 50.8359 9.07326C54.3443 12.3614 55.1661 15.8134 55.0397 18.8009C54.9053 21.9479 53.7003 24.7988 52.8074 26.6432C52.3978 27.498 51.9763 28.3452 51.5431 29.1844C50.7056 30.8194 50.0023 32.1947 49.4847 33.7477C48.7736 35.8745 48.3824 38.3155 48.0624 42.3961C47.4105 50.6846 45.1151 55.5895 42.2902 57.6662L42.2784 57.6753C41.666 58.1307 41.3855 58.0852 41.3302 58.0669C41.259 58.0487 41.0141 57.9531 40.6585 57.3565C39.8881 56.0813 39.2283 53.4946 38.9596 49.7419L38.9557 49.6873C38.7581 46.973 38.5171 43.5847 37.8732 40.5061C37.241 37.4776 36.119 34.2259 33.8393 32.3131C31.9192 30.7055 29.4934 30.2957 26.6488 31.1518L26.6053 31.1655C23.7409 32.1219 21.7062 35.3326 20.5565 41.6856C20.1219 44.0902 19.9283 46.5722 19.7703 48.8038L19.7229 49.4869C19.5846 51.4907 19.4621 53.2304 19.2251 54.6878C18.9485 56.3728 18.593 57.1607 18.2966 57.484C18.1742 57.6206 17.8423 57.9394 16.6491 57.5933C14.6658 56.7098 13.1171 54.4373 12.0345 51.3632C11.0612 48.505 10.5355 45.4705 10.4818 42.4006V42.3824C10.4689 40.8486 10.3632 39.3178 10.1658 37.8009C9.53758 33.1329 7.95328 29.6171 5.32991 25.4273C4.24737 23.6648 3.88784 20.9095 3.95896 18.5505C4.09329 14.602 5.70524 11.824 7.8229 9.1689V9.16434Z" fill="#2854C3"/>
</svg>
