<svg width="36" height="36" viewBox="0 0 36 36" fill="none" xmlns="http://www.w3.org/2000/svg">
<path d="M33.75 3.36788L24.7421 3.36791V1.12526C24.7421 0.503555 24.2387 0 23.6171 0C22.9956 0 22.4921 0.503555 22.4921 1.12526V3.36735H13.4921V1.12526C13.4921 0.503555 12.9887 0 12.3671 0C11.7456 0 11.2421 0.503555 11.2421 1.12526V3.36735H2.25C1.00744 3.36735 0 4.37502 0 5.61788V33.7495C0 34.9923 1.00744 36 2.25 36H33.75C34.9926 36 36 34.9923 36 33.7495V5.61788C36 4.37555 34.9926 3.36788 33.75 3.36788ZM33.75 33.7495H2.25V5.61788H11.2421V6.75158C11.2421 7.37326 11.7456 7.87685 12.3671 7.87685C12.9887 7.87685 13.4921 7.37326 13.4921 6.75158V5.61844H22.4921V6.75214C22.4921 7.37385 22.9956 7.87741 23.6171 7.87741C24.2387 7.87741 24.7421 7.37385 24.7421 6.75214V5.61844H33.75V33.7495ZM25.875 17.9963H28.125C28.746 17.9963 29.25 17.4922 29.25 16.871V14.6205C29.25 13.9994 28.746 13.4953 28.125 13.4953H25.875C25.254 13.4953 24.75 13.9994 24.75 14.6205V16.871C24.75 17.4922 25.254 17.9963 25.875 17.9963ZM25.875 26.9979H28.125C28.746 26.9979 29.25 26.4943 29.25 25.8726V23.6221C29.25 23.0009 28.746 22.4968 28.125 22.4968H25.875C25.254 22.4968 24.75 23.0009 24.75 23.6221V25.8726C24.75 26.4949 25.254 26.9979 25.875 26.9979ZM19.125 22.4968H16.875C16.254 22.4968 15.75 23.0009 15.75 23.6221V25.8726C15.75 26.4943 16.254 26.9979 16.875 26.9979H19.125C19.746 26.9979 20.25 26.4943 20.25 25.8726V23.6221C20.25 23.0015 19.746 22.4968 19.125 22.4968ZM19.125 13.4953H16.875C16.254 13.4953 15.75 13.9994 15.75 14.6205V16.871C15.75 17.4922 16.254 17.9963 16.875 17.9963H19.125C19.746 17.9963 20.25 17.4922 20.25 16.871V14.6205C20.25 13.9988 19.746 13.4953 19.125 13.4953ZM10.125 13.4953H7.875C7.254 13.4953 6.75 13.9994 6.75 14.6205V16.871C6.75 17.4922 7.254 17.9963 7.875 17.9963H10.125C10.746 17.9963 11.25 17.4922 11.25 16.871V14.6205C11.25 13.9988 10.746 13.4953 10.125 13.4953ZM10.125 22.4968H7.875C7.254 22.4968 6.75 23.0009 6.75 23.6221V25.8726C6.75 26.4943 7.254 26.9979 7.875 26.9979H10.125C10.746 26.9979 11.25 26.4943 11.25 25.8726V23.6221C11.25 23.0015 10.746 22.4968 10.125 22.4968Z" fill="#2854C3"/>
</svg>
