<svg width="25" height="32" viewBox="0 0 25 32" fill="none" xmlns="http://www.w3.org/2000/svg">
<path d="M12.5 0C19.4038 0 25 5.83461 25 13.0326C25 18.5397 21.2885 24.5414 13.9615 31.1019C13.5541 31.4667 13.0347 31.6672 12.4976 31.6667C11.9605 31.6662 11.4414 31.4648 11.0346 31.0992L10.55 30.6608C3.54744 24.2714 0 18.4168 0 13.0326C0 5.83461 5.59615 0 12.5 0ZM12.5 8.02008C11.2249 8.02008 10.0021 8.54818 9.10045 9.48822C8.19883 10.4283 7.69231 11.7032 7.69231 13.0326C7.69231 14.362 8.19883 15.637 9.10045 16.577C10.0021 17.5171 11.2249 18.0452 12.5 18.0452C13.7751 18.0452 14.9979 17.5171 15.8996 16.577C16.8012 15.637 17.3077 14.362 17.3077 13.0326C17.3077 11.7032 16.8012 10.4283 15.8996 9.48822C14.9979 8.54818 13.7751 8.02008 12.5 8.02008Z" fill="white"/>
</svg>
