<svg width="15" height="15" viewBox="0 0 15 15" fill="none" xmlns="http://www.w3.org/2000/svg">
<path d="M7.50021 8.18168C9.75017 8.18168 11.5911 6.34081 11.5911 4.09084C11.5911 1.84088 9.75017 0 7.50021 0C5.25025 0 3.40937 1.84088 3.40937 4.09084C3.40937 6.34081 5.25025 8.18168 7.50021 8.18168ZM7.50021 0.681807C9.37518 0.681807 10.9092 2.21587 10.9092 4.09084C10.9092 5.96581 9.37518 7.49988 7.50021 7.49988C5.62524 7.49988 4.09118 5.96581 4.09118 4.09084C4.09118 2.21587 5.62524 0.681807 7.50021 0.681807Z" fill="#8C8FA5"/>
<path d="M10.568 8.86363H4.43175C1.97724 8.86363 0 10.8409 0 13.2954V14.9999H0.681807V13.2954C0.681807 11.2159 2.35223 9.54543 4.43175 9.54543H10.568C12.6475 9.54543 14.3179 11.2159 14.3179 13.2954V14.9999H14.9998V13.2954C14.9998 10.8409 13.0225 8.86363 10.568 8.86363Z" fill="#8C8FA5"/>
</svg>
