<svg width="15" height="16" viewBox="0 0 15 16" fill="none" xmlns="http://www.w3.org/2000/svg">
<path d="M14.5009 12.8249C14.0263 12.4018 13.6107 11.9167 13.2655 11.3827C12.8885 10.6456 12.6626 9.84067 12.6009 9.01509V6.5835C12.6042 5.28679 12.1338 4.03352 11.2782 3.05916C10.4226 2.0848 9.24061 1.45642 7.95435 1.29209V0.65712C7.95435 0.482841 7.88512 0.3157 7.76188 0.192466C7.63865 0.0692321 7.47151 0 7.29723 0C7.12295 0 6.95581 0.0692321 6.83258 0.192466C6.70934 0.3157 6.64011 0.482841 6.64011 0.65712V1.30193C5.36537 1.47811 4.19768 2.11029 3.35329 3.08138C2.50891 4.05246 2.04506 5.29665 2.04765 6.5835V9.01509C1.98601 9.84067 1.76009 10.6456 1.38315 11.3827C1.04395 11.9155 0.635066 12.4005 0.167356 12.8249C0.114851 12.871 0.0727711 12.9278 0.043915 12.9915C0.0150589 13.0551 8.85001e-05 13.1242 0 13.1941V13.8635C0 13.9941 0.0518592 14.1192 0.144169 14.2116C0.236479 14.3039 0.361679 14.3557 0.492225 14.3557H14.1761C14.3066 14.3557 14.4318 14.3039 14.5241 14.2116C14.6164 14.1192 14.6683 13.9941 14.6683 13.8635V13.1941C14.6682 13.1242 14.6532 13.0551 14.6244 12.9915C14.5955 12.9278 14.5534 12.871 14.5009 12.8249ZM1.02383 13.3713C1.4818 12.9289 1.88502 12.4331 2.22486 11.8946C2.69966 11.0044 2.97669 10.0222 3.03703 9.01509V6.5835C3.0175 6.00663 3.11427 5.43173 3.32155 4.89304C3.52884 4.35435 3.84241 3.86287 4.24359 3.44789C4.64477 3.0329 5.12536 2.70289 5.65673 2.4775C6.18811 2.25211 6.75941 2.13596 7.33661 2.13596C7.91381 2.13596 8.4851 2.25211 9.01648 2.4775C9.54786 2.70289 10.0284 3.0329 10.4296 3.44789C10.8308 3.86287 11.1444 4.35435 11.3517 4.89304C11.5589 5.43173 11.6557 6.00663 11.6362 6.5835V9.01509C11.6965 10.0222 11.9736 11.0044 12.4484 11.8946C12.7882 12.4331 13.1914 12.9289 13.6494 13.3713H1.02383Z" fill="black"/>
<path d="M7.3594 15.9999C7.66947 15.9927 7.96703 15.8762 8.19943 15.6708C8.43184 15.4654 8.58412 15.1844 8.62934 14.8776H6.04024C6.08674 15.1928 6.24615 15.4803 6.48881 15.6868C6.73146 15.8932 7.04085 16.0045 7.3594 15.9999Z" fill="black"/>
</svg>
