<svg width="12" height="15" viewBox="0 0 12 15" fill="none" xmlns="http://www.w3.org/2000/svg">
<path d="M6 0C9.31385 0 12 2.76376 12 6.17335C12 8.78198 10.2185 11.6249 6.70154 14.7325C6.50598 14.9053 6.25665 15.0002 5.99885 15C5.74104 14.9998 5.49188 14.9044 5.29662 14.7312L5.064 14.5235C1.70277 11.497 0 8.72373 0 6.17335C0 2.76376 2.68615 0 6 0ZM6 3.79898C5.38796 3.79898 4.80099 4.04914 4.36822 4.49442C3.93544 4.9397 3.69231 5.54363 3.69231 6.17335C3.69231 6.80307 3.93544 7.407 4.36822 7.85228C4.80099 8.29756 5.38796 8.54771 6 8.54771C6.61204 8.54771 7.19901 8.29756 7.63179 7.85228C8.06456 7.407 8.30769 6.80307 8.30769 6.17335C8.30769 5.54363 8.06456 4.9397 7.63179 4.49442C7.19901 4.04914 6.61204 3.79898 6 3.79898Z" fill="#8C8FA5"/>
</svg>
