<svg width="8" height="14" viewBox="0 0 8 14" fill="none" xmlns="http://www.w3.org/2000/svg">
<path d="M6.66667 4.55H8C8 2.5641 6.16333 1.6583 4.66667 1.4497V0H3.33333V1.4497C1.83667 1.6583 0 2.5641 0 4.55C0 6.4442 1.77733 7.4291 3.33333 7.651V11.13C2.368 10.9543 1.33333 10.4132 1.33333 9.45H0C0 11.2623 1.61667 12.3333 3.33333 12.5552V14H4.66667V12.551C6.16333 12.3424 8 11.4359 8 9.45C8 7.4641 6.16333 6.5583 4.66667 6.3497V2.87C5.55333 3.0373 6.66667 3.5287 6.66667 4.55ZM1.33333 4.55C1.33333 3.5287 2.44667 3.0373 3.33333 2.87V6.2293C2.41933 6.0522 1.33333 5.5279 1.33333 4.55ZM6.66667 9.45C6.66667 10.4713 5.55333 10.9627 4.66667 11.13V7.77C5.55333 7.9373 6.66667 8.4287 6.66667 9.45Z" fill="#8C8FA5"/>
</svg>
