<svg width="30" height="30" viewBox="0 0 30 30" fill="none" xmlns="http://www.w3.org/2000/svg">
<g clip-path="url(#clip0_1_1369)">
<path d="M25.3125 9.375C25.957 9.375 26.5625 9.49707 27.1289 9.74121C27.6953 9.98535 28.1885 10.3223 28.6084 10.752C29.0283 11.1816 29.3652 11.6797 29.6191 12.2461C29.873 12.8125 30 13.418 30 14.0625C30 14.6191 29.9072 15.1514 29.7217 15.6592C29.5361 16.167 29.2773 16.6211 28.9453 17.0215C28.6133 17.4219 28.2178 17.7686 27.7588 18.0615C27.2998 18.3545 26.7969 18.5547 26.25 18.6621V20.1562C26.25 21.0254 26.1426 21.8701 25.9277 22.6904C25.7129 23.5107 25.4102 24.292 25.0195 25.0342C24.6289 25.7764 24.1504 26.4453 23.584 27.041C23.0176 27.6367 22.3877 28.1592 21.6943 28.6084C21.001 29.0576 20.2441 29.3994 19.4238 29.6338C18.6035 29.8682 17.7539 29.9902 16.875 30C15.9863 30 15.1367 29.8779 14.3262 29.6338C13.5156 29.3896 12.7637 29.0479 12.0703 28.6084C11.377 28.1689 10.7471 27.6465 10.1807 27.041C9.61426 26.4355 9.13574 25.7666 8.74512 25.0342C8.35449 24.3018 8.04688 23.5254 7.82227 22.7051C7.59766 21.8848 7.49023 21.0352 7.5 20.1562V16.8018C6.29883 16.6943 5.23438 16.4062 4.30664 15.9375C3.37891 15.4688 2.59277 14.8535 1.94824 14.0918C1.30371 13.3301 0.820312 12.4463 0.498047 11.4404C0.175781 10.4346 0.00976562 9.3457 0 8.17383V0H4.6875C4.94141 0 5.16113 0.0927734 5.34668 0.27832C5.53223 0.463867 5.625 0.683594 5.625 0.9375C5.625 1.19141 5.53223 1.41113 5.34668 1.59668C5.16113 1.78223 4.94141 1.875 4.6875 1.875H1.875V8.17383C1.875 9.20898 2.0166 10.1465 2.2998 10.9863C2.58301 11.8262 3.00781 12.5439 3.57422 13.1396C4.14062 13.7354 4.82422 14.1943 5.625 14.5166C6.42578 14.8389 7.36328 15 8.4375 15C9.42383 15 10.3223 14.8486 11.1328 14.5459C11.9434 14.2432 12.6318 13.8086 13.1982 13.2422C13.7646 12.6758 14.209 11.9922 14.5312 11.1914C14.8535 10.3906 15.0098 9.4873 15 8.48145V1.875H12.1875C11.9336 1.875 11.7139 1.78223 11.5283 1.59668C11.3428 1.41113 11.25 1.19141 11.25 0.9375C11.25 0.683594 11.3428 0.463867 11.5283 0.27832C11.7139 0.0927734 11.9336 0 12.1875 0H16.875V8.17383C16.875 9.3457 16.709 10.4346 16.377 11.4404C16.0449 12.4463 15.5615 13.3301 14.9268 14.0918C14.292 14.8535 13.5107 15.4688 12.583 15.9375C11.6553 16.4062 10.5859 16.6943 9.375 16.8018V20.1562C9.375 21.2012 9.56055 22.2021 9.93164 23.1592C10.3027 24.1162 10.8252 24.9658 11.499 25.708C12.1729 26.4502 12.9639 27.0361 13.8721 27.4658C14.7803 27.8955 15.7812 28.1152 16.875 28.125C17.959 28.125 18.9551 27.9053 19.8633 27.4658C20.7715 27.0264 21.5625 26.4404 22.2363 25.708C22.9102 24.9756 23.4326 24.1309 23.8037 23.1738C24.1748 22.2168 24.3652 21.2109 24.375 20.1562V18.6621C23.8281 18.5449 23.3252 18.3447 22.8662 18.0615C22.4072 17.7783 22.0117 17.4365 21.6797 17.0361C21.3477 16.6357 21.0889 16.1768 20.9033 15.6592C20.7178 15.1416 20.625 14.6094 20.625 14.0625C20.625 13.418 20.7471 12.8125 20.9912 12.2461C21.2354 11.6797 21.5674 11.1865 21.9873 10.7666C22.4072 10.3467 22.9053 10.0098 23.4814 9.75586C24.0576 9.50195 24.668 9.375 25.3125 9.375ZM25.3125 16.875C25.7031 16.875 26.0693 16.8018 26.4111 16.6553C26.7529 16.5088 27.0508 16.3086 27.3047 16.0547C27.5586 15.8008 27.7588 15.5029 27.9053 15.1611C28.0518 14.8193 28.125 14.4531 28.125 14.0625C28.125 13.6719 28.0518 13.3057 27.9053 12.9639C27.7588 12.6221 27.5586 12.3242 27.3047 12.0703C27.0508 11.8164 26.7529 11.6162 26.4111 11.4697C26.0693 11.3232 25.7031 11.25 25.3125 11.25C24.9219 11.25 24.5557 11.3232 24.2139 11.4697C23.8721 11.6162 23.5742 11.8164 23.3203 12.0703C23.0664 12.3242 22.8662 12.6221 22.7197 12.9639C22.5732 13.3057 22.5 13.6719 22.5 14.0625C22.5 14.4531 22.5732 14.8193 22.7197 15.1611C22.8662 15.5029 23.0664 15.8008 23.3203 16.0547C23.5742 16.3086 23.8721 16.5088 24.2139 16.6553C24.5557 16.8018 24.9219 16.875 25.3125 16.875Z" fill="#979797"/>
</g>
<defs>
<clipPath id="clip0_1_1369">
<rect width="30" height="30" fill="white"/>
</clipPath>
</defs>
</svg>
