<svg width="48" height="48" viewBox="0 0 48 48" fill="none" xmlns="http://www.w3.org/2000/svg">
<rect x="7" y="6" width="33" height="33" rx="7" fill="white"/>
<path d="M23.4028 13.0006C25.3232 12.9794 27.2055 13.5091 28.8023 14.5202L26.3147 18.0408C25.4651 17.5001 24.4618 17.2177 23.4385 17.2311C22.4152 17.2445 21.4205 17.5532 20.5871 18.1159C19.7537 18.6787 19.1212 19.4687 18.7739 20.3808C18.4267 21.2929 18.3811 22.2836 18.6434 23.2208C18.9057 24.158 19.4634 24.9972 20.242 25.6264C21.0206 26.2557 21.9832 26.645 23.0015 26.7427C24.0197 26.8403 25.0451 26.6415 25.941 26.1727C26.8369 25.704 27.5607 24.9877 28.0158 24.1193H23.5V19.8828H33V22.001C32.9997 23.7675 32.4507 25.4949 31.4215 26.9679C30.3922 28.4409 28.9282 29.5943 27.2119 30.2845C25.4955 30.9747 23.6028 31.1712 21.7694 30.8494C19.936 30.5276 18.2432 29.7018 16.9017 28.4748C15.5603 27.2479 14.6296 25.6741 14.2256 23.9496C13.8217 22.225 13.9623 20.426 14.63 18.7766C15.2977 17.1273 16.4629 15.7005 17.9804 14.6742C19.498 13.6478 21.3008 13.0672 23.1642 13.0048L23.4028 13.0006Z" stroke="#2854C3" stroke-linecap="round" stroke-linejoin="round"/>
</svg>
